<svg width="360" height="70" viewBox="0 0 360 70" fill="none" xmlns="http://www.w3.org/2000/svg">
<path d="M12.8203 42.8359V18.625C12.8203 18.4531 12.8125 18.3203 12.7969 18.2266C12.7812 18.1328 12.7266 18.0391 12.6328 17.9453C12.5547 17.8516 12.4297 17.8047 12.2578 17.8047C11.5234 17.8047 10.4531 17.8047 9.04688 17.8047C7.65625 17.7891 6.65625 17.7812 6.04688 17.7812C5.90625 18.0938 5.67188 18.875 5.34375 20.125C5.03125 21.3594 4.71094 22.4453 4.38281 23.3828C4.05469 24.3203 3.75781 24.7891 3.49219 24.7891C2.89844 24.7891 2.36719 24.7109 1.89844 24.5547C1.44531 24.3984 1.09375 24.2109 0.84375 23.9922C0.609375 23.7578 0.429688 23.5469 0.304688 23.3594C0.195312 23.1562 0.140625 23 0.140625 22.8906C0.140625 22.3594 0.429688 20.75 1.00781 18.0625C1.58594 15.375 1.98438 13.9219 2.20312 13.7031C2.25 13.7031 2.29688 13.7109 2.34375 13.7266C2.39062 13.7266 2.4375 13.7266 2.48438 13.7266C7.125 14.1172 11.4766 14.3125 15.5391 14.3125C19.5859 14.3125 23.9297 14.1172 28.5703 13.7266C28.6172 13.7266 28.6641 13.7266 28.7109 13.7266C28.7578 13.7109 28.8047 13.7031 28.8516 13.7031C29.0703 13.9219 29.4688 15.375 30.0469 18.0625C30.625 20.75 30.9141 22.3594 30.9141 22.8906C30.9141 23 30.8516 23.1562 30.7266 23.3594C30.6172 23.5469 30.4375 23.7578 30.1875 23.9922C29.9531 24.2109 29.6016 24.3984 29.1328 24.5547C28.6797 24.7109 28.1562 24.7891 27.5625 24.7891C27.2969 24.7891 27 24.3203 26.6719 23.3828C26.3438 22.4453 26.0156 21.3594 25.6875 20.125C25.375 18.875 25.1484 18.0938 25.0078 17.7812C24.3984 17.7812 23.3906 17.7891 21.9844 17.8047C20.5938 17.8047 19.5312 17.8047 18.7969 17.8047C18.5469 17.8047 18.3906 17.875 18.3281 18.0156C18.2656 18.1562 18.2344 18.3594 18.2344 18.625V42.7891C18.2344 43.0234 18.2422 43.2109 18.2578 43.3516C18.2891 43.4766 18.3438 43.625 18.4219 43.7969C18.5156 43.9688 18.6719 44.1016 18.8906 44.1953C19.1094 44.2734 19.3906 44.3125 19.7344 44.3125C20.4531 44.3125 21.0703 44.4062 21.5859 44.5938C22.1016 44.7812 22.3594 45.0625 22.3594 45.4375C22.3594 47.5156 22.1016 48.7891 21.5859 49.2578C19.2422 49.0859 17.2344 49 15.5625 49C13.9219 49 11.8984 49.0859 9.49219 49.2578C8.97656 48.7891 8.71875 47.5156 8.71875 45.4375C8.71875 45.0625 8.97656 44.7812 9.49219 44.5938C10.0078 44.4062 10.625 44.3125 11.3438 44.3125C11.9531 44.3125 12.3516 44.1875 12.5391 43.9375C12.7266 43.6719 12.8203 43.3047 12.8203 42.8359ZM56.8341 35.1484C56.8341 35.8672 56.6466 36.4219 56.2716 36.8125C55.9122 37.1875 55.2247 37.375 54.2091 37.375H38.0372C38.0997 38.7969 38.3497 40.0234 38.7872 41.0547C39.2247 42.0859 39.8028 42.8984 40.5216 43.4922C41.2403 44.0703 42.0294 44.5 42.8888 44.7812C43.7481 45.0469 44.6856 45.1797 45.7013 45.1797C47.1231 45.1797 48.5763 44.9297 50.0606 44.4297C51.545 43.9297 52.8888 43.2266 54.0919 42.3203C54.9825 43.3672 55.4278 44.3984 55.4278 45.4141C55.4278 46.0859 54.9825 46.75 54.0919 47.4062C53.2013 48.0469 51.9981 48.5781 50.4825 49C48.9669 49.4219 47.3888 49.6328 45.7481 49.6328C44.4044 49.6328 43.1231 49.5 41.9044 49.2344C40.7013 48.9688 39.5138 48.5078 38.3419 47.8516C37.1856 47.1797 36.1856 46.3359 35.3419 45.3203C34.4981 44.3047 33.8184 43 33.3028 41.4062C32.7872 39.8125 32.5294 38.0078 32.5294 35.9922C32.5294 34.0234 32.9044 32.2188 33.6544 30.5781C34.4044 28.9375 35.3966 27.6016 36.6309 26.5703C37.8653 25.5234 39.2403 24.7188 40.7559 24.1562C42.2872 23.5938 43.8575 23.3125 45.4669 23.3125C46.6544 23.3125 47.795 23.4609 48.8888 23.7578C49.9825 24.0547 51.0138 24.5234 51.9825 25.1641C52.9513 25.7891 53.795 26.5625 54.5138 27.4844C55.2325 28.3906 55.795 29.5 56.2013 30.8125C56.6231 32.125 56.8341 33.5703 56.8341 35.1484ZM52.0997 33.7422C51.9591 31.5703 51.2716 29.9219 50.0372 28.7969C48.8184 27.6562 47.3575 27.0859 45.6544 27.0859C43.8419 27.0859 42.1934 27.6953 40.7091 28.9141C39.2403 30.1172 38.3966 31.7266 38.1778 33.7422H52.0997ZM69.5822 43.1172C69.5822 43.3516 69.59 43.5391 69.6056 43.6797C69.6369 43.8047 69.6916 43.9531 69.7697 44.125C69.8634 44.2969 70.0197 44.4297 70.2384 44.5234C70.4572 44.6016 70.7384 44.6406 71.0822 44.6406C71.6759 44.6406 72.1838 44.7344 72.6056 44.9219C73.0275 45.1094 73.2384 45.3906 73.2384 45.7656C73.2384 47.5938 72.9806 48.7344 72.465 49.1875C71.1213 49.0625 69.3244 49 67.0744 49C64.6681 49 62.7775 49.0625 61.4025 49.1875C60.8869 48.7188 60.6291 47.5781 60.6291 45.7656C60.6291 45.3906 60.84 45.1094 61.2619 44.9219C61.6838 44.7344 62.1916 44.6406 62.7853 44.6406C63.3947 44.6406 63.7931 44.5156 63.9806 44.2656C64.1681 44 64.2619 43.6328 64.2619 43.1641V20.6641C64.2619 19.8359 64.0197 19.25 63.5353 18.9062C63.0666 18.5625 62.1525 18.3594 60.7931 18.2969C60.59 18.25 60.4572 18.1484 60.3947 17.9922C60.3478 17.8359 60.3244 17.5 60.3244 16.9844C60.3244 16.1875 60.4103 15.4844 60.5822 14.875C60.7541 14.2656 60.9259 13.9141 61.0978 13.8203C62.3947 13.9922 63.6369 14.0781 64.8244 14.0781C65.5275 14.0781 66.2697 14.0391 67.0509 13.9609C67.8322 13.8672 68.2463 13.8203 68.2931 13.8203C68.84 13.8203 69.1916 13.9609 69.3478 14.2422C69.5197 14.5078 69.6056 15.1328 69.6056 16.1172C69.6056 16.1484 69.6056 16.1953 69.6056 16.2578C69.59 18.4609 69.5822 27.4141 69.5822 43.1172ZM101.033 35.1484C101.033 35.8672 100.846 36.4219 100.471 36.8125C100.112 37.1875 99.4241 37.375 98.4084 37.375H82.2366C82.2991 38.7969 82.5491 40.0234 82.9866 41.0547C83.4241 42.0859 84.0022 42.8984 84.7209 43.4922C85.4397 44.0703 86.2288 44.5 87.0881 44.7812C87.9475 45.0469 88.885 45.1797 89.9006 45.1797C91.3225 45.1797 92.7756 44.9297 94.26 44.4297C95.7444 43.9297 97.0881 43.2266 98.2913 42.3203C99.1819 43.3672 99.6272 44.3984 99.6272 45.4141C99.6272 46.0859 99.1819 46.75 98.2913 47.4062C97.4006 48.0469 96.1975 48.5781 94.6819 49C93.1663 49.4219 91.5881 49.6328 89.9475 49.6328C88.6038 49.6328 87.3225 49.5 86.1038 49.2344C84.9006 48.9688 83.7131 48.5078 82.5413 47.8516C81.385 47.1797 80.385 46.3359 79.5413 45.3203C78.6975 44.3047 78.0178 43 77.5022 41.4062C76.9866 39.8125 76.7288 38.0078 76.7288 35.9922C76.7288 34.0234 77.1038 32.2188 77.8538 30.5781C78.6038 28.9375 79.5959 27.6016 80.8303 26.5703C82.0647 25.5234 83.4397 24.7188 84.9553 24.1562C86.4866 23.5938 88.0569 23.3125 89.6663 23.3125C90.8538 23.3125 91.9944 23.4609 93.0881 23.7578C94.1819 24.0547 95.2131 24.5234 96.1819 25.1641C97.1506 25.7891 97.9944 26.5625 98.7131 27.4844C99.4319 28.3906 99.9944 29.5 100.401 30.8125C100.823 32.125 101.033 33.5703 101.033 35.1484ZM96.2991 33.7422C96.1584 31.5703 95.4709 29.9219 94.2366 28.7969C93.0178 27.6562 91.5569 27.0859 89.8538 27.0859C88.0413 27.0859 86.3928 27.6953 84.9084 28.9141C83.4397 30.1172 82.5959 31.7266 82.3772 33.7422H96.2991ZM113.172 35.3125V42.3672C114 43.4141 115.078 44.2266 116.407 44.8047C117.75 45.3828 119.149 45.6719 120.602 45.6719C122.586 45.6719 124.235 44.8906 125.547 43.3281C126.875 41.7656 127.539 39.4766 127.539 36.4609C127.539 33.5703 126.821 31.3281 125.383 29.7344C123.961 28.125 122.25 27.3203 120.25 27.3203C118.375 27.3203 116.727 28.0312 115.305 29.4531C113.883 30.8594 113.172 32.8125 113.172 35.3125ZM113.172 46.8672V52.6328C113.172 52.8672 113.18 53.0469 113.196 53.1719C113.227 53.3125 113.282 53.4688 113.36 53.6406C113.453 53.8125 113.61 53.9375 113.828 54.0156C114.047 54.1094 114.328 54.1562 114.672 54.1562C115.266 54.1562 115.774 54.25 116.196 54.4375C116.618 54.625 116.828 54.9062 116.828 55.2812C116.828 57.1094 116.571 58.25 116.055 58.7031C115.008 58.4688 113.243 58.3516 110.758 58.3516C108.086 58.3516 106.164 58.4688 104.993 58.7031C104.477 58.2344 104.219 57.0938 104.219 55.2812C104.219 54.9062 104.43 54.625 104.852 54.4375C105.274 54.25 105.782 54.1562 106.375 54.1562C106.985 54.1562 107.383 54.0234 107.571 53.7578C107.758 53.5078 107.852 53.1484 107.852 52.6797V30.5781C107.852 29.75 107.61 29.1641 107.125 28.8203C106.657 28.4766 105.743 28.2734 104.383 28.2109C104.18 28.1641 104.047 28.0625 103.985 27.9062C103.938 27.75 103.914 27.4141 103.914 26.8984C103.914 26.1016 104 25.3984 104.172 24.7891C104.344 24.1797 104.516 23.8281 104.688 23.7344C105.891 23.9062 107.055 23.9922 108.18 23.9922C108.883 23.9922 109.625 23.9531 110.407 23.875C111.188 23.7812 111.602 23.7344 111.649 23.7344C112.196 23.7344 112.547 23.875 112.703 24.1562C112.875 24.4219 112.961 25.0469 112.961 26.0312V27.7188C113.774 26.3125 114.922 25.2344 116.407 24.4844C117.891 23.7188 119.43 23.3359 121.024 23.3359C122.571 23.3359 124.047 23.6172 125.453 24.1797C126.875 24.7422 128.157 25.5547 129.297 26.6172C130.438 27.6641 131.344 29.0391 132.016 30.7422C132.703 32.4453 133.047 34.3516 133.047 36.4609C133.047 38.5703 132.703 40.4844 132.016 42.2031C131.328 43.9062 130.407 45.2891 129.25 46.3516C128.11 47.4141 126.821 48.2266 125.383 48.7891C123.946 49.3516 122.446 49.6328 120.883 49.6328C117.774 49.6328 115.203 48.7109 113.172 46.8672ZM153.928 45.8125C152.788 47.0156 151.342 47.9531 149.592 48.625C147.858 49.2969 146.092 49.6328 144.295 49.6328C142.061 49.6328 140.217 49.0391 138.764 47.8516C137.311 46.6641 136.584 44.9453 136.584 42.6953C136.584 40.2891 137.748 38.4766 140.077 37.2578C141.827 36.3203 144.827 35.5078 149.077 34.8203C149.873 34.6797 151.17 34.4766 152.967 34.2109C152.967 31.5547 152.631 29.7266 151.959 28.7266C151.288 27.7266 149.998 27.2266 148.092 27.2266C146.702 27.2266 145.155 27.5391 143.452 28.1641C141.748 28.7891 140.389 29.6562 139.373 30.7656C138.108 29.7031 137.475 28.6641 137.475 27.6484C137.475 26.7734 138.077 26 139.28 25.3281C140.483 24.6406 141.897 24.1406 143.522 23.8281C145.163 23.5 146.803 23.3359 148.444 23.3359C149.991 23.3359 151.342 23.5312 152.498 23.9219C153.67 24.2969 154.702 24.9219 155.592 25.7969C156.483 26.6719 157.155 27.875 157.608 29.4062C158.077 30.9375 158.311 32.7969 158.311 34.9844V42.4844C158.311 43.125 158.358 43.6094 158.452 43.9375C158.561 44.25 158.678 44.4453 158.803 44.5234C158.928 44.5859 159.131 44.6328 159.413 44.6641C159.897 44.7109 160.256 44.7578 160.491 44.8047C160.725 44.8359 160.998 44.8906 161.311 44.9688C161.623 45.0469 161.842 45.1484 161.967 45.2734C162.108 45.3984 162.178 45.5547 162.178 45.7422C162.178 47.5859 161.92 48.7344 161.405 49.1875C160.655 49.0625 159.678 49 158.475 49C157.381 49 156.366 49.0547 155.428 49.1641C155.319 49.0859 155.178 48.9766 155.006 48.8359C154.85 48.6953 154.631 48.3359 154.35 47.7578C154.069 47.1797 153.928 46.5312 153.928 45.8125ZM145.373 45.4609C146.795 45.4609 148.334 45.0703 149.991 44.2891C151.647 43.4922 152.647 42.7734 152.991 42.1328V37.9844C148.725 38.75 145.842 39.4375 144.342 40.0469C142.858 40.6562 142.116 41.5156 142.116 42.625C142.116 44.5156 143.202 45.4609 145.373 45.4609ZM182.239 44.3125C182.708 45.2031 182.942 46.0391 182.942 46.8203C182.942 47.2578 182.747 47.6406 182.356 47.9688C181.981 48.2812 181.489 48.5234 180.879 48.6953C180.27 48.8672 179.661 48.9922 179.051 49.0703C178.442 49.1484 177.848 49.1875 177.27 49.1875C176.395 49.1875 175.583 49.0625 174.833 48.8125C174.083 48.5625 173.364 48.1562 172.676 47.5938C172.004 47.0156 171.473 46.1875 171.083 45.1094C170.692 44.0156 170.497 42.7188 170.497 41.2188V27.625H169.489C167.645 27.625 166.637 27.6328 166.465 27.6484C165.95 27.4609 165.692 26.8594 165.692 25.8438C165.692 24.6094 166.083 23.9922 166.864 23.9922H170.497C170.559 23.4922 170.614 22.8438 170.661 22.0469C170.723 21.2344 170.778 20.5938 170.825 20.125C170.872 19.6562 170.942 19.1016 171.036 18.4609C171.145 17.8203 171.286 17.3203 171.458 16.9609C171.645 16.5859 171.879 16.2188 172.161 15.8594C172.442 15.5 172.801 15.2422 173.239 15.0859C173.692 14.9141 174.223 14.8281 174.833 14.8281C175.254 14.8281 175.583 14.8984 175.817 15.0391V23.9922H178.934C180.793 23.9922 181.77 23.9531 181.864 23.875C182.645 23.875 183.036 24.5469 183.036 25.8906C183.036 26.9062 182.778 27.5078 182.262 27.6953C181.747 27.6484 180.739 27.625 179.239 27.625H175.817V41.0781C175.817 43.6719 176.661 44.9688 178.348 44.9688C179.442 44.9688 180.739 44.75 182.239 44.3125ZM195.948 17.4062V27.3203C197.057 26.1484 198.385 25.1875 199.932 24.4375C201.479 23.6875 203.135 23.3125 204.901 23.3125C205.917 23.3125 206.846 23.4844 207.69 23.8281C208.549 24.1719 209.331 24.7031 210.034 25.4219C210.753 26.1406 211.315 27.1406 211.721 28.4219C212.128 29.7031 212.331 31.2109 212.331 32.9453V42.4844C212.331 43.9688 212.721 44.7422 213.503 44.8047C213.628 44.8203 213.799 44.8359 214.018 44.8516C214.253 44.8672 214.432 44.8828 214.557 44.8984C214.698 44.9141 214.862 44.9375 215.049 44.9688C215.237 44.9844 215.385 45.0078 215.495 45.0391C215.604 45.0547 215.729 45.0859 215.87 45.1328C216.026 45.1641 216.143 45.2031 216.221 45.25C216.299 45.2969 216.378 45.3516 216.456 45.4141C216.534 45.4766 216.588 45.5547 216.62 45.6484C216.651 45.7266 216.667 45.8203 216.667 45.9297C216.667 47.6484 216.331 48.7344 215.659 49.1875C214.331 49.0625 213.034 49 211.768 49C211.128 49 210.409 49.0312 209.612 49.0938C208.815 49.1562 208.213 49.1875 207.807 49.1875C207.635 49.1875 207.495 49.1562 207.385 49.0938C207.292 49.0469 207.206 48.8984 207.128 48.6484C207.049 48.3984 207.01 48.0391 207.01 47.5703V33.3672C207.01 31.3359 206.659 29.8516 205.956 28.9141C205.268 27.9609 204.354 27.4844 203.213 27.4844C202.12 27.4844 200.917 27.8125 199.604 28.4688C198.307 29.125 197.088 29.9688 195.948 31V43.1172C195.948 43.3516 195.956 43.5391 195.971 43.6797C196.003 43.8047 196.057 43.9531 196.135 44.125C196.229 44.2969 196.385 44.4297 196.604 44.5234C196.823 44.6016 197.104 44.6406 197.448 44.6406C198.042 44.6406 198.549 44.7344 198.971 44.9219C199.393 45.1094 199.604 45.3906 199.604 45.7656C199.604 47.5938 199.346 48.7344 198.831 49.1875C197.362 49.0625 195.557 49 193.417 49C191.151 49 189.268 49.0625 187.768 49.1875C187.253 48.7188 186.995 47.5781 186.995 45.7656C186.995 45.3906 187.206 45.1094 187.628 44.9219C188.049 44.7344 188.557 44.6406 189.151 44.6406C189.76 44.6406 190.159 44.5156 190.346 44.2656C190.534 44 190.628 43.6328 190.628 43.1641V20.6641C190.628 19.8359 190.385 19.25 189.901 18.9062C189.432 18.5625 188.518 18.3594 187.159 18.2969C186.956 18.25 186.823 18.1484 186.76 17.9922C186.713 17.8359 186.69 17.5 186.69 16.9844C186.69 16.1875 186.776 15.4844 186.948 14.875C187.12 14.2656 187.292 13.9141 187.463 13.8203C188.76 13.9922 190.003 14.0781 191.19 14.0781C191.893 14.0781 192.635 14.0391 193.417 13.9609C194.198 13.8672 194.612 13.8203 194.659 13.8203C195.206 13.8203 195.557 13.9609 195.713 14.2422C195.885 14.5078 195.971 15.1328 195.971 16.1172C195.971 16.2266 195.963 16.4297 195.948 16.7266C195.948 17.0078 195.948 17.2344 195.948 17.4062ZM229.813 29.6641L235.837 43.0703L241.063 29.6641C241.141 29.4297 241.18 29.2188 241.18 29.0312C241.18 28.7344 241.055 28.5156 240.805 28.375C240.571 28.2344 240.305 28.1562 240.008 28.1406C239.727 28.125 239.462 28.0469 239.212 27.9062C238.977 27.75 238.86 27.5078 238.86 27.1797V27.0156C239.094 24.9219 239.36 23.6953 239.657 23.3359C241.188 23.7422 242.837 23.9453 244.602 23.9453C246.477 23.9453 248.204 23.7422 249.782 23.3359C250.391 23.6172 250.696 24.3594 250.696 25.5625C250.696 26.5156 250.508 27.1875 250.133 27.5781C249.758 27.9531 249.102 28.1406 248.165 28.1406C247.946 28.1406 247.751 28.1641 247.579 28.2109C247.407 28.2578 247.266 28.3047 247.157 28.3516C247.063 28.3984 246.969 28.4844 246.876 28.6094C246.782 28.7344 246.719 28.8359 246.688 28.9141C246.657 28.9766 246.602 29.0938 246.524 29.2656C246.462 29.4375 246.415 29.5547 246.383 29.6172L237.008 51.2266C236.087 53.2734 234.985 54.7656 233.704 55.7031C232.438 56.6562 230.883 57.1328 229.04 57.1328C227.571 57.1328 226.305 56.8438 225.243 56.2656C224.18 55.7031 223.649 55.0625 223.649 54.3438C223.649 53.4219 223.727 52.7969 223.883 52.4688C224.04 52.1562 224.321 52 224.727 52C224.883 52 225.423 52.1094 226.344 52.3281C227.282 52.5625 228.149 52.6797 228.946 52.6797C229.305 52.6797 229.587 52.6641 229.79 52.6328C229.993 52.6172 230.204 52.5391 230.423 52.3984C230.641 52.2578 230.805 52.125 230.915 52C231.024 51.875 231.196 51.6094 231.43 51.2031C231.665 50.7969 231.86 50.4141 232.016 50.0547C232.173 49.7109 232.438 49.1484 232.813 48.3672C233.204 47.5703 233.571 46.8203 233.915 46.1172C233.337 46.1172 232.907 46.0703 232.626 45.9766C232.344 45.8672 232.133 45.6484 231.993 45.3203L224.493 29.6172C224.477 29.5703 224.43 29.4531 224.352 29.2656C224.274 29.0781 224.219 28.9609 224.188 28.9141C224.157 28.8516 224.087 28.7578 223.977 28.6328C223.883 28.4922 223.782 28.3984 223.673 28.3516C223.579 28.3047 223.446 28.2578 223.274 28.2109C223.118 28.1641 222.93 28.1406 222.712 28.1406C221.774 28.1406 221.118 27.9531 220.743 27.5781C220.368 27.1875 220.18 26.5156 220.18 25.5625C220.18 24.3594 220.485 23.6172 221.094 23.3359C222.516 23.7422 224.243 23.9453 226.274 23.9453C228.337 23.9453 230.141 23.7422 231.688 23.3359C231.985 23.6953 232.251 24.9219 232.485 27.0156V27.1797C232.485 27.5078 232.337 27.75 232.04 27.9062C231.743 28.0625 231.423 28.1484 231.079 28.1641C230.735 28.1797 230.415 28.2578 230.118 28.3984C229.821 28.5234 229.673 28.7344 229.673 29.0312C229.673 29.2812 229.719 29.4922 229.813 29.6641ZM270.169 34.5156C269.106 34.5156 268.575 33.75 268.575 32.2188C268.575 30.8125 269.169 30.1094 270.356 30.1094C271.263 30.1094 272.802 30.1172 274.973 30.1328C277.161 30.1328 278.911 30.1328 280.223 30.1328H285.755C286.333 30.1328 286.739 30.1953 286.973 30.3203C287.223 30.4297 287.348 30.6562 287.348 31C287.348 33.2812 286.825 34.4219 285.778 34.4219H275.723C273.192 34.4219 271.341 34.4531 270.169 34.5156Z" fill="#75BC8D"/>
<path d="M289 18.9722C290.383 15.1107 293.783 10.5363 298.915 8.35301C303.753 6.29471 309.438 6.82248 312.288 8.35301C317.754 11.2885 322.433 20.903 322.433 20.903C322.433 20.903 327.081 10.8167 332.809 8.35301C335.345 7.26201 341.344 6.29471 346.182 8.35301C351.314 10.5363 354.944 14.628 356.096 18.9722C357.249 23.3164 357.352 29.1108 356.096 35.3837C352.474 53.4787 322.433 67 322.433 67C322.433 67 306.958 59.9494 296.953 49.2684" stroke="#63676F" stroke-width="5" stroke-linecap="round" stroke-linejoin="round"/>
</svg>
