<svg width="178" height="49" viewBox="0 0 178 49" fill="none" xmlns="http://www.w3.org/2000/svg">
<path fill-rule="evenodd" clip-rule="evenodd" d="M8.5352 2.05986C12.3222 0.447526 16.7719 0.860941 19.0027 2.05986C23.2811 4.35929 26.9435 11.8907 26.9435 11.8907C26.9435 11.8907 30.5819 3.98972 35.0649 2.05986C37.0501 1.20524 41.7454 0.447526 45.5324 2.05986C49.5493 3.77011 52.3904 6.97526 53.2927 10.3782C54.1951 13.7812 54.2755 18.3202 53.2927 23.2339C50.4577 37.4084 26.9435 48 26.9435 48C26.9435 48 7.88977 39.3123 2.12773 27.2224H7.37313C8.02293 27.2224 8.59884 26.804 8.79968 26.186L9.7791 23.1724L13.3104 34.853C13.5107 35.5154 14.1382 35.9549 14.8293 35.9166C15.5203 35.8783 16.0954 35.3721 16.2212 34.6916L19.2234 18.4526L21.434 26.1371C21.6189 26.7797 22.2068 27.2224 22.8756 27.2224H31.0049C31.8333 27.2224 32.5049 26.5508 32.5049 25.7224C32.5049 24.894 31.8333 24.2224 31.0049 24.2224H24.0049L20.347 11.5068C20.1546 10.838 19.5275 10.3894 18.8325 10.4232C18.1374 10.4571 17.5569 10.9645 17.4304 11.6488L14.3943 28.0714L11.2666 17.7261C11.077 17.0987 10.5018 16.6671 9.84631 16.6603C9.19084 16.6535 8.60689 17.0732 8.40428 17.6966L6.2834 24.2224H1.00691C0.918617 23.8949 0.841068 23.5654 0.774825 23.2339C-0.207301 18.32 -0.308022 13.4031 0.774825 10.3782C1.85767 7.35337 4.51824 3.77011 8.5352 2.05986Z" fill="#75BC8D"/>
<path d="M49 41L54 47" stroke="white" stroke-width="3" stroke-linecap="round" stroke-linejoin="round"/>
<circle cx="42.5" cy="33.5" r="8" stroke="white" stroke-width="3"/>
<path d="M123.775 10.3782C124.858 7.35337 127.518 3.77011 131.535 2.05986C135.322 0.447526 139.772 0.860941 142.003 2.05986C146.281 4.35929 149.944 11.8907 149.944 11.8907C149.944 11.8907 153.582 3.98972 158.065 2.05986C160.05 1.20524 164.745 0.447526 168.532 2.05986C172.549 3.77011 175.39 6.97526 176.293 10.3782C177.195 13.7812 177.276 18.3202 176.293 23.2339C173.458 37.4084 149.944 48 149.944 48C149.944 48 137.831 42.4771 130 34.1102" stroke="#75BC8D" stroke-linecap="round" stroke-linejoin="round"/>
<path d="M68.264 16.064L68.144 14.408H73.736C73.784 14.472 73.832 14.576 73.88 14.72C73.928 14.864 73.952 15.016 73.952 15.176C73.952 15.432 73.888 15.648 73.76 15.824C73.632 15.984 73.448 16.064 73.208 16.064H68.264ZM68.312 14.408L68.432 16.064H62.816C62.768 15.984 62.72 15.872 62.672 15.728C62.624 15.584 62.6 15.432 62.6 15.272C62.6 15 62.664 14.792 62.792 14.648C62.92 14.488 63.104 14.408 63.344 14.408H68.312ZM67.304 15.416H69.248V28.952C69.168 28.984 69.04 29.016 68.864 29.048C68.704 29.096 68.536 29.12 68.36 29.12C68.008 29.12 67.744 29.048 67.568 28.904C67.392 28.76 67.304 28.536 67.304 28.232V15.416ZM75.4882 24.68L75.3922 23.168L82.6402 22.184C82.5762 21.304 82.2722 20.584 81.7282 20.024C81.1842 19.448 80.4322 19.16 79.4722 19.16C78.4802 19.16 77.6562 19.52 77.0002 20.24C76.3602 20.944 76.0402 21.96 76.0402 23.288V23.816C76.1522 25.096 76.5682 26.072 77.2882 26.744C78.0242 27.4 79.0242 27.728 80.2882 27.728C80.9602 27.728 81.5682 27.616 82.1122 27.392C82.6562 27.168 83.0882 26.928 83.4082 26.672C83.5842 26.784 83.7202 26.92 83.8162 27.08C83.9282 27.224 83.9842 27.392 83.9842 27.584C83.9842 27.888 83.8082 28.176 83.4562 28.448C83.1202 28.704 82.6642 28.912 82.0882 29.072C81.5282 29.232 80.8962 29.312 80.1922 29.312C78.9602 29.312 77.8882 29.088 76.9762 28.64C76.0802 28.192 75.3842 27.528 74.8882 26.648C74.4082 25.752 74.1682 24.664 74.1682 23.384C74.1682 22.472 74.2962 21.664 74.5522 20.96C74.8242 20.24 75.1922 19.632 75.6562 19.136C76.1362 18.64 76.7042 18.264 77.3602 18.008C78.0162 17.736 78.7282 17.6 79.4962 17.6C80.4722 17.6 81.3282 17.808 82.0642 18.224C82.8162 18.64 83.4002 19.224 83.8162 19.976C84.2482 20.712 84.4642 21.56 84.4642 22.52C84.4642 22.872 84.3842 23.128 84.2242 23.288C84.0642 23.432 83.8402 23.52 83.5522 23.552L75.4882 24.68ZM87.4295 22.664L89.3495 22.952V28.952C89.2695 28.984 89.1495 29.016 88.9895 29.048C88.8295 29.096 88.6535 29.12 88.4615 29.12C88.1255 29.12 87.8695 29.056 87.6935 28.928C87.5175 28.784 87.4295 28.56 87.4295 28.256V22.664ZM89.3495 23.864L87.4295 23.6V13.448C87.5095 13.416 87.6295 13.384 87.7895 13.352C87.9655 13.304 88.1415 13.28 88.3175 13.28C88.6695 13.28 88.9255 13.352 89.0855 13.496C89.2615 13.624 89.3495 13.84 89.3495 14.144V23.864ZM93.8398 24.68L93.7438 23.168L100.992 22.184C100.928 21.304 100.624 20.584 100.08 20.024C99.5358 19.448 98.7838 19.16 97.8238 19.16C96.8318 19.16 96.0078 19.52 95.3518 20.24C94.7118 20.944 94.3918 21.96 94.3918 23.288V23.816C94.5038 25.096 94.9198 26.072 95.6398 26.744C96.3758 27.4 97.3758 27.728 98.6398 27.728C99.3118 27.728 99.9198 27.616 100.464 27.392C101.008 27.168 101.44 26.928 101.76 26.672C101.936 26.784 102.072 26.92 102.168 27.08C102.28 27.224 102.336 27.392 102.336 27.584C102.336 27.888 102.16 28.176 101.808 28.448C101.472 28.704 101.016 28.912 100.44 29.072C99.8798 29.232 99.2478 29.312 98.5438 29.312C97.3118 29.312 96.2398 29.088 95.3278 28.64C94.4318 28.192 93.7358 27.528 93.2398 26.648C92.7598 25.752 92.5198 24.664 92.5198 23.384C92.5198 22.472 92.6478 21.664 92.9038 20.96C93.1758 20.24 93.5438 19.632 94.0078 19.136C94.4878 18.64 95.0558 18.264 95.7118 18.008C96.3678 17.736 97.0798 17.6 97.8478 17.6C98.8238 17.6 99.6798 17.808 100.416 18.224C101.168 18.64 101.752 19.224 102.168 19.976C102.6 20.712 102.816 21.56 102.816 22.52C102.816 22.872 102.736 23.128 102.576 23.288C102.416 23.432 102.192 23.52 101.904 23.552L93.8398 24.68ZM110.317 29.312C109.629 29.312 108.981 29.208 108.373 29C107.781 28.808 107.349 28.592 107.077 28.352V26.576C107.397 26.88 107.797 27.152 108.277 27.392C108.773 27.616 109.365 27.728 110.053 27.728C111.173 27.728 112.069 27.392 112.741 26.72C113.429 26.032 113.773 24.936 113.773 23.432C113.773 22.376 113.597 21.544 113.245 20.936C112.909 20.312 112.453 19.864 111.877 19.592C111.317 19.32 110.709 19.184 110.053 19.184C109.477 19.184 108.989 19.256 108.589 19.4C108.189 19.544 107.829 19.704 107.509 19.88V27.848H105.589V19.928C105.589 19.608 105.645 19.352 105.757 19.16C105.869 18.968 106.101 18.768 106.453 18.56C106.885 18.32 107.397 18.104 107.989 17.912C108.597 17.704 109.285 17.6 110.053 17.6C111.109 17.6 112.061 17.808 112.909 18.224C113.773 18.624 114.453 19.256 114.949 20.12C115.461 20.968 115.717 22.072 115.717 23.432C115.717 24.744 115.485 25.84 115.021 26.72C114.573 27.584 113.941 28.232 113.125 28.664C112.309 29.096 111.373 29.312 110.317 29.312ZM107.509 27.2V33.32C107.429 33.352 107.309 33.384 107.149 33.416C106.989 33.464 106.813 33.488 106.621 33.488C106.285 33.488 106.029 33.416 105.853 33.272C105.677 33.128 105.589 32.904 105.589 32.6V27.152L107.509 27.2ZM122.698 27.752C123.37 27.752 123.922 27.688 124.354 27.56C124.802 27.416 125.122 27.28 125.314 27.152V23.672L122.338 23.984C121.506 24.048 120.89 24.232 120.49 24.536C120.09 24.84 119.89 25.28 119.89 25.856C119.89 26.448 120.122 26.912 120.586 27.248C121.066 27.584 121.77 27.752 122.698 27.752ZM122.674 17.6C124.066 17.6 125.17 17.912 125.986 18.536C126.802 19.16 127.21 20.144 127.21 21.488V27.176C127.21 27.528 127.138 27.8 126.994 27.992C126.866 28.168 126.666 28.336 126.394 28.496C126.01 28.704 125.498 28.896 124.858 29.072C124.218 29.248 123.498 29.336 122.698 29.336C121.194 29.336 120.026 29.04 119.194 28.448C118.378 27.856 117.97 27 117.97 25.88C117.97 24.84 118.314 24.048 119.002 23.504C119.706 22.944 120.674 22.608 121.906 22.496L125.314 22.16V21.488C125.314 20.688 125.074 20.104 124.594 19.736C124.114 19.368 123.466 19.184 122.65 19.184C121.994 19.184 121.362 19.28 120.754 19.472C120.162 19.664 119.634 19.88 119.17 20.12C119.042 20.008 118.922 19.88 118.81 19.736C118.714 19.576 118.666 19.416 118.666 19.256C118.666 18.84 118.898 18.52 119.362 18.296C119.794 18.072 120.29 17.904 120.85 17.792C121.426 17.664 122.034 17.6 122.674 17.6ZM130.738 22.664H132.658V25.976C132.658 26.616 132.842 27.072 133.21 27.344C133.578 27.6 134.082 27.728 134.722 27.728C134.994 27.728 135.298 27.68 135.634 27.584C135.97 27.488 136.25 27.376 136.474 27.248C136.57 27.344 136.658 27.464 136.738 27.608C136.818 27.752 136.858 27.92 136.858 28.112C136.858 28.464 136.65 28.752 136.234 28.976C135.818 29.2 135.242 29.312 134.506 29.312C133.386 29.312 132.474 29.064 131.77 28.568C131.082 28.072 130.738 27.248 130.738 26.096V22.664ZM131.722 19.736V18.152H136.594C136.642 18.216 136.69 18.32 136.738 18.464C136.786 18.608 136.81 18.76 136.81 18.92C136.81 19.176 136.746 19.376 136.618 19.52C136.49 19.664 136.314 19.736 136.09 19.736H131.722ZM132.658 23.384H130.738V14.696C130.818 14.664 130.938 14.632 131.098 14.6C131.274 14.552 131.458 14.528 131.65 14.528C131.986 14.528 132.234 14.6 132.394 14.744C132.57 14.872 132.658 15.088 132.658 15.392V23.384ZM149.268 24.224H147.348V22.016C147.348 21.056 147.076 20.344 146.532 19.88C146.004 19.416 145.316 19.184 144.468 19.184C143.844 19.184 143.26 19.304 142.716 19.544C142.188 19.784 141.74 20.072 141.372 20.408L141.012 18.848C141.396 18.576 141.9 18.304 142.524 18.032C143.164 17.744 143.9 17.6 144.732 17.6C146.06 17.6 147.148 17.96 147.996 18.68C148.844 19.4 149.268 20.496 149.268 21.968V24.224ZM139.692 22.664H141.612V28.952C141.532 28.984 141.412 29.016 141.252 29.048C141.092 29.096 140.916 29.12 140.724 29.12C140.388 29.12 140.132 29.056 139.956 28.928C139.78 28.784 139.692 28.56 139.692 28.256V22.664ZM147.348 22.688L149.268 22.712V28.952C149.188 28.984 149.06 29.016 148.884 29.048C148.724 29.096 148.556 29.12 148.38 29.12C148.028 29.12 147.764 29.056 147.588 28.928C147.428 28.784 147.348 28.56 147.348 28.256V22.688ZM141.612 23.6H139.692V13.448C139.772 13.416 139.892 13.384 140.052 13.352C140.228 13.304 140.412 13.28 140.604 13.28C140.94 13.28 141.188 13.352 141.348 13.496C141.524 13.624 141.612 13.84 141.612 14.144V23.6ZM154.814 26.528C154.542 26.016 154.214 25.328 153.83 24.464C153.446 23.584 153.046 22.608 152.63 21.536C152.23 20.448 151.846 19.344 151.478 18.224C151.59 18.064 151.734 17.936 151.91 17.84C152.102 17.744 152.302 17.696 152.51 17.696C152.782 17.696 153.006 17.768 153.182 17.912C153.358 18.056 153.502 18.296 153.614 18.632C154.094 19.976 154.598 21.312 155.126 22.64C155.654 23.968 156.238 25.344 156.878 26.768H156.974C157.31 26.096 157.662 25.256 158.03 24.248C158.398 23.24 158.75 22.176 159.086 21.056C159.422 19.936 159.702 18.88 159.926 17.888C160.038 17.84 160.158 17.8 160.286 17.768C160.43 17.72 160.582 17.696 160.742 17.696C161.014 17.696 161.238 17.768 161.414 17.912C161.59 18.04 161.678 18.24 161.678 18.512C161.678 18.768 161.606 19.2 161.462 19.808C161.318 20.4 161.118 21.096 160.862 21.896C160.622 22.68 160.334 23.52 159.998 24.416C159.678 25.296 159.326 26.168 158.942 27.032C158.574 27.88 158.198 28.648 157.814 29.336C157.078 30.696 156.406 31.736 155.798 32.456C155.19 33.192 154.63 33.56 154.118 33.56C153.75 33.56 153.462 33.464 153.254 33.272C153.062 33.08 152.942 32.856 152.894 32.6C153.246 32.296 153.638 31.888 154.07 31.376C154.518 30.88 154.942 30.336 155.342 29.744C155.758 29.168 156.094 28.616 156.35 28.088C156.078 28.008 155.822 27.864 155.582 27.656C155.358 27.448 155.102 27.072 154.814 26.528Z" fill="white"/>
</svg>
