<svg width="703" height="424" viewBox="0 0 703 424" fill="none" xmlns="http://www.w3.org/2000/svg">
<path d="M40.665 11.08C41.705 11.08 42.55 11.375 43.2 11.965C43.85 12.565 44.175 13.335 44.175 14.275C44.175 15.185 43.825 16.03 43.125 16.81C42.705 17.24 41.965 17.815 40.905 18.535C39.755 19.295 39.065 19.97 38.835 20.56H44.19V22H36.81C36.81 20.93 37.165 19.995 37.875 19.195C38.245 18.755 39.05 18.105 40.29 17.245C41.02 16.725 41.53 16.315 41.82 16.015C42.31 15.465 42.555 14.88 42.555 14.26C42.555 13.66 42.39 13.21 42.06 12.91C41.73 12.61 41.245 12.46 40.605 12.46C39.925 12.46 39.415 12.69 39.075 13.15C38.725 13.59 38.535 14.245 38.505 15.115H36.87C36.89 13.915 37.235 12.955 37.905 12.235C38.585 11.465 39.505 11.08 40.665 11.08ZM50.6191 11.29V22H48.9841V13.255C48.3241 13.875 47.5041 14.325 46.5241 14.605V12.985C47.0041 12.865 47.5141 12.655 48.0541 12.355C48.5941 12.015 49.0341 11.66 49.3741 11.29H50.6191Z" fill="#D9D9D9"/>
<path d="M41.625 61.29V72H39.99V63.255C39.33 63.875 38.51 64.325 37.53 64.605V62.985C38.01 62.865 38.52 62.655 39.06 62.355C39.6 62.015 40.04 61.66 40.38 61.29H41.625ZM49.4941 61.08C50.6341 61.08 51.5391 61.38 52.2091 61.98C52.8091 62.52 53.1091 63.19 53.1091 63.99C53.1091 64.54 52.9891 65.005 52.7491 65.385C52.4791 65.785 52.0741 66.09 51.5341 66.3V66.345C52.0541 66.465 52.4941 66.765 52.8541 67.245C53.2741 67.755 53.4841 68.345 53.4841 69.015C53.4841 69.955 53.1391 70.725 52.4491 71.325C51.7391 71.915 50.7541 72.21 49.4941 72.21C48.2241 72.21 47.2391 71.915 46.5391 71.325C45.8491 70.725 45.5041 69.955 45.5041 69.015C45.5041 68.345 45.7141 67.755 46.1341 67.245C46.4941 66.765 46.9341 66.465 47.4541 66.345V66.3C46.9141 66.09 46.5091 65.785 46.2391 65.385C45.9991 65.005 45.8791 64.54 45.8791 63.99C45.8791 63.19 46.1791 62.52 46.7791 61.98C47.4391 61.38 48.3441 61.08 49.4941 61.08ZM49.4941 62.385C48.8241 62.385 48.2991 62.56 47.9191 62.91C47.5791 63.21 47.4091 63.59 47.4091 64.05C47.4091 64.57 47.5491 64.975 47.8291 65.265C48.1791 65.625 48.7341 65.805 49.4941 65.805C50.2441 65.805 50.7991 65.625 51.1591 65.265C51.4391 64.955 51.5791 64.55 51.5791 64.05C51.5791 63.6 51.4091 63.22 51.0691 62.91C50.6891 62.56 50.1641 62.385 49.4941 62.385ZM49.4941 67.02C48.6941 67.02 48.1041 67.21 47.7241 67.59C47.3241 67.95 47.1241 68.425 47.1241 69.015C47.1241 69.575 47.3291 70.025 47.7391 70.365C48.1491 70.715 48.7341 70.89 49.4941 70.89C50.2441 70.89 50.8391 70.715 51.2791 70.365C51.6691 70.015 51.8641 69.565 51.8641 69.015C51.8641 68.415 51.6691 67.945 51.2791 67.605C50.8591 67.215 50.2641 67.02 49.4941 67.02Z" fill="#D9D9D9"/>
<path d="M41.625 110.29V121H39.99V112.255C39.33 112.875 38.51 113.325 37.53 113.605V111.985C38.01 111.865 38.52 111.655 39.06 111.355C39.6 111.015 40.04 110.66 40.38 110.29H41.625ZM46.4191 110.29H52.8691V111.73H47.7391L47.4241 114.82H47.4691C47.7991 114.48 48.1791 114.235 48.6091 114.085C48.9891 113.925 49.4291 113.845 49.9291 113.845C50.9391 113.845 51.7591 114.175 52.3891 114.835C53.0291 115.505 53.3491 116.41 53.3491 117.55C53.3491 118.65 52.9391 119.555 52.1191 120.265C51.3591 120.895 50.4441 121.21 49.3741 121.21C48.4241 121.21 47.5991 120.945 46.8991 120.415C46.1391 119.845 45.7191 119.06 45.6391 118.06H47.2441C47.3041 118.67 47.5391 119.125 47.9491 119.425C48.3091 119.695 48.7891 119.83 49.3891 119.83C50.0391 119.83 50.5941 119.625 51.0541 119.215C51.5041 118.795 51.7291 118.245 51.7291 117.565C51.7291 116.815 51.5341 116.23 51.1441 115.81C50.7541 115.39 50.2041 115.18 49.4941 115.18C49.0041 115.18 48.5891 115.265 48.2491 115.435C47.8691 115.605 47.5741 115.89 47.3641 116.29H45.8341L46.4191 110.29Z" fill="#D9D9D9"/>
<path d="M41.625 159.29V170H39.99V161.255C39.33 161.875 38.51 162.325 37.53 162.605V160.985C38.01 160.865 38.52 160.655 39.06 160.355C39.6 160.015 40.04 159.66 40.38 159.29H41.625ZM49.6591 159.08C50.6991 159.08 51.5441 159.375 52.1941 159.965C52.8441 160.565 53.1691 161.335 53.1691 162.275C53.1691 163.185 52.8191 164.03 52.1191 164.81C51.6991 165.24 50.9591 165.815 49.8991 166.535C48.7491 167.295 48.0591 167.97 47.8291 168.56H53.1841V170H45.8041C45.8041 168.93 46.1591 167.995 46.8691 167.195C47.2391 166.755 48.0441 166.105 49.2841 165.245C50.0141 164.725 50.5241 164.315 50.8141 164.015C51.3041 163.465 51.5491 162.88 51.5491 162.26C51.5491 161.66 51.3841 161.21 51.0541 160.91C50.7241 160.61 50.2391 160.46 49.5991 160.46C48.9191 160.46 48.4091 160.69 48.0691 161.15C47.7191 161.59 47.5291 162.245 47.4991 163.115H45.8641C45.8841 161.915 46.2291 160.955 46.8991 160.235C47.5791 159.465 48.4991 159.08 49.6591 159.08Z" fill="#D9D9D9"/>
<path d="M49.38 208.08C50.69 208.08 51.685 208.555 52.365 209.505C53.035 210.435 53.37 211.715 53.37 213.345C53.37 215.075 53.015 216.485 52.305 217.575C51.565 218.665 50.585 219.21 49.365 219.21C47.285 219.21 46.11 218.24 45.84 216.3H47.43C47.64 217.34 48.29 217.86 49.38 217.86C50.1 217.86 50.69 217.495 51.15 216.765C51.58 216.055 51.795 215.19 51.795 214.17L51.78 213.975H51.72C51.43 214.425 51.05 214.775 50.58 215.025C50.12 215.245 49.625 215.355 49.095 215.355C48.035 215.355 47.19 215.015 46.56 214.335C45.95 213.685 45.645 212.83 45.645 211.77C45.645 210.69 46 209.81 46.71 209.13C47.42 208.43 48.31 208.08 49.38 208.08ZM49.44 209.43C48.76 209.43 48.23 209.65 47.85 210.09C47.45 210.52 47.25 211.08 47.25 211.77C47.25 212.46 47.45 213.005 47.85 213.405C48.23 213.825 48.755 214.035 49.425 214.035C50.095 214.035 50.625 213.825 51.015 213.405C51.405 212.985 51.6 212.425 51.6 211.725C51.6 211.035 51.4 210.48 51 210.06C50.6 209.64 50.08 209.43 49.44 209.43Z" fill="#D9D9D9"/>
<path d="M49.65 257.08C51.73 257.08 52.905 258.05 53.175 259.99H51.585C51.365 258.95 50.715 258.43 49.635 258.43C48.885 258.43 48.295 258.795 47.865 259.525C47.435 260.205 47.22 261.07 47.22 262.12C47.22 262.19 47.225 262.255 47.235 262.315H47.295C47.595 261.835 47.975 261.485 48.435 261.265C48.845 261.045 49.34 260.935 49.92 260.935C50.97 260.935 51.81 261.265 52.44 261.925C53.06 262.605 53.37 263.47 53.37 264.52C53.37 265.59 53.015 266.47 52.305 267.16C51.575 267.86 50.685 268.21 49.635 268.21C48.325 268.21 47.325 267.73 46.635 266.77C45.975 265.85 45.645 264.575 45.645 262.945C45.645 261.185 46 259.775 46.71 258.715C47.43 257.625 48.41 257.08 49.65 257.08ZM49.59 262.255C48.92 262.255 48.39 262.465 48 262.885C47.61 263.305 47.415 263.865 47.415 264.565C47.415 265.265 47.615 265.82 48.015 266.23C48.405 266.65 48.925 266.86 49.575 266.86C50.235 266.86 50.76 266.64 51.15 266.2C51.56 265.74 51.765 265.18 51.765 264.52C51.765 263.82 51.57 263.275 51.18 262.885C50.79 262.465 50.26 262.255 49.59 262.255Z" fill="#D9D9D9"/>
<path d="M49.605 306.08C50.685 306.08 51.55 306.34 52.2 306.86C52.84 307.39 53.16 308.11 53.16 309.02C53.16 310.2 52.57 310.985 51.39 311.375C52.01 311.565 52.49 311.86 52.83 312.26C53.19 312.66 53.37 313.18 53.37 313.82C53.37 314.81 53.03 315.62 52.35 316.25C51.62 316.89 50.685 317.21 49.545 317.21C48.455 317.21 47.575 316.93 46.905 316.37C46.155 315.74 45.735 314.825 45.645 313.625H47.295C47.325 314.355 47.56 314.91 48 315.29C48.39 315.65 48.9 315.83 49.53 315.83C50.21 315.83 50.765 315.63 51.195 315.23C51.565 314.86 51.75 314.415 51.75 313.895C51.75 313.265 51.555 312.8 51.165 312.5C50.805 312.2 50.27 312.05 49.56 312.05H48.78V310.82H49.545C50.195 310.82 50.69 310.675 51.03 310.385C51.37 310.095 51.54 309.68 51.54 309.14C51.54 308.61 51.385 308.2 51.075 307.91C50.755 307.62 50.27 307.475 49.62 307.475C48.97 307.475 48.465 307.64 48.105 307.97C47.735 308.31 47.52 308.805 47.46 309.455H45.855C45.945 308.395 46.34 307.565 47.04 306.965C47.69 306.375 48.545 306.08 49.605 306.08Z" fill="#D9D9D9"/>
<path d="M49.5 355.08C50.76 355.08 51.735 355.61 52.425 356.67C53.055 357.66 53.37 358.985 53.37 360.645C53.37 362.305 53.055 363.63 52.425 364.62C51.725 365.68 50.75 366.21 49.5 366.21C48.25 366.21 47.275 365.68 46.575 364.62C45.945 363.63 45.63 362.305 45.63 360.645C45.63 358.965 45.945 357.64 46.575 356.67C47.265 355.61 48.24 355.08 49.5 355.08ZM49.5 356.46C48.62 356.46 48 356.945 47.64 357.915C47.38 358.555 47.25 359.465 47.25 360.645C47.25 361.815 47.38 362.725 47.64 363.375C48 364.345 48.62 364.83 49.5 364.83C50.38 364.83 51 364.345 51.36 363.375C51.62 362.685 51.75 361.775 51.75 360.645C51.75 359.495 51.62 358.585 51.36 357.915C51 356.945 50.38 356.46 49.5 356.46Z" fill="#D9D9D9"/>
<path d="M65.5 164L99.5 157.5L132.5 147L171 144L209.5 141L240.5 132L258 130L281.5 123L295.5 121L316.5 119L329.5 115L370.5 113.5L387.5 108L402 105.5L423.5 100.5L484.5 88L511.5 81L551.5 68.5L580 57" stroke="#75BC8D" stroke-width="2"/>
<path d="M65.5 262L118.5 257L150 253.5L207 251.5L241.5 247.5L279 244L319 242L391 238.5L446.5 234L497 228L539 223.5L580 214" stroke="#FF487F" stroke-width="2"/>
<path d="M66 262L126 254.5L176.5 252L247.5 244.5L298 238L330.5 234.5H359L388.5 230L418 226L473 219.5L499.5 216L540.5 210L580 202.5" stroke="#53CAFC" stroke-width="2"/>
<rect x="66" y="1" width="513" height="375" stroke="#D9D9D9" stroke-width="2"/>
<path d="M60 16.5H65.5" stroke="#D9D9D9" stroke-width="2"/>
<path d="M60 66H65.5" stroke="#D9D9D9" stroke-width="2"/>
<path d="M60 115H65.5" stroke="#D9D9D9" stroke-width="2"/>
<path d="M60 164H65.5" stroke="#D9D9D9" stroke-width="2"/>
<path d="M60 213H65.5" stroke="#D9D9D9" stroke-width="2"/>
<path d="M60 262H65.5" stroke="#D9D9D9" stroke-width="2"/>
<path d="M60 311H65.5" stroke="#D9D9D9" stroke-width="2"/>
<path d="M60 360H65.5" stroke="#D9D9D9" stroke-width="2"/>
<path d="M65.5 376V381.5" stroke="#D9D9D9" stroke-width="2"/>
<path d="M101 376V381.5" stroke="#D9D9D9" stroke-width="2"/>
<path d="M136 376V381.5" stroke="#D9D9D9" stroke-width="2"/>
<path d="M172 376V381.5" stroke="#D9D9D9" stroke-width="2"/>
<path d="M207.5 376V381.5" stroke="#D9D9D9" stroke-width="2"/>
<path d="M242.5 376V381.5" stroke="#D9D9D9" stroke-width="2"/>
<path d="M278 376V381.5" stroke="#D9D9D9" stroke-width="2"/>
<path d="M313.5 376V381.5" stroke="#D9D9D9" stroke-width="2"/>
<path d="M348.5 376V381.5" stroke="#D9D9D9" stroke-width="2"/>
<path d="M385 376V381.5" stroke="#D9D9D9" stroke-width="2"/>
<path d="M420.5 376V381.5" stroke="#D9D9D9" stroke-width="2"/>
<path d="M455.5 376V381.5" stroke="#D9D9D9" stroke-width="2"/>
<path d="M491 376V381.5" stroke="#D9D9D9" stroke-width="2"/>
<path d="M526.5 376V381.5" stroke="#D9D9D9" stroke-width="2"/>
<path d="M561.5 376V381.5" stroke="#D9D9D9" stroke-width="2"/>
<path d="M614.5 162H639" stroke="#75BC8D" stroke-width="3"/>
<path d="M614 193H638.5" stroke="#FF487F" stroke-width="3"/>
<path d="M614 224H638.5" stroke="#53CAFC" stroke-width="3"/>
<path d="M652.05 157.29H656.94C657.99 157.29 658.81 157.54 659.4 158.04C659.97 158.52 660.255 159.17 660.255 159.99C660.255 160.59 660.105 161.1 659.805 161.52C659.495 161.92 659.08 162.215 658.56 162.405C659.27 162.545 659.805 162.83 660.165 163.26C660.525 163.69 660.705 164.27 660.705 165C660.705 166.07 660.335 166.86 659.595 167.37C658.965 167.79 658.08 168 656.94 168H652.05V157.29ZM653.685 158.64V161.835H656.505C657.245 161.835 657.785 161.705 658.125 161.445C658.455 161.175 658.62 160.755 658.62 160.185C658.62 159.645 658.455 159.255 658.125 159.015C657.805 158.765 657.275 158.64 656.535 158.64H653.685ZM653.685 163.17V166.65H656.715C657.385 166.65 657.925 166.54 658.335 166.32C658.825 166.03 659.07 165.58 659.07 164.97C659.07 164.34 658.88 163.88 658.5 163.59C658.13 163.31 657.55 163.17 656.76 163.17H653.685ZM665.768 160.035C666.948 160.035 667.888 160.425 668.588 161.205C669.288 161.985 669.638 162.96 669.638 164.13C669.638 165.31 669.293 166.275 668.603 167.025C667.873 167.815 666.928 168.21 665.768 168.21C664.608 168.21 663.663 167.815 662.933 167.025C662.243 166.275 661.898 165.31 661.898 164.13C661.898 162.94 662.248 161.965 662.948 161.205C663.658 160.425 664.598 160.035 665.768 160.035ZM665.768 161.34C665.028 161.34 664.458 161.63 664.058 162.21C663.708 162.69 663.533 163.33 663.533 164.13C663.533 164.92 663.708 165.555 664.058 166.035C664.468 166.615 665.038 166.905 665.768 166.905C666.488 166.905 667.063 166.615 667.493 166.035C667.853 165.525 668.033 164.89 668.033 164.13C668.033 163.34 667.853 162.7 667.493 162.21C667.073 161.63 666.498 161.34 665.768 161.34ZM673.503 157.74V160.245H675.273V161.565H673.503V166.065C673.503 166.265 673.548 166.42 673.638 166.53C673.738 166.63 673.878 166.68 674.058 166.68H675.078V168H673.803C673.133 168 672.648 167.825 672.348 167.475C672.058 167.155 671.913 166.685 671.913 166.065V161.565H670.473V160.245H671.913V158.4L673.503 157.74ZM676.553 157.08H678.143V161.34C678.433 160.88 678.793 160.545 679.223 160.335C679.593 160.135 680.033 160.035 680.543 160.035C681.473 160.035 682.178 160.31 682.658 160.86C683.108 161.38 683.333 162.155 683.333 163.185V168H681.743V163.455C681.743 162.785 681.603 162.265 681.323 161.895C681.023 161.525 680.568 161.34 679.958 161.34C679.418 161.34 678.983 161.555 678.653 161.985C678.313 162.415 678.143 162.97 678.143 163.65V168H676.553V157.08Z" fill="white"/>
<path d="M651.55 188.29H658.825V189.685H653.185V192.805H658.51V194.2H653.185V199H651.55V188.29ZM663.401 191.035C664.681 191.035 665.646 191.465 666.296 192.325C666.906 193.115 667.216 194.195 667.226 195.565H661.346C661.406 196.335 661.611 196.915 661.961 197.305C662.331 197.705 662.826 197.905 663.446 197.905C663.996 197.905 664.446 197.775 664.796 197.515C665.046 197.325 665.281 196.99 665.501 196.51H667.091C666.901 197.25 666.546 197.855 666.026 198.325C665.346 198.915 664.491 199.21 663.461 199.21C662.311 199.21 661.406 198.855 660.746 198.145C660.026 197.395 659.666 196.385 659.666 195.115C659.666 193.955 660.006 192.99 660.686 192.22C661.346 191.43 662.251 191.035 663.401 191.035ZM663.446 192.34C662.846 192.34 662.371 192.515 662.021 192.865C661.681 193.225 661.466 193.725 661.376 194.365H665.561C665.411 193.015 664.706 192.34 663.446 192.34ZM672.303 191.035C673.453 191.035 674.268 191.47 674.748 192.34C675.098 191.86 675.468 191.52 675.858 191.32C676.208 191.13 676.648 191.035 677.178 191.035C677.978 191.035 678.638 191.3 679.158 191.83C679.678 192.37 679.938 193.065 679.938 193.915V199H678.348V194.185C678.348 193.545 678.213 193.085 677.943 192.805C677.683 192.515 677.243 192.37 676.623 192.37C676.183 192.37 675.813 192.535 675.513 192.865C675.213 193.195 675.063 193.65 675.063 194.23V199H673.473V194.2C673.473 192.98 672.943 192.37 671.883 192.37C671.363 192.37 670.953 192.565 670.653 192.955C670.333 193.315 670.173 193.775 670.173 194.335V199H668.583V191.245H670.173V192.1C670.793 191.39 671.503 191.035 672.303 191.035ZM685.232 191.035C686.372 191.035 687.212 191.32 687.752 191.89C688.222 192.39 688.457 193.11 688.457 194.05V199H686.987V197.905C686.697 198.285 686.317 198.6 685.847 198.85C685.337 199.09 684.742 199.21 684.062 199.21C683.262 199.21 682.627 199.005 682.157 198.595C681.677 198.175 681.437 197.62 681.437 196.93C681.437 195.95 681.822 195.225 682.592 194.755C683.242 194.355 684.092 194.155 685.142 194.155L686.882 194.14V193.945C686.882 192.865 686.297 192.325 685.127 192.325C684.577 192.325 684.157 192.425 683.867 192.625C683.517 192.855 683.312 193.195 683.252 193.645H681.677C681.797 192.725 682.187 192.045 682.847 191.605C683.407 191.225 684.202 191.035 685.232 191.035ZM686.882 195.355L685.247 195.37C683.797 195.37 683.072 195.875 683.072 196.885C683.072 197.195 683.187 197.45 683.417 197.65C683.647 197.85 683.982 197.95 684.422 197.95C685.132 197.95 685.727 197.75 686.207 197.35C686.657 196.94 686.882 196.41 686.882 195.76V195.355ZM690.457 188.08H692.047V199H690.457V188.08ZM697.312 191.035C698.592 191.035 699.557 191.465 700.207 192.325C700.817 193.115 701.127 194.195 701.137 195.565H695.257C695.317 196.335 695.522 196.915 695.872 197.305C696.242 197.705 696.737 197.905 697.357 197.905C697.907 197.905 698.357 197.775 698.707 197.515C698.957 197.325 699.192 196.99 699.412 196.51H701.002C700.812 197.25 700.457 197.855 699.937 198.325C699.257 198.915 698.402 199.21 697.372 199.21C696.222 199.21 695.317 198.855 694.657 198.145C693.937 197.395 693.577 196.385 693.577 195.115C693.577 193.955 693.917 192.99 694.597 192.22C695.257 191.43 696.162 191.035 697.312 191.035ZM697.357 192.34C696.757 192.34 696.282 192.515 695.932 192.865C695.592 193.225 695.377 193.725 695.287 194.365H699.472C699.322 193.015 698.617 192.34 697.357 192.34Z" fill="white"/>
<path d="M651.55 219.29H653.485L657.22 227.87H657.265L660.985 219.29H662.92V230H661.285V222.35H661.225L657.94 230H656.53L653.245 222.35H653.185V230H651.55V219.29ZM668.372 222.035C669.512 222.035 670.352 222.32 670.892 222.89C671.362 223.39 671.597 224.11 671.597 225.05V230H670.127V228.905C669.837 229.285 669.457 229.6 668.987 229.85C668.477 230.09 667.882 230.21 667.202 230.21C666.402 230.21 665.767 230.005 665.297 229.595C664.817 229.175 664.577 228.62 664.577 227.93C664.577 226.95 664.962 226.225 665.732 225.755C666.382 225.355 667.232 225.155 668.282 225.155L670.022 225.14V224.945C670.022 223.865 669.437 223.325 668.267 223.325C667.717 223.325 667.297 223.425 667.007 223.625C666.657 223.855 666.452 224.195 666.392 224.645H664.817C664.937 223.725 665.327 223.045 665.987 222.605C666.547 222.225 667.342 222.035 668.372 222.035ZM670.022 226.355L668.387 226.37C666.937 226.37 666.212 226.875 666.212 227.885C666.212 228.195 666.327 228.45 666.557 228.65C666.787 228.85 667.122 228.95 667.562 228.95C668.272 228.95 668.867 228.75 669.347 228.35C669.797 227.94 670.022 227.41 670.022 226.76V226.355ZM673.597 219.08H675.187V230H673.597V219.08ZM680.452 222.035C681.732 222.035 682.697 222.465 683.347 223.325C683.957 224.115 684.267 225.195 684.277 226.565H678.397C678.457 227.335 678.662 227.915 679.012 228.305C679.382 228.705 679.877 228.905 680.497 228.905C681.047 228.905 681.497 228.775 681.847 228.515C682.097 228.325 682.332 227.99 682.552 227.51H684.142C683.952 228.25 683.597 228.855 683.077 229.325C682.397 229.915 681.542 230.21 680.512 230.21C679.362 230.21 678.457 229.855 677.797 229.145C677.077 228.395 676.717 227.385 676.717 226.115C676.717 224.955 677.057 223.99 677.737 223.22C678.397 222.43 679.302 222.035 680.452 222.035ZM680.497 223.34C679.897 223.34 679.422 223.515 679.072 223.865C678.732 224.225 678.517 224.725 678.427 225.365H682.612C682.462 224.015 681.757 223.34 680.497 223.34Z" fill="white"/>
<path d="M44.7181 407.219L52.2912 414.792L51.1351 415.948L44.9514 409.765C44.9231 410.67 44.6615 411.568 44.1665 412.459L43.021 411.313C43.2756 410.889 43.4877 410.38 43.6574 409.786C43.7988 409.163 43.8589 408.601 43.8377 408.099L44.7181 407.219ZM50.049 401.591C50.9754 400.665 52.0148 400.297 53.1674 400.488C54.2988 400.672 55.4407 401.34 56.5933 402.493C57.8166 403.716 58.5626 404.964 58.8313 406.237C59.0788 407.531 58.7712 408.609 57.9085 409.472C56.4378 410.942 54.921 411.087 53.3583 409.907L54.4826 408.782C55.3665 409.369 56.1938 409.277 56.9646 408.506C57.4737 407.997 57.6328 407.322 57.4418 406.481C57.2439 405.675 56.7842 404.911 56.063 404.19L55.9145 404.062L55.8721 404.105C55.9852 404.628 55.964 405.144 55.8084 405.653C55.6387 406.134 55.3665 406.562 54.9917 406.937C54.2422 407.686 53.4043 408.043 52.478 408.008C51.587 407.98 50.7668 407.591 50.0172 406.841C49.2536 406.078 48.8823 405.204 48.9035 404.221C48.9106 403.224 49.2924 402.348 50.049 401.591ZM51.0461 402.503C50.5652 402.984 50.346 403.514 50.3885 404.094C50.4097 404.681 50.6642 405.218 51.1521 405.706C51.64 406.194 52.1668 406.438 52.7325 406.438C53.2982 406.466 53.8179 406.244 54.2917 405.77C54.7654 405.296 54.9917 404.773 54.9705 404.2C54.9493 403.627 54.6912 403.094 54.1962 402.599C53.7083 402.111 53.1745 401.86 52.5946 401.846C52.0148 401.831 51.4986 402.051 51.0461 402.503ZM56.4089 395.231C57.3352 394.305 58.3746 393.937 59.5272 394.128C60.6586 394.312 61.8006 394.98 62.9531 396.133C64.1764 397.356 64.9224 398.604 65.1911 399.877C65.4386 401.171 65.131 402.249 64.2684 403.112C62.7976 404.583 61.2808 404.728 59.7181 403.547L60.8424 402.422C61.7263 403.009 62.5536 402.917 63.3244 402.147C63.8335 401.638 63.9926 400.962 63.8017 400.121C63.6037 399.315 63.1441 398.551 62.4228 397.83L62.2743 397.702L62.2319 397.745C62.345 398.268 62.3238 398.784 62.1683 399.293C61.9985 399.774 61.7263 400.202 61.3515 400.577C60.602 401.326 59.7641 401.683 58.8378 401.648C57.9468 401.62 57.1266 401.231 56.377 400.481C55.6134 399.718 55.2421 398.844 55.2634 397.862C55.2704 396.865 55.6523 395.988 56.4089 395.231ZM57.4059 396.143C56.9251 396.624 56.7059 397.154 56.7483 397.734C56.7695 398.321 57.024 398.859 57.512 399.347C57.9999 399.834 58.5267 400.078 59.0923 400.078C59.658 400.107 60.1777 399.884 60.6515 399.41C61.1253 398.936 61.3515 398.413 61.3303 397.84C61.3091 397.268 61.051 396.734 60.556 396.239C60.0681 395.751 59.5343 395.5 58.9544 395.486C58.3746 395.472 57.8584 395.691 57.4059 396.143ZM62.8535 388.786C63.7445 387.896 64.8087 387.581 66.0461 387.842C67.1916 388.097 68.3513 388.811 69.5251 389.985C70.6989 391.159 71.4131 392.318 71.6676 393.464C71.9222 394.708 71.6075 395.773 70.7236 396.657C69.8398 397.54 68.7756 397.855 67.531 397.601C66.3855 397.346 65.2259 396.632 64.0521 395.458C62.8641 394.27 62.15 393.11 61.9095 391.979C61.6479 390.742 61.9626 389.677 62.8535 388.786ZM63.8293 389.762C63.2071 390.385 63.1116 391.166 63.543 392.106C63.8117 392.743 64.3632 393.478 65.1976 394.313C66.0249 395.14 66.7603 395.691 67.4038 395.967C68.3442 396.398 69.1256 396.303 69.7478 395.681C70.3701 395.059 70.4655 394.277 70.0342 393.337C69.7301 392.665 69.1786 391.93 68.3796 391.131C67.5664 390.317 66.831 389.766 66.1734 389.476C65.233 389.045 64.4516 389.14 63.8293 389.762Z" fill="#D9D9D9"/>
<path d="M80.7181 406.219L88.2912 413.792L87.1351 414.948L80.9514 408.765C80.9231 409.67 80.6615 410.568 80.1665 411.459L79.021 410.313C79.2756 409.889 79.4877 409.38 79.6574 408.786C79.7988 408.163 79.8589 407.601 79.8377 407.099L80.7181 406.219ZM86.049 400.591C86.9754 399.665 88.0148 399.297 89.1674 399.488C90.2988 399.672 91.4407 400.34 92.5933 401.493C93.8166 402.716 94.5626 403.964 94.8313 405.237C95.0788 406.531 94.7712 407.609 93.9085 408.472C92.4378 409.942 90.921 410.087 89.3583 408.907L90.4826 407.782C91.3665 408.369 92.1938 408.277 92.9646 407.506C93.4737 406.997 93.6328 406.322 93.4418 405.481C93.2439 404.675 92.7842 403.911 92.063 403.19L91.9145 403.062L91.8721 403.105C91.9852 403.628 91.964 404.144 91.8084 404.653C91.6387 405.134 91.3665 405.562 90.9917 405.937C90.2422 406.686 89.4043 407.043 88.478 407.008C87.587 406.98 86.7668 406.591 86.0172 405.841C85.2536 405.078 84.8823 404.204 84.9035 403.221C84.9106 402.224 85.2924 401.348 86.049 400.591ZM87.0461 401.503C86.5652 401.984 86.346 402.514 86.3885 403.094C86.4097 403.681 86.6642 404.218 87.1521 404.706C87.64 405.194 88.1668 405.438 88.7325 405.438C89.2982 405.466 89.8179 405.244 90.2917 404.77C90.7654 404.296 90.9917 403.773 90.9705 403.2C90.9493 402.627 90.6912 402.094 90.1962 401.599C89.7083 401.111 89.1745 400.86 88.5946 400.846C88.0148 400.831 87.4986 401.051 87.0461 401.503ZM92.4089 394.231C93.3352 393.305 94.3746 392.937 95.5272 393.128C96.6586 393.312 97.8006 393.98 98.9531 395.133C100.176 396.356 100.922 397.604 101.191 398.877C101.439 400.171 101.131 401.249 100.268 402.112C98.7976 403.583 97.2808 403.728 95.7181 402.547L96.8424 401.422C97.7263 402.009 98.5536 401.917 99.3244 401.147C99.8335 400.638 99.9926 399.962 99.8017 399.121C99.6037 398.315 99.1441 397.551 98.4228 396.83L98.2743 396.702L98.2319 396.745C98.345 397.268 98.3238 397.784 98.1683 398.293C97.9985 398.774 97.7263 399.202 97.3515 399.577C96.602 400.326 95.7641 400.683 94.8378 400.648C93.9468 400.62 93.1266 400.231 92.377 399.481C91.6134 398.718 91.2421 397.844 91.2634 396.862C91.2704 395.865 91.6523 394.988 92.4089 394.231ZM93.4059 395.143C92.9251 395.624 92.7059 396.154 92.7483 396.734C92.7695 397.321 93.024 397.859 93.512 398.347C93.9999 398.834 94.5267 399.078 95.0923 399.078C95.658 399.107 96.1777 398.884 96.6515 398.41C97.1253 397.936 97.3515 397.413 97.3303 396.84C97.3091 396.268 97.051 395.734 96.556 395.239C96.0681 394.751 95.5343 394.5 94.9544 394.486C94.3746 394.472 93.8584 394.691 93.4059 395.143ZM98.9702 387.67C99.7056 386.934 100.512 386.546 101.389 386.503C102.272 386.468 103.047 386.782 103.711 387.447C104.355 388.091 104.705 388.936 104.761 389.982C104.768 390.583 104.652 391.513 104.411 392.772C104.136 394.122 104.125 395.087 104.38 395.667L108.166 391.881L109.184 392.899L103.966 398.117C103.209 397.361 102.799 396.449 102.736 395.381C102.686 394.808 102.796 393.779 103.064 392.294C103.213 391.41 103.284 390.76 103.276 390.343C103.234 389.607 102.994 389.02 102.555 388.582C102.131 388.158 101.696 387.956 101.251 387.977C100.805 387.999 100.356 388.235 99.9036 388.688C99.4228 389.169 99.2248 389.692 99.3096 390.258C99.3733 390.816 99.7021 391.414 100.296 392.05L99.1399 393.206C98.3055 392.344 97.8707 391.421 97.8353 390.438C97.7717 389.413 98.15 388.49 98.9702 387.67Z" fill="#D9D9D9"/>
<path d="M116.718 406.219L124.291 413.792L123.135 414.948L116.951 408.765C116.923 409.67 116.662 410.568 116.167 411.459L115.021 410.313C115.276 409.889 115.488 409.38 115.657 408.786C115.799 408.163 115.859 407.601 115.838 407.099L116.718 406.219ZM122.049 400.591C122.975 399.665 124.015 399.297 125.167 399.488C126.299 399.672 127.441 400.34 128.593 401.493C129.817 402.716 130.563 403.964 130.831 405.237C131.079 406.531 130.771 407.609 129.909 408.472C128.438 409.942 126.921 410.087 125.358 408.907L126.483 407.782C127.366 408.369 128.194 408.277 128.965 407.506C129.474 406.997 129.633 406.322 129.442 405.481C129.244 404.675 128.784 403.911 128.063 403.19L127.914 403.062L127.872 403.105C127.985 403.628 127.964 404.144 127.808 404.653C127.639 405.134 127.366 405.562 126.992 405.937C126.242 406.686 125.404 407.043 124.478 407.008C123.587 406.98 122.767 406.591 122.017 405.841C121.254 405.078 120.882 404.204 120.904 403.221C120.911 402.224 121.292 401.348 122.049 400.591ZM123.046 401.503C122.565 401.984 122.346 402.514 122.388 403.094C122.41 403.681 122.664 404.218 123.152 404.706C123.64 405.194 124.167 405.438 124.733 405.438C125.298 405.466 125.818 405.244 126.292 404.77C126.765 404.296 126.992 403.773 126.971 403.2C126.949 402.627 126.691 402.094 126.196 401.599C125.708 401.111 125.174 400.86 124.595 400.846C124.015 400.831 123.499 401.051 123.046 401.503ZM128.409 394.231C129.335 393.305 130.375 392.937 131.527 393.128C132.659 393.312 133.801 393.98 134.953 395.133C136.176 396.356 136.922 397.604 137.191 398.877C137.439 400.171 137.131 401.249 136.268 402.112C134.798 403.583 133.281 403.728 131.718 402.547L132.842 401.422C133.726 402.009 134.554 401.917 135.324 401.147C135.833 400.638 135.993 399.962 135.802 399.121C135.604 398.315 135.144 397.551 134.423 396.83L134.274 396.702L134.232 396.745C134.345 397.268 134.324 397.784 134.168 398.293C133.999 398.774 133.726 399.202 133.352 399.577C132.602 400.326 131.764 400.683 130.838 400.648C129.947 400.62 129.127 400.231 128.377 399.481C127.613 398.718 127.242 397.844 127.263 396.862C127.27 395.865 127.652 394.988 128.409 394.231ZM129.406 395.143C128.925 395.624 128.706 396.154 128.748 396.734C128.769 397.321 129.024 397.859 129.512 398.347C130 398.834 130.527 399.078 131.092 399.078C131.658 399.107 132.178 398.884 132.652 398.41C133.125 397.936 133.352 397.413 133.33 396.84C133.309 396.268 133.051 395.734 132.556 395.239C132.068 394.751 131.534 394.5 130.954 394.486C130.375 394.472 129.858 394.691 129.406 395.143ZM135.766 387.171L136.826 386.111L141.833 391.117L142.978 389.971L143.901 390.894L142.755 392.04L144.399 393.684L143.296 394.787L141.652 393.143L137.961 396.834L136.869 395.741L135.766 387.171ZM137.155 388.709L137.982 394.967L140.73 392.22L137.187 388.677L137.155 388.709Z" fill="#D9D9D9"/>
<path d="M151.718 407.219L159.291 414.792L158.135 415.948L151.951 409.765C151.923 410.67 151.662 411.568 151.167 412.459L150.021 411.313C150.276 410.889 150.488 410.38 150.657 409.786C150.799 409.163 150.859 408.601 150.838 408.099L151.718 407.219ZM157.049 401.591C157.975 400.665 159.015 400.297 160.167 400.488C161.299 400.672 162.441 401.34 163.593 402.493C164.817 403.716 165.563 404.964 165.831 406.237C166.079 407.531 165.771 408.609 164.909 409.472C163.438 410.942 161.921 411.087 160.358 409.907L161.483 408.782C162.366 409.369 163.194 409.277 163.965 408.506C164.474 407.997 164.633 407.322 164.442 406.481C164.244 405.675 163.784 404.911 163.063 404.19L162.914 404.062L162.872 404.105C162.985 404.628 162.964 405.144 162.808 405.653C162.639 406.134 162.366 406.562 161.992 406.937C161.242 407.686 160.404 408.043 159.478 408.008C158.587 407.98 157.767 407.591 157.017 406.841C156.254 406.078 155.882 405.204 155.904 404.221C155.911 403.224 156.292 402.348 157.049 401.591ZM158.046 402.503C157.565 402.984 157.346 403.514 157.388 404.094C157.41 404.681 157.664 405.218 158.152 405.706C158.64 406.194 159.167 406.438 159.733 406.438C160.298 406.466 160.818 406.244 161.292 405.77C161.765 405.296 161.992 404.773 161.971 404.2C161.949 403.627 161.691 403.094 161.196 402.599C160.708 402.111 160.174 401.86 159.595 401.846C159.015 401.831 158.499 402.051 158.046 402.503ZM163.409 395.231C164.335 394.305 165.375 393.937 166.527 394.128C167.659 394.312 168.801 394.98 169.953 396.133C171.176 397.356 171.922 398.604 172.191 399.877C172.439 401.171 172.131 402.249 171.268 403.112C169.798 404.583 168.281 404.728 166.718 403.547L167.842 402.422C168.726 403.009 169.554 402.917 170.324 402.147C170.833 401.638 170.993 400.962 170.802 400.121C170.604 399.315 170.144 398.551 169.423 397.83L169.274 397.702L169.232 397.745C169.345 398.268 169.324 398.784 169.168 399.293C168.999 399.774 168.726 400.202 168.352 400.577C167.602 401.326 166.764 401.683 165.838 401.648C164.947 401.62 164.127 401.231 163.377 400.481C162.613 399.718 162.242 398.844 162.263 397.862C162.27 396.865 162.652 395.988 163.409 395.231ZM164.406 396.143C163.925 396.624 163.706 397.154 163.748 397.734C163.769 398.321 164.024 398.859 164.512 399.347C165 399.834 165.527 400.078 166.092 400.078C166.658 400.107 167.178 399.884 167.652 399.41C168.125 398.936 168.352 398.413 168.33 397.84C168.309 397.268 168.051 396.734 167.556 396.239C167.068 395.751 166.534 395.5 165.954 395.486C165.375 395.472 164.858 395.691 164.406 396.143ZM169.96 388.68C171.43 387.21 172.947 387.065 174.51 388.246L173.386 389.37C172.495 388.79 171.667 388.882 170.904 389.646C170.373 390.176 170.214 390.851 170.426 391.671C170.603 392.456 171.063 393.22 171.805 393.963C171.855 394.012 171.904 394.054 171.954 394.09L171.996 394.047C171.869 393.496 171.89 392.98 172.06 392.499C172.194 392.053 172.466 391.626 172.876 391.215C173.619 390.473 174.446 390.112 175.358 390.134C176.278 390.176 177.108 390.568 177.851 391.311C178.608 392.067 178.979 392.941 178.965 393.931C178.943 394.942 178.562 395.819 177.819 396.561C176.893 397.487 175.846 397.855 174.68 397.664C173.562 397.48 172.427 396.812 171.275 395.66C170.03 394.415 169.284 393.167 169.037 391.915C168.775 390.636 169.083 389.557 169.96 388.68ZM173.576 392.382C173.103 392.856 172.876 393.379 172.898 393.952C172.919 394.525 173.177 395.059 173.672 395.553C174.167 396.048 174.701 396.299 175.274 396.307C175.846 396.328 176.362 396.109 176.822 395.649C177.289 395.182 177.504 394.655 177.469 394.069C177.434 393.453 177.183 392.912 176.716 392.446C176.221 391.951 175.698 391.703 175.146 391.703C174.573 391.682 174.05 391.908 173.576 392.382Z" fill="#D9D9D9"/>
<path d="M187.718 406.219L195.291 413.792L194.135 414.948L187.951 408.765C187.923 409.67 187.662 410.568 187.167 411.459L186.021 410.313C186.276 409.889 186.488 409.38 186.657 408.786C186.799 408.163 186.859 407.601 186.838 407.099L187.718 406.219ZM193.049 400.591C193.975 399.665 195.015 399.297 196.167 399.488C197.299 399.672 198.441 400.34 199.593 401.493C200.817 402.716 201.563 403.964 201.831 405.237C202.079 406.531 201.771 407.609 200.909 408.472C199.438 409.942 197.921 410.087 196.358 408.907L197.483 407.782C198.366 408.369 199.194 408.277 199.965 407.506C200.474 406.997 200.633 406.322 200.442 405.481C200.244 404.675 199.784 403.911 199.063 403.19L198.914 403.062L198.872 403.105C198.985 403.628 198.964 404.144 198.808 404.653C198.639 405.134 198.366 405.562 197.992 405.937C197.242 406.686 196.404 407.043 195.478 407.008C194.587 406.98 193.767 406.591 193.017 405.841C192.254 405.078 191.882 404.204 191.904 403.221C191.911 402.224 192.292 401.348 193.049 400.591ZM194.046 401.503C193.565 401.984 193.346 402.514 193.388 403.094C193.41 403.681 193.664 404.218 194.152 404.706C194.64 405.194 195.167 405.438 195.733 405.438C196.298 405.466 196.818 405.244 197.292 404.77C197.765 404.296 197.992 403.773 197.971 403.2C197.949 402.627 197.691 402.094 197.196 401.599C196.708 401.111 196.174 400.86 195.595 400.846C195.015 400.831 194.499 401.051 194.046 401.503ZM199.409 394.231C200.335 393.305 201.375 392.937 202.527 393.128C203.659 393.312 204.801 393.98 205.953 395.133C207.176 396.356 207.922 397.604 208.191 398.877C208.439 400.171 208.131 401.249 207.268 402.112C205.798 403.583 204.281 403.728 202.718 402.547L203.842 401.422C204.726 402.009 205.554 401.917 206.324 401.147C206.833 400.638 206.993 399.962 206.802 399.121C206.604 398.315 206.144 397.551 205.423 396.83L205.274 396.702L205.232 396.745C205.345 397.268 205.324 397.784 205.168 398.293C204.999 398.774 204.726 399.202 204.352 399.577C203.602 400.326 202.764 400.683 201.838 400.648C200.947 400.62 200.127 400.231 199.377 399.481C198.613 398.718 198.242 397.844 198.263 396.862C198.27 395.865 198.652 394.988 199.409 394.231ZM200.406 395.143C199.925 395.624 199.706 396.154 199.748 396.734C199.769 397.321 200.024 397.859 200.512 398.347C201 398.834 201.527 399.078 202.092 399.078C202.658 399.107 203.178 398.884 203.652 398.41C204.125 397.936 204.352 397.413 204.33 396.84C204.309 396.268 204.051 395.734 203.556 395.239C203.068 394.751 202.534 394.5 201.954 394.486C201.375 394.472 200.858 394.691 200.406 395.143ZM205.854 387.786C206.66 386.98 207.512 386.553 208.41 386.503C209.216 386.461 209.902 386.722 210.467 387.288C210.856 387.677 211.1 388.091 211.199 388.529C211.291 389.003 211.22 389.505 210.987 390.035L211.019 390.067C211.471 389.784 211.995 389.685 212.589 389.77C213.246 389.834 213.812 390.102 214.286 390.576C214.95 391.241 215.251 392.029 215.187 392.941C215.102 393.861 214.615 394.766 213.724 395.657C212.826 396.555 211.921 397.043 211.008 397.12C210.096 397.184 209.308 396.883 208.643 396.219C208.169 395.745 207.901 395.179 207.837 394.522C207.752 393.928 207.851 393.404 208.134 392.952L208.102 392.92C207.572 393.153 207.07 393.224 206.596 393.132C206.158 393.033 205.744 392.789 205.355 392.4C204.789 391.835 204.528 391.149 204.57 390.343C204.613 389.452 205.04 388.6 205.854 387.786ZM206.776 388.709C206.303 389.183 206.055 389.678 206.034 390.194C206.006 390.647 206.154 391.036 206.479 391.361C206.847 391.729 207.232 391.916 207.635 391.923C208.137 391.93 208.657 391.665 209.195 391.128C209.725 390.597 209.99 390.078 209.99 389.568C209.969 389.151 209.782 388.766 209.428 388.412C209.11 388.094 208.721 387.946 208.261 387.967C207.745 387.988 207.25 388.235 206.776 388.709ZM210.054 391.987C209.488 392.552 209.205 393.104 209.205 393.641C209.177 394.179 209.371 394.656 209.789 395.073C210.185 395.469 210.648 395.642 211.178 395.593C211.715 395.551 212.253 395.261 212.79 394.723C213.321 394.193 213.618 393.648 213.681 393.09C213.709 392.567 213.529 392.11 213.14 391.722C212.716 391.297 212.246 391.103 211.73 391.138C211.157 391.159 210.598 391.442 210.054 391.987Z" fill="#D9D9D9"/>
<path d="M222.891 406.749C223.626 406.014 224.432 405.625 225.309 405.583C226.193 405.547 226.967 405.862 227.632 406.527C228.275 407.17 228.625 408.015 228.682 409.061C228.689 409.663 228.572 410.592 228.332 411.851C228.056 413.202 228.046 414.167 228.3 414.747L232.087 410.96L233.105 411.978L227.886 417.197C227.13 416.44 226.72 415.528 226.656 414.46C226.607 413.888 226.716 412.859 226.985 411.374C227.133 410.49 227.204 409.839 227.197 409.422C227.155 408.687 226.914 408.1 226.476 407.661C226.052 407.237 225.617 407.036 225.171 407.057C224.726 407.078 224.277 407.315 223.824 407.767C223.343 408.248 223.145 408.772 223.23 409.337C223.294 409.896 223.623 410.493 224.217 411.13L223.06 412.286C222.226 411.423 221.791 410.5 221.756 409.518C221.692 408.492 222.071 407.57 222.891 406.749ZM229.134 400.506C230.025 399.615 231.089 399.3 232.326 399.562C233.472 399.817 234.632 400.531 235.805 401.705C236.979 402.878 237.693 404.038 237.948 405.184C238.203 406.428 237.888 407.492 237.004 408.376C236.12 409.26 235.056 409.575 233.811 409.32C232.666 409.066 231.506 408.351 230.332 407.178C229.145 405.99 228.43 404.83 228.19 403.699C227.928 402.461 228.243 401.397 229.134 400.506ZM230.11 401.482C229.487 402.104 229.392 402.886 229.823 403.826C230.092 404.462 230.644 405.198 231.478 406.032C232.305 406.859 233.041 407.411 233.684 407.687C234.625 408.118 235.406 408.023 236.028 407.4C236.65 406.778 236.746 405.997 236.315 405.056C236.011 404.385 235.459 403.649 234.66 402.85C233.847 402.037 233.111 401.485 232.454 401.196C231.513 400.764 230.732 400.86 230.11 401.482ZM235.494 394.146C236.385 393.255 237.449 392.941 238.686 393.202C239.832 393.457 240.991 394.171 242.165 395.345C243.339 396.519 244.053 397.678 244.308 398.824C244.562 400.068 244.248 401.133 243.364 402.016C242.48 402.9 241.416 403.215 240.171 402.96C239.026 402.706 237.866 401.992 236.692 400.818C235.504 399.63 234.79 398.47 234.55 397.339C234.288 396.101 234.603 395.037 235.494 394.146ZM236.47 395.122C235.847 395.744 235.752 396.526 236.183 397.466C236.452 398.103 237.003 398.838 237.838 399.672C238.665 400.5 239.4 401.051 240.044 401.327C240.984 401.758 241.766 401.663 242.388 401.041C243.01 400.418 243.106 399.637 242.674 398.697C242.37 398.025 241.819 397.289 241.02 396.49C240.207 395.677 239.471 395.126 238.814 394.836C237.873 394.404 237.092 394.5 236.47 395.122ZM241.854 387.786C242.744 386.896 243.809 386.581 245.046 386.842C246.192 387.097 247.351 387.811 248.525 388.985C249.699 390.159 250.413 391.318 250.668 392.464C250.922 393.708 250.608 394.773 249.724 395.657C248.84 396.54 247.776 396.855 246.531 396.601C245.386 396.346 244.226 395.632 243.052 394.458C241.864 393.27 241.15 392.11 240.91 390.979C240.648 389.742 240.963 388.677 241.854 387.786ZM242.829 388.762C242.207 389.385 242.112 390.166 242.543 391.106C242.812 391.743 243.363 392.478 244.198 393.313C245.025 394.14 245.76 394.691 246.404 394.967C247.344 395.398 248.126 395.303 248.748 394.681C249.37 394.059 249.466 393.277 249.034 392.337C248.73 391.665 248.179 390.93 247.38 390.131C246.566 389.317 245.831 388.766 245.173 388.476C244.233 388.045 243.452 388.14 242.829 388.762Z" fill="#D9D9D9"/>
<path d="M256.891 406.749C257.626 406.014 258.432 405.625 259.309 405.583C260.193 405.547 260.967 405.862 261.632 406.527C262.275 407.17 262.625 408.015 262.682 409.061C262.689 409.663 262.572 410.592 262.332 411.851C262.056 413.202 262.046 414.167 262.3 414.747L266.087 410.96L267.105 411.978L261.886 417.197C261.13 416.44 260.72 415.528 260.656 414.46C260.607 413.888 260.716 412.859 260.985 411.374C261.133 410.49 261.204 409.839 261.197 409.422C261.155 408.687 260.914 408.1 260.476 407.661C260.052 407.237 259.617 407.036 259.171 407.057C258.726 407.078 258.277 407.315 257.824 407.767C257.343 408.248 257.145 408.772 257.23 409.337C257.294 409.896 257.623 410.493 258.217 411.13L257.06 412.286C256.226 411.423 255.791 410.5 255.756 409.518C255.692 408.492 256.071 407.57 256.891 406.749ZM263.134 400.506C264.025 399.615 265.089 399.3 266.326 399.562C267.472 399.817 268.632 400.531 269.805 401.705C270.979 402.878 271.693 404.038 271.948 405.184C272.203 406.428 271.888 407.492 271.004 408.376C270.12 409.26 269.056 409.575 267.811 409.32C266.666 409.066 265.506 408.351 264.332 407.178C263.145 405.99 262.43 404.83 262.19 403.699C261.928 402.461 262.243 401.397 263.134 400.506ZM264.11 401.482C263.487 402.104 263.392 402.886 263.823 403.826C264.092 404.462 264.644 405.198 265.478 406.032C266.305 406.859 267.041 407.411 267.684 407.687C268.625 408.118 269.406 408.023 270.028 407.4C270.65 406.778 270.746 405.997 270.315 405.056C270.011 404.385 269.459 403.649 268.66 402.85C267.847 402.037 267.111 401.485 266.454 401.196C265.513 400.764 264.732 400.86 264.11 401.482ZM269.494 394.146C270.385 393.255 271.449 392.941 272.686 393.202C273.832 393.457 274.991 394.171 276.165 395.345C277.339 396.519 278.053 397.678 278.308 398.824C278.562 400.068 278.248 401.133 277.364 402.016C276.48 402.9 275.416 403.215 274.171 402.96C273.026 402.706 271.866 401.992 270.692 400.818C269.504 399.63 268.79 398.47 268.55 397.339C268.288 396.101 268.603 395.037 269.494 394.146ZM270.47 395.122C269.847 395.744 269.752 396.526 270.183 397.466C270.452 398.103 271.003 398.838 271.838 399.672C272.665 400.5 273.4 401.051 274.044 401.327C274.984 401.758 275.766 401.663 276.388 401.041C277.01 400.418 277.106 399.637 276.674 398.697C276.37 398.025 275.819 397.289 275.02 396.49C274.207 395.677 273.471 395.126 272.814 394.836C271.873 394.404 271.092 394.5 270.47 395.122ZM275.97 387.67C276.706 386.934 277.512 386.546 278.389 386.503C279.272 386.468 280.047 386.782 280.711 387.447C281.355 388.091 281.705 388.936 281.761 389.982C281.768 390.583 281.652 391.513 281.411 392.772C281.136 394.122 281.125 395.087 281.38 395.667L285.166 391.881L286.184 392.899L280.966 398.117C280.209 397.361 279.799 396.449 279.736 395.381C279.686 394.808 279.796 393.779 280.064 392.294C280.213 391.41 280.284 390.76 280.276 390.343C280.234 389.607 279.994 389.02 279.555 388.582C279.131 388.158 278.696 387.956 278.251 387.977C277.805 387.999 277.356 388.235 276.904 388.688C276.423 389.169 276.225 389.692 276.31 390.258C276.373 390.816 276.702 391.414 277.296 392.05L276.14 393.206C275.306 392.344 274.871 391.421 274.835 390.438C274.772 389.413 275.15 388.49 275.97 387.67Z" fill="#D9D9D9"/>
<path d="M292.891 405.749C293.626 405.014 294.432 404.625 295.309 404.583C296.193 404.547 296.967 404.862 297.632 405.527C298.275 406.17 298.625 407.015 298.682 408.061C298.689 408.663 298.572 409.592 298.332 410.851C298.056 412.202 298.046 413.167 298.3 413.747L302.087 409.96L303.105 410.978L297.886 416.197C297.13 415.44 296.72 414.528 296.656 413.46C296.607 412.888 296.716 411.859 296.985 410.374C297.133 409.49 297.204 408.839 297.197 408.422C297.155 407.687 296.914 407.1 296.476 406.661C296.052 406.237 295.617 406.036 295.171 406.057C294.726 406.078 294.277 406.315 293.824 406.767C293.343 407.248 293.145 407.772 293.23 408.337C293.294 408.896 293.623 409.493 294.217 410.13L293.06 411.286C292.226 410.423 291.791 409.5 291.756 408.518C291.692 407.492 292.071 406.57 292.891 405.749ZM299.134 399.506C300.025 398.615 301.089 398.3 302.326 398.562C303.472 398.817 304.632 399.531 305.805 400.705C306.979 401.878 307.693 403.038 307.948 404.184C308.203 405.428 307.888 406.492 307.004 407.376C306.12 408.26 305.056 408.575 303.811 408.32C302.666 408.066 301.506 407.351 300.332 406.178C299.145 404.99 298.43 403.83 298.19 402.699C297.928 401.461 298.243 400.397 299.134 399.506ZM300.11 400.482C299.487 401.104 299.392 401.886 299.823 402.826C300.092 403.462 300.644 404.198 301.478 405.032C302.305 405.859 303.041 406.411 303.684 406.687C304.625 407.118 305.406 407.023 306.028 406.4C306.65 405.778 306.746 404.997 306.315 404.056C306.011 403.385 305.459 402.649 304.66 401.85C303.847 401.037 303.111 400.485 302.454 400.196C301.513 399.764 300.732 399.86 300.11 400.482ZM305.494 393.146C306.385 392.255 307.449 391.941 308.686 392.202C309.832 392.457 310.991 393.171 312.165 394.345C313.339 395.519 314.053 396.678 314.308 397.824C314.562 399.068 314.248 400.133 313.364 401.016C312.48 401.9 311.416 402.215 310.171 401.96C309.026 401.706 307.866 400.992 306.692 399.818C305.504 398.63 304.79 397.47 304.55 396.339C304.288 395.101 304.603 394.037 305.494 393.146ZM306.47 394.122C305.847 394.744 305.752 395.526 306.183 396.466C306.452 397.103 307.003 397.838 307.838 398.672C308.665 399.5 309.4 400.051 310.044 400.327C310.984 400.758 311.766 400.663 312.388 400.041C313.01 399.418 313.106 398.637 312.674 397.697C312.37 397.025 311.819 396.289 311.02 395.49C310.207 394.677 309.471 394.126 308.814 393.836C307.873 393.404 307.092 393.5 306.47 394.122ZM312.766 386.171L313.826 385.111L318.833 390.117L319.978 388.971L320.901 389.894L319.755 391.04L321.399 392.684L320.296 393.787L318.652 392.143L314.961 395.834L313.869 394.741L312.766 386.171ZM314.155 387.709L314.982 393.967L317.73 391.22L314.187 387.677L314.155 387.709Z" fill="#D9D9D9"/>
<path d="M328.891 405.749C329.626 405.014 330.432 404.625 331.309 404.583C332.193 404.547 332.967 404.862 333.632 405.527C334.275 406.17 334.625 407.015 334.682 408.061C334.689 408.663 334.572 409.592 334.332 410.851C334.056 412.202 334.046 413.167 334.3 413.747L338.087 409.96L339.105 410.978L333.886 416.197C333.13 415.44 332.72 414.528 332.656 413.46C332.607 412.888 332.716 411.859 332.985 410.374C333.133 409.49 333.204 408.839 333.197 408.422C333.155 407.687 332.914 407.1 332.476 406.661C332.052 406.237 331.617 406.036 331.171 406.057C330.726 406.078 330.277 406.315 329.824 406.767C329.343 407.248 329.145 407.772 329.23 408.337C329.294 408.896 329.623 409.493 330.217 410.13L329.06 411.286C328.226 410.423 327.791 409.5 327.756 408.518C327.692 407.492 328.071 406.57 328.891 405.749ZM335.134 399.506C336.025 398.615 337.089 398.3 338.326 398.562C339.472 398.817 340.632 399.531 341.805 400.705C342.979 401.878 343.693 403.038 343.948 404.184C344.203 405.428 343.888 406.492 343.004 407.376C342.12 408.26 341.056 408.575 339.811 408.32C338.666 408.066 337.506 407.351 336.332 406.178C335.145 404.99 334.43 403.83 334.19 402.699C333.928 401.461 334.243 400.397 335.134 399.506ZM336.11 400.482C335.487 401.104 335.392 401.886 335.823 402.826C336.092 403.462 336.644 404.198 337.478 405.032C338.305 405.859 339.041 406.411 339.684 406.687C340.625 407.118 341.406 407.023 342.028 406.4C342.65 405.778 342.746 404.997 342.315 404.056C342.011 403.385 341.459 402.649 340.66 401.85C339.847 401.037 339.111 400.485 338.454 400.196C337.513 399.764 336.732 399.86 336.11 400.482ZM341.494 393.146C342.385 392.255 343.449 391.941 344.686 392.202C345.832 392.457 346.991 393.171 348.165 394.345C349.339 395.519 350.053 396.678 350.308 397.824C350.562 399.068 350.248 400.133 349.364 401.016C348.48 401.9 347.416 402.215 346.171 401.96C345.026 401.706 343.866 400.992 342.692 399.818C341.504 398.63 340.79 397.47 340.55 396.339C340.288 395.101 340.603 394.037 341.494 393.146ZM342.47 394.122C341.847 394.744 341.752 395.526 342.183 396.466C342.452 397.103 343.003 397.838 343.838 398.672C344.665 399.5 345.4 400.051 346.044 400.327C346.984 400.758 347.766 400.663 348.388 400.041C349.01 399.418 349.106 398.637 348.674 397.697C348.37 397.025 347.819 396.289 347.02 395.49C346.207 394.677 345.471 394.126 344.814 393.836C343.873 393.404 343.092 393.5 342.47 394.122ZM347.96 386.68C349.43 385.21 350.947 385.065 352.51 386.246L351.386 387.37C350.495 386.79 349.667 386.882 348.904 387.646C348.373 388.176 348.214 388.851 348.426 389.671C348.603 390.456 349.063 391.22 349.805 391.963C349.855 392.012 349.904 392.054 349.954 392.09L349.996 392.047C349.869 391.496 349.89 390.98 350.06 390.499C350.194 390.053 350.466 389.626 350.876 389.215C351.619 388.473 352.446 388.112 353.358 388.134C354.278 388.176 355.108 388.568 355.851 389.311C356.608 390.067 356.979 390.941 356.965 391.931C356.943 392.942 356.562 393.819 355.819 394.561C354.893 395.487 353.846 395.855 352.68 395.664C351.562 395.48 350.427 394.812 349.275 393.66C348.03 392.415 347.284 391.167 347.037 389.915C346.775 388.636 347.083 387.557 347.96 386.68ZM351.576 390.382C351.103 390.856 350.876 391.379 350.898 391.952C350.919 392.525 351.177 393.059 351.672 393.553C352.167 394.048 352.701 394.299 353.274 394.307C353.846 394.328 354.362 394.109 354.822 393.649C355.289 393.182 355.504 392.655 355.469 392.069C355.434 391.453 355.183 390.912 354.716 390.446C354.221 389.951 353.698 389.703 353.146 389.703C352.573 389.682 352.05 389.908 351.576 390.382Z" fill="#D9D9D9"/>
<path d="M363.891 407.749C364.626 407.014 365.432 406.625 366.309 406.583C367.193 406.547 367.967 406.862 368.632 407.527C369.275 408.17 369.625 409.015 369.682 410.061C369.689 410.663 369.572 411.592 369.332 412.851C369.056 414.202 369.046 415.167 369.3 415.747L373.087 411.96L374.105 412.978L368.886 418.197C368.13 417.44 367.72 416.528 367.656 415.46C367.607 414.888 367.716 413.859 367.985 412.374C368.133 411.49 368.204 410.839 368.197 410.422C368.155 409.687 367.914 409.1 367.476 408.661C367.052 408.237 366.617 408.036 366.171 408.057C365.726 408.078 365.277 408.315 364.824 408.767C364.343 409.248 364.145 409.772 364.23 410.337C364.294 410.896 364.623 411.493 365.217 412.13L364.06 413.286C363.226 412.423 362.791 411.5 362.756 410.518C362.692 409.492 363.071 408.57 363.891 407.749ZM370.134 401.506C371.025 400.615 372.089 400.3 373.326 400.562C374.472 400.817 375.632 401.531 376.805 402.705C377.979 403.878 378.693 405.038 378.948 406.184C379.203 407.428 378.888 408.492 378.004 409.376C377.12 410.26 376.056 410.575 374.811 410.32C373.666 410.066 372.506 409.351 371.332 408.178C370.145 406.99 369.43 405.83 369.19 404.699C368.928 403.461 369.243 402.397 370.134 401.506ZM371.11 402.482C370.487 403.104 370.392 403.886 370.823 404.826C371.092 405.462 371.644 406.198 372.478 407.032C373.305 407.859 374.041 408.411 374.684 408.687C375.625 409.118 376.406 409.023 377.028 408.4C377.65 407.778 377.746 406.997 377.315 406.056C377.011 405.385 376.459 404.649 375.66 403.85C374.847 403.037 374.111 402.485 373.454 402.196C372.513 401.764 371.732 401.86 371.11 402.482ZM376.494 395.146C377.385 394.255 378.449 393.941 379.686 394.202C380.832 394.457 381.991 395.171 383.165 396.345C384.339 397.519 385.053 398.678 385.308 399.824C385.562 401.068 385.248 402.133 384.364 403.016C383.48 403.9 382.416 404.215 381.171 403.96C380.026 403.706 378.866 402.992 377.692 401.818C376.504 400.63 375.79 399.47 375.55 398.339C375.288 397.101 375.603 396.037 376.494 395.146ZM377.47 396.122C376.847 396.744 376.752 397.526 377.183 398.466C377.452 399.103 378.003 399.838 378.838 400.672C379.665 401.5 380.4 402.051 381.044 402.327C381.984 402.758 382.766 402.663 383.388 402.041C384.01 401.418 384.106 400.637 383.674 399.697C383.37 399.025 382.819 398.289 382.02 397.49C381.207 396.677 380.471 396.126 379.814 395.836C378.873 395.404 378.092 395.5 377.47 396.122ZM382.854 388.786C383.66 387.98 384.512 387.553 385.41 387.503C386.216 387.461 386.902 387.722 387.467 388.288C387.856 388.677 388.1 389.091 388.199 389.529C388.291 390.003 388.22 390.505 387.987 391.035L388.019 391.067C388.471 390.784 388.995 390.685 389.589 390.77C390.246 390.834 390.812 391.102 391.286 391.576C391.95 392.241 392.251 393.029 392.187 393.941C392.102 394.861 391.615 395.766 390.724 396.657C389.826 397.555 388.921 398.043 388.008 398.12C387.096 398.184 386.308 397.883 385.643 397.219C385.169 396.745 384.901 396.179 384.837 395.522C384.752 394.928 384.851 394.404 385.134 393.952L385.102 393.92C384.572 394.153 384.07 394.224 383.596 394.132C383.158 394.033 382.744 393.789 382.355 393.4C381.789 392.835 381.528 392.149 381.57 391.343C381.613 390.452 382.04 389.6 382.854 388.786ZM383.776 389.709C383.303 390.183 383.055 390.678 383.034 391.194C383.006 391.647 383.154 392.036 383.479 392.361C383.847 392.729 384.232 392.916 384.635 392.923C385.137 392.93 385.657 392.665 386.195 392.128C386.725 391.597 386.99 391.078 386.99 390.568C386.969 390.151 386.782 389.766 386.428 389.412C386.11 389.094 385.721 388.946 385.261 388.967C384.745 388.988 384.25 389.235 383.776 389.709ZM387.054 392.987C386.488 393.552 386.205 394.104 386.205 394.641C386.177 395.179 386.371 395.656 386.789 396.073C387.185 396.469 387.648 396.642 388.178 396.593C388.715 396.551 389.253 396.261 389.79 395.723C390.321 395.193 390.618 394.648 390.681 394.09C390.709 393.567 390.529 393.11 390.14 392.722C389.716 392.297 389.246 392.103 388.73 392.138C388.157 392.159 387.598 392.442 387.054 392.987Z" fill="#D9D9D9"/>
<path d="M399.891 406.749C400.626 406.014 401.432 405.625 402.309 405.583C403.193 405.547 403.967 405.862 404.632 406.527C405.275 407.17 405.625 408.015 405.682 409.061C405.689 409.663 405.572 410.592 405.332 411.851C405.056 413.202 405.046 414.167 405.3 414.747L409.087 410.96L410.105 411.978L404.886 417.197C404.13 416.44 403.72 415.528 403.656 414.46C403.607 413.888 403.716 412.859 403.985 411.374C404.133 410.49 404.204 409.839 404.197 409.422C404.155 408.687 403.914 408.1 403.476 407.661C403.052 407.237 402.617 407.036 402.171 407.057C401.726 407.078 401.277 407.315 400.824 407.767C400.343 408.248 400.145 408.772 400.23 409.337C400.294 409.896 400.623 410.493 401.217 411.13L400.06 412.286C399.226 411.423 398.791 410.5 398.756 409.518C398.692 408.492 399.071 407.57 399.891 406.749ZM406.134 400.506C407.025 399.615 408.089 399.3 409.326 399.562C410.472 399.817 411.632 400.531 412.805 401.705C413.979 402.878 414.693 404.038 414.948 405.184C415.203 406.428 414.888 407.492 414.004 408.376C413.12 409.26 412.056 409.575 410.811 409.32C409.666 409.066 408.506 408.351 407.332 407.178C406.145 405.99 405.43 404.83 405.19 403.699C404.928 402.461 405.243 401.397 406.134 400.506ZM407.11 401.482C406.487 402.104 406.392 402.886 406.823 403.826C407.092 404.462 407.644 405.198 408.478 406.032C409.305 406.859 410.041 407.411 410.684 407.687C411.625 408.118 412.406 408.023 413.028 407.4C413.65 406.778 413.746 405.997 413.315 405.056C413.011 404.385 412.459 403.649 411.66 402.85C410.847 402.037 410.111 401.485 409.454 401.196C408.513 400.764 407.732 400.86 407.11 401.482ZM413.438 393.499L421.011 401.072L419.855 402.229L413.671 396.045C413.643 396.95 413.381 397.848 412.886 398.739L411.741 397.593C411.995 397.169 412.207 396.66 412.377 396.066C412.518 395.444 412.579 394.882 412.557 394.38L413.438 393.499ZM418.854 387.786C419.744 386.896 420.809 386.581 422.046 386.842C423.192 387.097 424.351 387.811 425.525 388.985C426.699 390.159 427.413 391.318 427.668 392.464C427.922 393.708 427.608 394.773 426.724 395.657C425.84 396.54 424.776 396.855 423.531 396.601C422.386 396.346 421.226 395.632 420.052 394.458C418.864 393.27 418.15 392.11 417.91 390.979C417.648 389.742 417.963 388.677 418.854 387.786ZM419.829 388.762C419.207 389.385 419.112 390.166 419.543 391.106C419.812 391.743 420.363 392.478 421.198 393.313C422.025 394.14 422.76 394.691 423.404 394.967C424.344 395.398 425.126 395.303 425.748 394.681C426.37 394.059 426.466 393.277 426.034 392.337C425.73 391.665 425.179 390.93 424.38 390.131C423.566 389.317 422.831 388.766 422.173 388.476C421.233 388.045 420.452 388.14 419.829 388.762Z" fill="#D9D9D9"/>
<path d="M435.891 406.749C436.626 406.014 437.432 405.625 438.309 405.583C439.193 405.547 439.967 405.862 440.632 406.527C441.275 407.17 441.625 408.015 441.682 409.061C441.689 409.663 441.572 410.592 441.332 411.851C441.056 413.202 441.046 414.167 441.3 414.747L445.087 410.96L446.105 411.978L440.886 417.197C440.13 416.44 439.72 415.528 439.656 414.46C439.607 413.888 439.716 412.859 439.985 411.374C440.133 410.49 440.204 409.839 440.197 409.422C440.155 408.687 439.914 408.1 439.476 407.661C439.052 407.237 438.617 407.036 438.171 407.057C437.726 407.078 437.277 407.315 436.824 407.767C436.343 408.248 436.145 408.772 436.23 409.337C436.294 409.896 436.623 410.493 437.217 411.13L436.06 412.286C435.226 411.423 434.791 410.5 434.756 409.518C434.692 408.492 435.071 407.57 435.891 406.749ZM442.134 400.506C443.025 399.615 444.089 399.3 445.326 399.562C446.472 399.817 447.632 400.531 448.805 401.705C449.979 402.878 450.693 404.038 450.948 405.184C451.203 406.428 450.888 407.492 450.004 408.376C449.12 409.26 448.056 409.575 446.811 409.32C445.666 409.066 444.506 408.351 443.332 407.178C442.145 405.99 441.43 404.83 441.19 403.699C440.928 402.461 441.243 401.397 442.134 400.506ZM443.11 401.482C442.487 402.104 442.392 402.886 442.823 403.826C443.092 404.462 443.644 405.198 444.478 406.032C445.305 406.859 446.041 407.411 446.684 407.687C447.625 408.118 448.406 408.023 449.028 407.4C449.65 406.778 449.746 405.997 449.315 405.056C449.011 404.385 448.459 403.649 447.66 402.85C446.847 402.037 446.111 401.485 445.454 401.196C444.513 400.764 443.732 400.86 443.11 401.482ZM449.438 393.499L457.011 401.072L455.855 402.229L449.671 396.045C449.643 396.95 449.381 397.848 448.886 398.739L447.741 397.593C447.995 397.169 448.207 396.66 448.377 396.066C448.518 395.444 448.579 394.882 448.557 394.38L449.438 393.499ZM454.97 387.67C455.706 386.934 456.512 386.546 457.389 386.503C458.272 386.468 459.047 386.782 459.711 387.447C460.355 388.091 460.705 388.936 460.761 389.982C460.768 390.583 460.652 391.513 460.411 392.772C460.136 394.122 460.125 395.087 460.38 395.667L464.166 391.881L465.184 392.899L459.966 398.117C459.209 397.361 458.799 396.449 458.736 395.381C458.686 394.808 458.796 393.779 459.064 392.294C459.213 391.41 459.284 390.76 459.276 390.343C459.234 389.607 458.994 389.02 458.555 388.582C458.131 388.158 457.696 387.956 457.251 387.977C456.805 387.999 456.356 388.235 455.904 388.688C455.423 389.169 455.225 389.692 455.31 390.258C455.373 390.816 455.702 391.414 456.296 392.05L455.14 393.206C454.306 392.344 453.871 391.421 453.835 390.438C453.772 389.413 454.15 388.49 454.97 387.67Z" fill="#D9D9D9"/>
<path d="M469.891 408.749C470.626 408.014 471.432 407.625 472.309 407.583C473.193 407.547 473.967 407.862 474.632 408.527C475.275 409.17 475.625 410.015 475.682 411.061C475.689 411.663 475.572 412.592 475.332 413.851C475.056 415.202 475.046 416.167 475.3 416.747L479.087 412.96L480.105 413.978L474.886 419.197C474.13 418.44 473.72 417.528 473.656 416.46C473.607 415.888 473.716 414.859 473.985 413.374C474.133 412.49 474.204 411.839 474.197 411.422C474.155 410.687 473.914 410.1 473.476 409.661C473.052 409.237 472.617 409.036 472.171 409.057C471.726 409.078 471.277 409.315 470.824 409.767C470.343 410.248 470.145 410.772 470.23 411.337C470.294 411.896 470.623 412.493 471.217 413.13L470.06 414.286C469.226 413.423 468.791 412.5 468.756 411.518C468.692 410.492 469.071 409.57 469.891 408.749ZM476.134 402.506C477.025 401.615 478.089 401.3 479.326 401.562C480.472 401.817 481.632 402.531 482.805 403.705C483.979 404.878 484.693 406.038 484.948 407.184C485.203 408.428 484.888 409.492 484.004 410.376C483.12 411.26 482.056 411.575 480.811 411.32C479.666 411.066 478.506 410.351 477.332 409.178C476.145 407.99 475.43 406.83 475.19 405.699C474.928 404.461 475.243 403.397 476.134 402.506ZM477.11 403.482C476.487 404.104 476.392 404.886 476.823 405.826C477.092 406.462 477.644 407.198 478.478 408.032C479.305 408.859 480.041 409.411 480.684 409.687C481.625 410.118 482.406 410.023 483.028 409.4C483.65 408.778 483.746 407.997 483.315 407.056C483.011 406.385 482.459 405.649 481.66 404.85C480.847 404.037 480.111 403.485 479.454 403.196C478.513 402.764 477.732 402.86 477.11 403.482ZM483.438 395.499L491.011 403.072L489.855 404.229L483.671 398.045C483.643 398.95 483.381 399.848 482.886 400.739L481.741 399.593C481.995 399.169 482.207 398.66 482.377 398.066C482.518 397.444 482.579 396.882 482.557 396.38L483.438 395.499ZM489.766 389.171L490.826 388.111L495.833 393.117L496.978 391.971L497.901 392.894L496.755 394.04L498.399 395.684L497.296 396.787L495.652 395.143L491.961 398.834L490.869 397.741L489.766 389.171ZM491.155 390.709L491.982 396.967L494.73 394.22L491.187 390.677L491.155 390.709Z" fill="#D9D9D9"/>
<path d="M505.891 407.749C506.626 407.014 507.432 406.625 508.309 406.583C509.193 406.547 509.967 406.862 510.632 407.527C511.275 408.17 511.625 409.015 511.682 410.061C511.689 410.663 511.572 411.592 511.332 412.851C511.056 414.202 511.046 415.167 511.3 415.747L515.087 411.96L516.105 412.978L510.886 418.197C510.13 417.44 509.72 416.528 509.656 415.46C509.607 414.888 509.716 413.859 509.985 412.374C510.133 411.49 510.204 410.839 510.197 410.422C510.155 409.687 509.914 409.1 509.476 408.661C509.052 408.237 508.617 408.036 508.171 408.057C507.726 408.078 507.277 408.315 506.824 408.767C506.343 409.248 506.145 409.772 506.23 410.337C506.294 410.896 506.623 411.493 507.217 412.13L506.06 413.286C505.226 412.423 504.791 411.5 504.756 410.518C504.692 409.492 505.071 408.57 505.891 407.749ZM512.134 401.506C513.025 400.615 514.089 400.3 515.326 400.562C516.472 400.817 517.632 401.531 518.805 402.705C519.979 403.878 520.693 405.038 520.948 406.184C521.203 407.428 520.888 408.492 520.004 409.376C519.12 410.26 518.056 410.575 516.811 410.32C515.666 410.066 514.506 409.351 513.332 408.178C512.145 406.99 511.43 405.83 511.19 404.699C510.928 403.461 511.243 402.397 512.134 401.506ZM513.11 402.482C512.487 403.104 512.392 403.886 512.823 404.826C513.092 405.462 513.644 406.198 514.478 407.032C515.305 407.859 516.041 408.411 516.684 408.687C517.625 409.118 518.406 409.023 519.028 408.4C519.65 407.778 519.746 406.997 519.315 406.056C519.011 405.385 518.459 404.649 517.66 403.85C516.847 403.037 516.111 402.485 515.454 402.196C514.513 401.764 513.732 401.86 513.11 402.482ZM519.438 394.499L527.011 402.072L525.855 403.229L519.671 397.045C519.643 397.95 519.381 398.848 518.886 399.739L517.741 398.593C517.995 398.169 518.207 397.66 518.377 397.066C518.518 396.444 518.579 395.882 518.557 395.38L519.438 394.499ZM524.96 388.68C526.43 387.21 527.947 387.065 529.51 388.246L528.386 389.37C527.495 388.79 526.667 388.882 525.904 389.646C525.373 390.176 525.214 390.851 525.426 391.671C525.603 392.456 526.063 393.22 526.805 393.963C526.855 394.012 526.904 394.054 526.954 394.09L526.996 394.047C526.869 393.496 526.89 392.98 527.06 392.499C527.194 392.053 527.466 391.626 527.876 391.215C528.619 390.473 529.446 390.112 530.358 390.134C531.278 390.176 532.108 390.568 532.851 391.311C533.608 392.067 533.979 392.941 533.965 393.931C533.943 394.942 533.562 395.819 532.819 396.561C531.893 397.487 530.846 397.855 529.68 397.664C528.562 397.48 527.427 396.812 526.275 395.66C525.03 394.415 524.284 393.167 524.037 391.915C523.775 390.636 524.083 389.557 524.96 388.68ZM528.576 392.382C528.103 392.856 527.876 393.379 527.898 393.952C527.919 394.525 528.177 395.059 528.672 395.553C529.167 396.048 529.701 396.299 530.274 396.307C530.846 396.328 531.362 396.109 531.822 395.649C532.289 395.182 532.504 394.655 532.469 394.069C532.434 393.453 532.183 392.912 531.716 392.446C531.221 391.951 530.698 391.703 530.146 391.703C529.573 391.682 529.05 391.908 528.576 392.382Z" fill="#D9D9D9"/>
<path d="M541.891 407.749C542.626 407.014 543.432 406.625 544.309 406.583C545.193 406.547 545.967 406.862 546.632 407.527C547.275 408.17 547.625 409.015 547.682 410.061C547.689 410.663 547.572 411.592 547.332 412.851C547.056 414.202 547.046 415.167 547.3 415.747L551.087 411.96L552.105 412.978L546.886 418.197C546.13 417.44 545.72 416.528 545.656 415.46C545.607 414.888 545.716 413.859 545.985 412.374C546.133 411.49 546.204 410.839 546.197 410.422C546.155 409.687 545.914 409.1 545.476 408.661C545.052 408.237 544.617 408.036 544.171 408.057C543.726 408.078 543.277 408.315 542.824 408.767C542.343 409.248 542.145 409.772 542.23 410.337C542.294 410.896 542.623 411.493 543.217 412.13L542.06 413.286C541.226 412.423 540.791 411.5 540.756 410.518C540.692 409.492 541.071 408.57 541.891 407.749ZM548.134 401.506C549.025 400.615 550.089 400.3 551.326 400.562C552.472 400.817 553.632 401.531 554.805 402.705C555.979 403.878 556.693 405.038 556.948 406.184C557.203 407.428 556.888 408.492 556.004 409.376C555.12 410.26 554.056 410.575 552.811 410.32C551.666 410.066 550.506 409.351 549.332 408.178C548.145 406.99 547.43 405.83 547.19 404.699C546.928 403.461 547.243 402.397 548.134 401.506ZM549.11 402.482C548.487 403.104 548.392 403.886 548.823 404.826C549.092 405.462 549.644 406.198 550.478 407.032C551.305 407.859 552.041 408.411 552.684 408.687C553.625 409.118 554.406 409.023 555.028 408.4C555.65 407.778 555.746 406.997 555.315 406.056C555.011 405.385 554.459 404.649 553.66 403.85C552.847 403.037 552.111 402.485 551.454 402.196C550.513 401.764 549.732 401.86 549.11 402.482ZM555.438 394.499L563.011 402.072L561.855 403.229L555.671 397.045C555.643 397.95 555.381 398.848 554.886 399.739L553.741 398.593C553.995 398.169 554.207 397.66 554.377 397.066C554.518 396.444 554.579 395.882 554.557 395.38L555.438 394.499ZM560.854 388.786C561.66 387.98 562.512 387.553 563.41 387.503C564.216 387.461 564.902 387.722 565.467 388.288C565.856 388.677 566.1 389.091 566.199 389.529C566.291 390.003 566.22 390.505 565.987 391.035L566.019 391.067C566.471 390.784 566.995 390.685 567.589 390.77C568.246 390.834 568.812 391.102 569.286 391.576C569.95 392.241 570.251 393.029 570.187 393.941C570.102 394.861 569.615 395.766 568.724 396.657C567.826 397.555 566.921 398.043 566.008 398.12C565.096 398.184 564.308 397.883 563.643 397.219C563.169 396.745 562.901 396.179 562.837 395.522C562.752 394.928 562.851 394.404 563.134 393.952L563.102 393.92C562.572 394.153 562.07 394.224 561.596 394.132C561.158 394.033 560.744 393.789 560.355 393.4C559.789 392.835 559.528 392.149 559.57 391.343C559.613 390.452 560.04 389.6 560.854 388.786ZM561.776 389.709C561.303 390.183 561.055 390.678 561.034 391.194C561.006 391.647 561.154 392.036 561.479 392.361C561.847 392.729 562.232 392.916 562.635 392.923C563.137 392.93 563.657 392.665 564.195 392.128C564.725 391.597 564.99 391.078 564.99 390.568C564.969 390.151 564.782 389.766 564.428 389.412C564.11 389.094 563.721 388.946 563.261 388.967C562.745 388.988 562.25 389.235 561.776 389.709ZM565.054 392.987C564.488 393.552 564.205 394.104 564.205 394.641C564.177 395.179 564.371 395.656 564.789 396.073C565.185 396.469 565.648 396.642 566.178 396.593C566.715 396.551 567.253 396.261 567.79 395.723C568.321 395.193 568.618 394.648 568.681 394.09C568.709 393.567 568.529 393.11 568.14 392.722C567.716 392.297 567.246 392.103 566.73 392.138C566.157 392.159 565.598 392.442 565.054 392.987Z" fill="#D9D9D9"/>
<path d="M5.29 320.95V319.3L13.255 313.825V313.765H5.29V312.13H16V313.72L7.945 319.255V319.315H16V320.95H5.29ZM8.245 310.172V308.582H12.97C13.64 308.582 14.12 308.442 14.41 308.162C14.72 307.882 14.875 307.437 14.875 306.827C14.875 306.427 14.705 306.042 14.365 305.672C14.015 305.312 13.555 305.062 12.985 304.922H8.245V303.332H16V304.922H14.95C15.79 305.582 16.21 306.397 16.21 307.367C16.21 309.237 15.165 310.172 13.075 310.172H8.245ZM8.035 297.795C8.035 296.645 8.47 295.83 9.34 295.35C8.86 295 8.52 294.63 8.32 294.24C8.13 293.89 8.035 293.45 8.035 292.92C8.035 292.12 8.3 291.46 8.83 290.94C9.37 290.42 10.065 290.16 10.915 290.16H16V291.75H11.185C10.545 291.75 10.085 291.885 9.805 292.155C9.515 292.415 9.37 292.855 9.37 293.475C9.37 293.915 9.535 294.285 9.865 294.585C10.195 294.885 10.65 295.035 11.23 295.035H16V296.625H11.2C9.98 296.625 9.37 297.155 9.37 298.215C9.37 298.735 9.565 299.145 9.955 299.445C10.315 299.765 10.775 299.925 11.335 299.925H16V301.515H8.245V299.925H9.1C8.39 299.305 8.035 298.595 8.035 297.795ZM5.08 288.361V286.771H9.4C8.49 286.141 8.035 285.351 8.035 284.401C8.035 283.291 8.44 282.416 9.25 281.776C10.01 281.186 10.955 280.891 12.085 280.891C13.275 280.891 14.245 281.191 14.995 281.791C15.805 282.451 16.21 283.346 16.21 284.476C16.21 285.526 15.83 286.326 15.07 286.876H16V288.361H5.08ZM9.325 284.761C9.325 285.371 9.56 285.851 10.03 286.201C10.53 286.611 11.205 286.816 12.055 286.816H12.19C12.96 286.816 13.595 286.651 14.095 286.321C14.645 285.941 14.92 285.406 14.92 284.716C14.92 283.946 14.64 283.371 14.08 282.991C13.58 282.681 12.915 282.526 12.085 282.526C11.225 282.526 10.57 282.691 10.12 283.021C9.59 283.391 9.325 283.971 9.325 284.761ZM8.035 276.111C8.035 274.831 8.465 273.866 9.325 273.216C10.115 272.606 11.195 272.296 12.565 272.286V278.166C13.335 278.106 13.915 277.901 14.305 277.551C14.705 277.181 14.905 276.686 14.905 276.066C14.905 275.516 14.775 275.066 14.515 274.716C14.325 274.466 13.99 274.231 13.51 274.011V272.421C14.25 272.611 14.855 272.966 15.325 273.486C15.915 274.166 16.21 275.021 16.21 276.051C16.21 277.201 15.855 278.106 15.145 278.766C14.395 279.486 13.385 279.846 12.115 279.846C10.955 279.846 9.99 279.506 9.22 278.826C8.43 278.166 8.035 277.261 8.035 276.111ZM9.34 276.066C9.34 276.666 9.515 277.141 9.865 277.491C10.225 277.831 10.725 278.046 11.365 278.136V273.951C10.015 274.101 9.34 274.806 9.34 276.066ZM8.035 267.329C8.035 266.919 8.1 266.584 8.23 266.324H9.82C9.71 266.684 9.655 267.059 9.655 267.449C9.655 267.929 9.85 268.359 10.24 268.739C10.65 269.139 11.2 269.339 11.89 269.339H16V270.929H8.245V269.339H9.415C9.005 269.149 8.69 268.899 8.47 268.589C8.18 268.239 8.035 267.819 8.035 267.329ZM8.035 256.783C8.035 255.603 8.425 254.663 9.205 253.963C9.985 253.263 10.96 252.913 12.13 252.913C13.31 252.913 14.275 253.258 15.025 253.948C15.815 254.678 16.21 255.623 16.21 256.783C16.21 257.943 15.815 258.888 15.025 259.618C14.275 260.308 13.31 260.653 12.13 260.653C10.94 260.653 9.965 260.303 9.205 259.603C8.425 258.893 8.035 257.953 8.035 256.783ZM9.34 256.783C9.34 257.523 9.63 258.093 10.21 258.493C10.69 258.843 11.33 259.018 12.13 259.018C12.92 259.018 13.555 258.843 14.035 258.493C14.615 258.083 14.905 257.513 14.905 256.783C14.905 256.063 14.615 255.488 14.035 255.058C13.525 254.698 12.89 254.518 12.13 254.518C11.34 254.518 10.7 254.698 10.21 255.058C9.63 255.478 9.34 256.053 9.34 256.783ZM5.29 246.723H6.64V248.118C6.64 248.378 6.705 248.568 6.835 248.688C6.955 248.808 7.16 248.868 7.45 248.868H8.245V246.828H9.55V248.868H16V250.443H9.55V252.228H8.245V250.443H7.405C6.735 250.443 6.22 250.263 5.86 249.903C5.48 249.553 5.29 249.033 5.29 248.343V246.723ZM5.08 235.953C5.08 234.693 5.405 233.663 6.055 232.863C6.685 232.083 7.545 231.608 8.635 231.438V233.028C7.905 233.208 7.37 233.553 7.03 234.063C6.69 234.563 6.52 235.203 6.52 235.983C6.52 237.143 6.915 238.013 7.705 238.593C8.415 239.143 9.4 239.418 10.66 239.418C11.94 239.418 12.935 239.148 13.645 238.608C14.395 238.038 14.77 237.153 14.77 235.953C14.77 235.163 14.575 234.513 14.185 234.003C13.765 233.463 13.135 233.088 12.295 232.878V231.288C13.545 231.528 14.52 232.088 15.22 232.968C15.88 233.788 16.21 234.778 16.21 235.938C16.21 237.688 15.65 239.008 14.53 239.898C13.58 240.668 12.29 241.053 10.66 241.053C9.06 241.053 7.765 240.653 6.775 239.853C5.645 238.963 5.08 237.663 5.08 235.953ZM5.29 230.607V228.837L14.17 225.792V225.747L5.29 222.717V220.947L16 224.787V226.767L5.29 230.607ZM5.29 219.817V215.917C5.29 214.197 5.775 212.887 6.745 211.987C7.645 211.147 8.945 210.727 10.645 210.727C12.315 210.727 13.62 211.157 14.56 212.017C15.52 212.917 16 214.227 16 215.947V219.817H5.29ZM6.685 218.182H14.605V216.247C14.605 214.887 14.28 213.892 13.63 213.262C12.98 212.642 11.985 212.332 10.645 212.332C9.285 212.332 8.285 212.637 7.645 213.247C7.005 213.877 6.685 214.867 6.685 216.217V218.182ZM5.08 198.64V197.05H16V198.535H15.07C15.83 199.085 16.21 199.885 16.21 200.935C16.21 202.075 15.805 202.97 14.995 203.62C14.245 204.22 13.275 204.52 12.085 204.52C10.935 204.52 9.99 204.225 9.25 203.635C8.44 203.005 8.035 202.13 8.035 201.01C8.035 200.06 8.49 199.27 9.4 198.64H5.08ZM9.325 200.65C9.325 201.44 9.59 202.02 10.12 202.39C10.57 202.72 11.225 202.885 12.085 202.885C12.945 202.885 13.61 202.73 14.08 202.42C14.64 202.06 14.92 201.485 14.92 200.695C14.92 200.025 14.645 199.49 14.095 199.09C13.595 198.76 12.96 198.595 12.19 198.595H12.055C11.225 198.595 10.55 198.795 10.03 199.195C9.56 199.575 9.325 200.06 9.325 200.65ZM8.035 191.97C8.035 190.69 8.465 189.725 9.325 189.075C10.115 188.465 11.195 188.155 12.565 188.145L12.565 194.025C13.335 193.965 13.915 193.76 14.305 193.41C14.705 193.04 14.905 192.545 14.905 191.925C14.905 191.375 14.775 190.925 14.515 190.575C14.325 190.325 13.99 190.09 13.51 189.87V188.28C14.25 188.47 14.855 188.825 15.325 189.345C15.915 190.025 16.21 190.88 16.21 191.91C16.21 193.06 15.855 193.965 15.145 194.625C14.395 195.345 13.385 195.705 12.115 195.705C10.955 195.705 9.99 195.365 9.22 194.685C8.43 194.025 8.035 193.12 8.035 191.97ZM9.34 191.925C9.34 192.525 9.515 193 9.865 193.35C10.225 193.69 10.725 193.905 11.365 193.995L11.365 189.81C10.015 189.96 9.34 190.665 9.34 191.925ZM8.035 183.293C8.035 182.153 8.32 181.313 8.89 180.773C9.39 180.303 10.11 180.068 11.05 180.068H16V181.538H14.905C15.285 181.828 15.6 182.208 15.85 182.678C16.09 183.188 16.21 183.783 16.21 184.463C16.21 185.263 16.005 185.898 15.595 186.368C15.175 186.848 14.62 187.088 13.93 187.088C12.95 187.088 12.225 186.703 11.755 185.933C11.355 185.283 11.155 184.433 11.155 183.383L11.14 181.643H10.945C9.865 181.643 9.325 182.228 9.325 183.398C9.325 183.948 9.425 184.368 9.625 184.658C9.855 185.008 10.195 185.213 10.645 185.273V186.848C9.725 186.728 9.045 186.338 8.605 185.678C8.225 185.118 8.035 184.323 8.035 183.293ZM12.355 181.643L12.37 183.278C12.37 184.728 12.875 185.453 13.885 185.453C14.195 185.453 14.45 185.338 14.65 185.108C14.85 184.878 14.95 184.543 14.95 184.103C14.95 183.393 14.75 182.798 14.35 182.318C13.94 181.868 13.41 181.643 12.76 181.643H12.355ZM5.74 175.893H8.245V174.123H9.565V175.893H14.065C14.265 175.893 14.42 175.848 14.53 175.758C14.63 175.658 14.68 175.518 14.68 175.338V174.318H16V175.593C16 176.263 15.825 176.748 15.475 177.048C15.155 177.338 14.685 177.483 14.065 177.483H9.565V178.923H8.245V177.483H6.4L5.74 175.893ZM5.08 172.843V171.253H9.34C8.88 170.963 8.545 170.603 8.335 170.173C8.135 169.803 8.035 169.363 8.035 168.853C8.035 167.923 8.31 167.218 8.86 166.738C9.38 166.288 10.155 166.063 11.185 166.063H16V167.653H11.455C10.785 167.653 10.265 167.793 9.895 168.073C9.525 168.373 9.34 168.828 9.34 169.438C9.34 169.978 9.555 170.413 9.985 170.743C10.415 171.083 10.97 171.253 11.65 171.253H16V172.843H5.08ZM8.035 161.364C8.035 159.344 8.85 158.244 10.48 158.064V159.609C10.06 159.729 9.77 159.914 9.61 160.164C9.43 160.434 9.34 160.844 9.34 161.394C9.34 161.894 9.41 162.254 9.55 162.474C9.7 162.754 9.93 162.894 10.24 162.894C10.5 162.894 10.73 162.684 10.93 162.264C11.04 162.004 11.195 161.484 11.395 160.704C11.605 159.834 11.85 159.179 12.13 158.739C12.52 158.119 13.06 157.809 13.75 157.809C15.39 157.809 16.21 158.959 16.21 161.259C16.21 163.379 15.305 164.529 13.495 164.709V163.149C14.015 163.059 14.385 162.874 14.605 162.594C14.805 162.314 14.905 161.884 14.905 161.304C14.905 160.064 14.555 159.444 13.855 159.444C13.475 159.444 13.18 159.674 12.97 160.134C12.85 160.374 12.7 160.894 12.52 161.694C12.31 162.614 12.085 163.254 11.845 163.614C11.465 164.214 10.945 164.514 10.285 164.514C9.575 164.514 9.025 164.224 8.635 163.644C8.235 163.064 8.035 162.304 8.035 161.364ZM3.595 148.051C4.615 148.681 5.65 149.161 6.7 149.491C7.96 149.931 9.26 150.151 10.6 150.151C11.92 150.151 13.22 149.931 14.5 149.491C15.53 149.161 16.565 148.681 17.605 148.051V149.386C16.615 150.086 15.595 150.626 14.545 151.006C13.285 151.466 11.975 151.696 10.615 151.696C9.235 151.696 7.92 151.466 6.67 151.006C5.6 150.636 4.575 150.096 3.595 149.386V148.051ZM8.035 142.756C8.035 141.606 8.47 140.791 9.34 140.311C8.86 139.961 8.52 139.591 8.32 139.201C8.13 138.851 8.035 138.411 8.035 137.881C8.035 137.081 8.3 136.421 8.83 135.901C9.37 135.381 10.065 135.121 10.915 135.121H16V136.711H11.185C10.545 136.711 10.085 136.846 9.805 137.116C9.515 137.376 9.37 137.816 9.37 138.436C9.37 138.876 9.535 139.246 9.865 139.546C10.195 139.846 10.65 139.996 11.23 139.996H16V141.586H11.2C9.98 141.586 9.37 142.116 9.37 143.176C9.37 143.696 9.565 144.106 9.955 144.406C10.315 144.726 10.775 144.886 11.335 144.886H16V146.476H8.245V144.886H9.1C8.39 144.266 8.035 143.556 8.035 142.756ZM5.14 132.197C5.14 131.867 5.24 131.602 5.44 131.402C5.63 131.192 5.885 131.087 6.205 131.087C6.505 131.087 6.765 131.197 6.985 131.417C7.185 131.637 7.285 131.897 7.285 132.197C7.285 132.497 7.185 132.757 6.985 132.977C6.775 133.187 6.515 133.292 6.205 133.292C5.885 133.292 5.63 133.187 5.44 132.977C5.24 132.777 5.14 132.517 5.14 132.197ZM8.245 132.992V131.402H16V132.992H8.245ZM5.08 129.069V127.479H16V129.069H5.08ZM5.08 125.319V123.729H16V125.319H5.08ZM5.14 120.624C5.14 120.294 5.24 120.029 5.44 119.829C5.63 119.619 5.885 119.514 6.205 119.514C6.505 119.514 6.765 119.624 6.985 119.844C7.185 120.064 7.285 120.324 7.285 120.624C7.285 120.924 7.185 121.184 6.985 121.404C6.775 121.614 6.515 121.719 6.205 121.719C5.885 121.719 5.63 121.614 5.44 121.404C5.24 121.204 5.14 120.944 5.14 120.624ZM8.245 121.419V119.829H16V121.419H8.245ZM8.035 114.107C8.035 112.927 8.425 111.987 9.205 111.287C9.985 110.587 10.96 110.237 12.13 110.237C13.31 110.237 14.275 110.582 15.025 111.272C15.815 112.002 16.21 112.947 16.21 114.107C16.21 115.267 15.815 116.212 15.025 116.942C14.275 117.632 13.31 117.977 12.13 117.977C10.94 117.977 9.965 117.627 9.205 116.927C8.425 116.217 8.035 115.277 8.035 114.107ZM9.34 114.107C9.34 114.847 9.63 115.417 10.21 115.817C10.69 116.167 11.33 116.342 12.13 116.342C12.92 116.342 13.555 116.167 14.035 115.817C14.615 115.407 14.905 114.837 14.905 114.107C14.905 113.387 14.615 112.812 14.035 112.382C13.525 112.022 12.89 111.842 12.13 111.842C11.34 111.842 10.7 112.022 10.21 112.382C9.63 112.802 9.34 113.377 9.34 114.107ZM8.035 104.797C8.035 102.867 9.095 101.902 11.215 101.902H16V103.492H11.35C10.03 103.492 9.37 104.097 9.37 105.307C9.37 105.777 9.53 106.172 9.85 106.492C10.22 106.862 10.715 107.077 11.335 107.137H16V108.727H8.245V107.137H9.205C8.825 106.847 8.535 106.502 8.335 106.102C8.135 105.732 8.035 105.297 8.035 104.797ZM3.595 98.9744C4.575 98.2844 5.6 97.7444 6.67 97.3544C7.96 96.8944 9.275 96.6644 10.615 96.6644C11.935 96.6644 13.245 96.8944 14.545 97.3544C15.595 97.7444 16.615 98.2844 17.605 98.9744V100.309C16.565 99.6894 15.53 99.2094 14.5 98.8694C13.18 98.4294 11.88 98.2094 10.6 98.2094C9.3 98.2094 8 98.4294 6.7 98.8694C5.65 99.2094 4.615 99.6894 3.595 100.309V98.9744Z" fill="white"/>
</svg>
