<svg width="41" height="35" viewBox="0 0 41 35" fill="none" xmlns="http://www.w3.org/2000/svg">
<path fill-rule="evenodd" clip-rule="evenodd" d="M6.1643 0.821054C8.89934 -0.343405 12.113 -0.0448284 13.7241 0.821054C16.8141 2.48175 19.4592 7.92107 19.4592 7.92107C19.4592 7.92107 22.0869 2.21485 25.3246 0.821054C26.7583 0.203833 30.1494 -0.343405 32.8844 0.821054C35.7856 2.05623 37.8374 4.37106 38.4891 6.82876C39.1408 9.28646 39.1989 12.5646 38.4891 16.1134C36.4416 26.3505 19.4592 34 19.4592 34C19.4592 34 6.13442 27.9245 1.74344 19.4106H5.32489C5.97469 19.4106 6.5506 18.9922 6.75144 18.3743L7.04816 17.4613L9.21409 24.6255C9.41437 25.288 10.0419 25.7274 10.7329 25.6891C11.424 25.6508 11.9991 25.1447 12.1249 24.4641L13.9717 14.4744L15.0795 18.3253C15.2644 18.968 15.8524 19.4106 16.5211 19.4106H22.3922C23.2207 19.4106 23.8922 18.7391 23.8922 17.9106C23.8922 17.0822 23.2207 16.4106 22.3922 16.4106H17.6504L15.0953 7.52861C14.9029 6.85986 14.2759 6.41124 13.5808 6.44508C12.8858 6.47892 12.3053 6.98634 12.1788 7.67061L10.298 17.844L8.53571 12.015C8.34602 11.3875 7.77085 10.9559 7.11538 10.9492C6.4599 10.9424 5.87595 11.362 5.67335 11.9855L4.23516 16.4106H0.623333C0.600701 16.3118 0.579445 16.2127 0.559595 16.1134C-0.149717 12.5645 -0.22246 9.01339 0.559595 6.82876C1.34165 4.64414 3.26317 2.05623 6.1643 0.821054Z" fill="#75BC8D"/>
<path d="M35.3892 28.9445L39.0003 33.2778" stroke="white" stroke-width="3" stroke-linecap="round" stroke-linejoin="round"/>
<circle cx="30.6946" cy="23.5278" r="5.3611" stroke="white" stroke-width="3"/>
</svg>
