<svg width="3662" height="180" viewBox="0 0 3662 180" fill="none" xmlns="http://www.w3.org/2000/svg">
<path d="M28.5 74V115.312C28.5 115.938 28.5208 116.438 28.5625 116.812C28.6458 117.146 28.7917 117.542 29 118C29.25 118.458 29.6667 118.812 30.25 119.062C30.8333 119.271 31.5833 119.375 32.5 119.375C34.5833 119.375 36.375 119.625 37.875 120.125C39.375 120.625 40.125 121.375 40.125 122.375C40.125 127.25 39.4375 130.292 38.0625 131.5C33.5208 131.167 28.1875 131 22.0625 131C14.6458 131 9.10417 131.167 5.4375 131.5C4.0625 130.25 3.375 127.208 3.375 122.375C3.375 121.375 4.0625 120.625 5.4375 120.125C6.8125 119.625 8.45833 119.375 10.375 119.375C12 119.375 13.0625 119.042 13.5625 118.375C14.0625 117.667 14.3125 116.688 14.3125 115.438V74H13.4375C8.22917 74.0833 5.5 74.2292 5.25 74.4375C3.16667 74.4375 2.125 72.6458 2.125 69.0625C2.125 66.3542 2.8125 64.75 4.1875 64.25C5.10417 64.3333 7.79167 64.375 12.25 64.375H14.3125V60.9375C14.3125 56.8125 14.75 53.1667 15.625 50C16.5 46.8333 17.6458 44.2917 19.0625 42.375C20.5208 40.4167 22.25 38.8333 24.25 37.625C26.25 36.375 28.25 35.5208 30.25 35.0625C32.2917 34.6042 34.4583 34.375 36.75 34.375C41.8333 34.375 46.2292 35.7292 49.9375 38.4375C53.6458 41.1458 55.5 44.625 55.5 48.875C55.5 51.7917 54.5417 54 52.625 55.5C50.75 57 48.4375 57.75 45.6875 57.75C44.6042 57.75 43.875 57.5833 43.5 57.25C43.125 56.9167 42.9375 56.375 42.9375 55.625L41.75 45.0625C39.5833 43.9792 37.5417 43.4375 35.625 43.4375C32.875 43.4375 30.875 44.5 29.625 46.625C28.375 48.75 27.75 51.4792 27.75 54.8125C27.75 58.1458 28 61.3125 28.5 64.3125H34.5C38.5 64.3125 41.1875 64.25 42.5625 64.125C43.9375 64.625 44.625 66.2292 44.625 68.9375C44.625 72.5208 43.5833 74.3125 41.5 74.3125C41.375 74.2292 40.6667 74.1667 39.375 74.125C38.0833 74.0417 36.8125 74 35.5625 74H33.6875H28.5ZM87.8075 69.75V73.8125C89.6825 70.8125 92.4742 68.1875 96.1825 65.9375C99.8908 63.6875 103.432 62.5625 106.807 62.5625C109.016 62.5625 111.12 62.9375 113.12 63.6875C115.12 64.3958 116.849 65.6875 118.307 67.5625C119.807 69.4375 120.557 71.7292 120.557 74.4375C120.557 81.8542 116.62 85.5625 108.745 85.5625C108.578 85.5625 108.412 85.5417 108.245 85.5C108.078 85.4583 107.932 85.3958 107.807 85.3125C107.724 85.2292 107.641 85.1458 107.557 85.0625C107.474 84.9792 107.391 84.8542 107.307 84.6875C107.266 84.5208 107.224 84.375 107.182 84.25C107.141 84.125 107.099 83.9375 107.057 83.6875C107.016 83.3958 106.974 83.1667 106.932 83C106.932 82.8333 106.912 82.6042 106.87 82.3125C106.87 81.9792 106.849 81.7083 106.807 81.5L106.057 75C104.932 74.4583 103.703 74.1875 102.37 74.1875C99.9533 74.1875 97.5158 75.0833 95.0575 76.875C92.6408 78.625 90.8492 80.6667 89.6825 83V114.625C89.6825 115.25 89.7033 115.75 89.745 116.125C89.8283 116.458 89.9742 116.854 90.1825 117.312C90.4325 117.771 90.8492 118.125 91.4325 118.375C92.0158 118.583 92.7658 118.688 93.6825 118.688C95.2658 118.688 96.62 118.938 97.745 119.438C98.87 119.938 99.4325 120.688 99.4325 121.688C99.4325 123.688 99.0992 125.667 98.4325 127.625C97.7658 129.583 96.7867 130.875 95.495 131.5C92.5783 131.167 88.3075 131 82.6825 131C77.0575 131 72.745 131.167 69.745 131.5C68.37 130.875 67.37 129.604 66.745 127.688C66.12 125.729 65.8075 123.729 65.8075 121.688C65.8075 120.688 66.37 119.938 67.495 119.438C68.62 118.938 69.9742 118.688 71.5575 118.688C73.1825 118.688 74.245 118.354 74.745 117.688C75.245 116.979 75.495 116 75.495 114.75V81.875C75.495 79.6667 74.8492 78.1042 73.5575 77.1875C72.3075 76.2708 69.87 75.7292 66.245 75.5625C65.7033 75.4375 65.3492 75.1667 65.1825 74.75C65.0575 74.3333 64.995 73.4375 64.995 72.0625C64.995 69.9375 65.2242 68.0625 65.6825 66.4375C66.1408 64.8125 66.5992 63.875 67.0575 63.625C70.0158 64.0833 72.9117 64.3125 75.745 64.3125C77.495 64.3125 79.3283 64.2083 81.245 64C83.2033 63.75 84.245 63.625 84.37 63.625C85.8283 63.625 86.7658 64 87.1825 64.75C87.5992 65.4583 87.8075 67.125 87.8075 69.75ZM195.178 94.0625C195.178 95.9792 194.678 97.4583 193.678 98.5C192.719 99.5 190.886 100 188.178 100H145.053C145.219 103.792 145.886 107.062 147.053 109.812C148.219 112.562 149.761 114.729 151.678 116.312C153.594 117.854 155.698 119 157.99 119.75C160.282 120.458 162.782 120.812 165.49 120.812C169.282 120.812 173.157 120.146 177.115 118.812C181.073 117.479 184.657 115.604 187.865 113.188C190.24 115.979 191.428 118.729 191.428 121.438C191.428 123.229 190.24 125 187.865 126.75C185.49 128.458 182.282 129.875 178.24 131C174.198 132.125 169.99 132.688 165.615 132.688C162.032 132.688 158.615 132.333 155.365 131.625C152.157 130.917 148.99 129.688 145.865 127.938C142.782 126.146 140.115 123.896 137.865 121.188C135.615 118.479 133.803 115 132.428 110.75C131.053 106.5 130.365 101.688 130.365 96.3125C130.365 91.0625 131.365 86.25 133.365 81.875C135.365 77.5 138.011 73.9375 141.303 71.1875C144.594 68.3958 148.261 66.25 152.303 64.75C156.386 63.25 160.573 62.5 164.865 62.5C168.032 62.5 171.073 62.8958 173.99 63.6875C176.907 64.4792 179.657 65.7292 182.24 67.4375C184.823 69.1042 187.073 71.1667 188.99 73.625C190.907 76.0417 192.407 79 193.49 82.5C194.615 86 195.178 89.8542 195.178 94.0625ZM182.553 90.3125C182.178 84.5208 180.344 80.125 177.053 77.125C173.803 74.0833 169.907 72.5625 165.365 72.5625C160.532 72.5625 156.136 74.1875 152.178 77.4375C148.261 80.6458 146.011 84.9375 145.428 90.3125H182.553ZM272.36 68.125V113.938C272.36 115.021 272.381 115.792 272.423 116.25C272.464 116.708 272.568 117.229 272.735 117.812C272.943 118.354 273.256 118.729 273.673 118.938C274.131 119.104 274.735 119.271 275.485 119.438C276.235 119.562 277.235 119.625 278.485 119.625C280.36 119.625 281.548 119.854 282.048 120.312C282.589 120.771 282.86 121.708 282.86 123.125C282.86 125.208 282.61 127.062 282.11 128.688C281.652 130.271 281.214 131.208 280.798 131.5C277.756 131.167 274.943 131 272.36 131C270.652 131 268.86 131.083 266.985 131.25C265.152 131.417 264.027 131.5 263.61 131.5C261.943 131.5 260.923 131 260.548 130C260.214 129 260.048 126.333 260.048 122C257.131 125.375 253.61 128 249.485 129.875C245.402 131.75 241.235 132.688 236.985 132.688C233.902 132.688 231.006 132.167 228.298 131.125C225.631 130.125 223.214 128.625 221.048 126.625C218.881 124.625 217.173 121.938 215.923 118.562C214.673 115.188 214.048 111.333 214.048 107V81.9375C214.048 77.9792 213.006 75.9167 210.923 75.75C210.589 75.7083 210.11 75.6667 209.485 75.625C208.902 75.5833 208.423 75.5417 208.048 75.5C207.714 75.4583 207.298 75.4167 206.798 75.375C206.298 75.2917 205.902 75.2292 205.61 75.1875C205.318 75.1042 204.964 75.0208 204.548 74.9375C204.173 74.8125 203.881 74.6875 203.673 74.5625C203.464 74.4375 203.256 74.2917 203.048 74.125C202.839 73.9583 202.693 73.7708 202.61 73.5625C202.527 73.3125 202.485 73.0417 202.485 72.75C202.485 67.9167 203.173 64.875 204.548 63.625C208.464 64.0833 212.068 64.3125 215.36 64.3125C217.652 64.3125 219.985 64.2083 222.36 64C224.777 63.75 226.027 63.625 226.11 63.625C227.527 63.625 228.235 65.125 228.235 68.125V107.75C228.235 112.333 229.423 115.771 231.798 118.062C234.173 120.354 237.214 121.5 240.923 121.5C244.089 121.5 247.235 120.667 250.36 119C253.527 117.333 256.131 115.062 258.173 112.188V81.9375C258.173 77.9792 257.131 75.9167 255.048 75.75C254.714 75.7083 254.235 75.6667 253.61 75.625C253.027 75.5833 252.548 75.5417 252.173 75.5C251.839 75.4583 251.423 75.4167 250.923 75.375C250.423 75.2917 250.027 75.2292 249.735 75.1875C249.443 75.1042 249.089 75.0208 248.673 74.9375C248.298 74.8125 248.006 74.6875 247.798 74.5625C247.589 74.4375 247.381 74.2917 247.173 74.125C246.964 73.9583 246.818 73.7708 246.735 73.5625C246.652 73.3125 246.61 73.0417 246.61 72.75C246.61 67.875 247.298 64.8333 248.673 63.625C252.589 64.0833 256.193 64.3125 259.485 64.3125C262.235 64.3125 265.027 64.2083 267.86 64C270.735 63.75 272.214 63.625 272.298 63.625C272.339 63.625 272.36 65.125 272.36 68.125ZM370.918 131.5C366.876 131.167 363.23 131 359.98 131C357.855 131 355.543 131.083 353.043 131.25C350.543 131.417 348.897 131.5 348.105 131.5C346.688 131.5 345.98 129.917 345.98 126.75V89.3125C345.98 83.8958 345.105 79.9375 343.355 77.4375C341.605 74.8958 339.313 73.625 336.48 73.625C333.563 73.625 330.355 74.4583 326.855 76.125C323.397 77.75 320.147 79.8333 317.105 82.375V115.312C317.105 115.938 317.126 116.438 317.168 116.812C317.251 117.146 317.397 117.542 317.605 118C317.855 118.458 318.272 118.812 318.855 119.062C319.438 119.271 320.188 119.375 321.105 119.375C322.688 119.375 324.043 119.625 325.168 120.125C326.293 120.625 326.855 121.375 326.855 122.375C326.855 127.25 326.168 130.292 324.793 131.5C322.251 131.167 317.48 131 310.48 131C303.48 131 298.418 131.167 295.293 131.5C293.918 130.25 293.23 127.208 293.23 122.375C293.23 121.375 293.793 120.625 294.918 120.125C296.043 119.625 297.397 119.375 298.98 119.375C300.605 119.375 301.668 119.042 302.168 118.375C302.668 117.667 302.918 116.688 302.918 115.438V81.875C302.918 79.6667 302.272 78.1042 300.98 77.1875C299.73 76.2708 297.293 75.7292 293.668 75.5625C293.126 75.4375 292.772 75.1667 292.605 74.75C292.48 74.3333 292.418 73.4375 292.418 72.0625C292.418 69.9375 292.647 68.0625 293.105 66.4375C293.563 64.8125 294.022 63.875 294.48 63.625C297.23 64.0833 299.918 64.3125 302.543 64.3125C304.418 64.3125 306.397 64.2083 308.48 64C310.563 63.75 311.668 63.625 311.793 63.625C313.251 63.625 314.188 64 314.605 64.75C315.063 65.4583 315.293 67.125 315.293 69.75C315.293 70.0417 315.272 70.5833 315.23 71.375C315.23 72.125 315.23 72.7292 315.23 73.1875C318.813 70.0208 322.876 67.4583 327.418 65.5C331.959 63.5417 336.334 62.5625 340.543 62.5625C346.376 62.5625 351.105 64.625 354.73 68.75C358.355 72.875 360.168 79.3542 360.168 88.1875V115.062C360.168 117.771 361.209 119.208 363.293 119.375C363.709 119.417 364.251 119.458 364.918 119.5C365.626 119.542 366.168 119.583 366.543 119.625C366.959 119.667 367.459 119.729 368.043 119.812C368.626 119.854 369.084 119.917 369.418 120C369.751 120.042 370.126 120.125 370.543 120.25C371.001 120.333 371.355 120.438 371.605 120.562C371.855 120.688 372.084 120.833 372.293 121C372.543 121.167 372.709 121.375 372.793 121.625C372.918 121.833 372.98 122.083 372.98 122.375C372.98 127.208 372.293 130.25 370.918 131.5ZM435.35 102V85.6875C433.142 81.7292 430.225 78.6458 426.6 76.4375C422.975 74.2292 419.225 73.125 415.35 73.125C410.017 73.125 405.517 75.2292 401.85 79.4375C398.225 83.6042 396.413 89.6875 396.413 97.6875C396.413 105.354 398.371 111.333 402.288 115.625C406.204 119.917 410.85 122.062 416.225 122.062C418.558 122.062 420.85 121.646 423.1 120.812C425.35 119.938 427.392 118.688 429.225 117.062C431.058 115.438 432.538 113.333 433.663 110.75C434.788 108.125 435.35 105.208 435.35 102ZM449.538 46.75V115.312C449.538 115.896 449.579 116.396 449.663 116.812C449.746 117.188 449.913 117.604 450.163 118.062C450.454 118.479 450.913 118.812 451.538 119.062C452.163 119.312 452.975 119.458 453.975 119.5C457.892 119.667 459.85 120.542 459.85 122.125C459.85 127.125 459.142 130.25 457.725 131.5C455.433 131.167 452.954 131 450.288 131C446.538 131 442.871 131.167 439.288 131.5C436.663 130.292 435.35 127.396 435.35 122.812V122.25C433.1 125.583 429.913 128.167 425.788 130C421.663 131.792 417.413 132.688 413.038 132.688C409.038 132.688 405.204 131.938 401.538 130.438C397.871 128.938 394.538 126.792 391.538 124C388.579 121.167 386.204 117.479 384.413 112.938C382.621 108.396 381.725 103.312 381.725 97.6875C381.725 92.0625 382.663 86.9792 384.538 82.4375C386.413 77.8958 388.913 74.2292 392.038 71.4375C395.204 68.6042 398.725 66.4375 402.6 64.9375C406.475 63.4375 410.517 62.6667 414.725 62.625H415.1C423.308 62.625 430.058 65.6875 435.35 71.8125V55.4375C435.35 53.2292 434.704 51.6667 433.413 50.75C432.163 49.8333 429.725 49.2917 426.1 49.125C425.558 49 425.204 48.7292 425.038 48.3125C424.913 47.8958 424.85 47 424.85 45.625C424.85 43.5 425.079 41.625 425.538 40C425.996 38.375 426.454 37.4375 426.913 37.1875C430.371 37.6458 433.683 37.875 436.85 37.875C438.725 37.875 440.704 37.7708 442.788 37.5625C444.871 37.3125 445.975 37.1875 446.1 37.1875C447.558 37.1875 448.496 37.5625 448.913 38.3125C449.371 39.0208 449.6 40.6875 449.6 43.3125C449.6 43.6042 449.579 44.1458 449.538 44.9375C449.538 45.6875 449.538 46.2917 449.538 46.75ZM493.533 115.312C493.533 115.938 493.553 116.438 493.595 116.812C493.678 117.146 493.824 117.542 494.033 118C494.283 118.458 494.699 118.812 495.283 119.062C495.866 119.271 496.616 119.375 497.533 119.375C499.116 119.375 500.47 119.625 501.595 120.125C502.72 120.625 503.283 121.375 503.283 122.375C503.283 127.25 502.595 130.292 501.22 131.5C497.637 131.167 492.845 131 486.845 131C480.428 131 475.387 131.167 471.72 131.5C470.345 130.25 469.658 127.208 469.658 122.375C469.658 121.375 470.22 120.625 471.345 120.125C472.47 119.625 473.824 119.375 475.408 119.375C477.033 119.375 478.095 119.042 478.595 118.375C479.095 117.667 479.345 116.688 479.345 115.438V55.4375C479.345 53.2292 478.699 51.6667 477.408 50.75C476.158 49.8333 473.72 49.2917 470.095 49.125C469.553 49 469.199 48.7292 469.033 48.3125C468.908 47.8958 468.845 47 468.845 45.625C468.845 43.5 469.074 41.625 469.533 40C469.991 38.375 470.449 37.4375 470.908 37.1875C474.366 37.6458 477.678 37.875 480.845 37.875C482.72 37.875 484.699 37.7708 486.783 37.5625C488.866 37.3125 489.97 37.1875 490.095 37.1875C491.553 37.1875 492.491 37.5625 492.908 38.3125C493.366 39.0208 493.595 40.6875 493.595 43.3125C493.595 43.3958 493.595 43.5208 493.595 43.6875C493.553 49.5625 493.533 73.4375 493.533 115.312ZM527.215 53.1875C526.215 53.1875 525.194 53.1042 524.152 52.9375C523.111 52.7292 521.965 52.375 520.715 51.875C519.507 51.375 518.507 50.5833 517.715 49.5C516.965 48.4167 516.59 47.125 516.59 45.625C516.59 40.5 520.048 37.9375 526.965 37.9375C528.923 37.9375 530.569 38.1875 531.902 38.6875C533.277 39.1875 534.277 39.8542 534.902 40.6875C535.569 41.5208 536.027 42.3333 536.277 43.125C536.527 43.9167 536.652 44.7708 536.652 45.6875C536.652 47.5625 536.069 49.1042 534.902 50.3125C533.736 51.5208 532.486 52.3125 531.152 52.6875C529.861 53.0208 528.548 53.1875 527.215 53.1875ZM537.527 69.75V115.312C537.527 115.938 537.548 116.438 537.59 116.812C537.673 117.146 537.819 117.542 538.027 118C538.277 118.458 538.694 118.812 539.277 119.062C539.861 119.271 540.611 119.375 541.527 119.375C543.111 119.375 544.465 119.625 545.59 120.125C546.715 120.625 547.277 121.375 547.277 122.375C547.277 127.25 546.59 130.292 545.215 131.5C541.465 131.167 536.882 131 531.465 131C525.84 131 520.59 131.167 515.715 131.5C514.34 130.25 513.652 127.208 513.652 122.375C513.652 121.375 514.215 120.625 515.34 120.125C516.465 119.625 517.819 119.375 519.402 119.375C521.027 119.375 522.09 119.042 522.59 118.375C523.09 117.667 523.34 116.688 523.34 115.438V81.875C523.34 79.6667 522.694 78.1042 521.402 77.1875C520.152 76.2708 517.715 75.7292 514.09 75.5625C513.548 75.4375 513.194 75.1667 513.027 74.75C512.902 74.3333 512.84 73.4375 512.84 72.0625C512.84 69.9375 513.069 68.0625 513.527 66.4375C513.986 64.8125 514.444 63.875 514.902 63.625C518.111 64.0833 521.215 64.3125 524.215 64.3125C526.215 64.3125 528.319 64.2083 530.527 64C532.736 63.75 533.902 63.625 534.027 63.625C535.486 63.625 536.423 64 536.84 64.75C537.298 65.4583 537.527 67.125 537.527 69.75ZM616.648 79.25C616.648 81.7083 615.773 83.7917 614.023 85.5C612.314 87.2083 609.606 88.0625 605.898 88.0625C605.023 88.0625 604.481 87.875 604.273 87.5C604.106 87.0833 603.939 86.0208 603.773 84.3125L602.835 75.375C602.543 75.1667 602.127 74.9375 601.585 74.6875C601.085 74.3958 599.918 74.0208 598.085 73.5625C596.293 73.0625 594.398 72.8125 592.398 72.8125C586.064 72.8125 580.939 75.2708 577.023 80.1875C573.148 85.0625 571.21 90.875 571.21 97.625C571.21 104.917 573.106 110.604 576.898 114.688C580.689 118.771 586.168 120.812 593.335 120.812C596.668 120.812 600.293 120.104 604.21 118.688C608.168 117.271 611.398 115.458 613.898 113.25C616.273 116.042 617.46 118.708 617.46 121.25C617.46 123.333 616.231 125.271 613.773 127.062C611.314 128.854 608.148 130.229 604.273 131.188C600.439 132.188 596.439 132.688 592.273 132.688C587.439 132.688 582.877 131.938 578.585 130.438C574.335 128.896 570.564 126.688 567.273 123.812C563.981 120.896 561.377 117.146 559.46 112.562C557.543 107.938 556.585 102.729 556.585 96.9375C556.585 91.5625 557.585 86.6667 559.585 82.25C561.627 77.7917 564.314 74.1667 567.648 71.375C570.981 68.5417 574.71 66.375 578.835 64.875C583.002 63.3333 587.273 62.5625 591.648 62.5625C596.106 62.5625 599.981 63.0208 603.273 63.9375C606.606 64.8125 609.21 66.0417 611.085 67.625C613.002 69.2083 614.398 70.9792 615.273 72.9375C616.189 74.8542 616.648 76.9583 616.648 79.25ZM651.393 46.75V73.1875C654.351 70.0625 657.893 67.5 662.018 65.5C666.143 63.5 670.559 62.5 675.268 62.5C677.976 62.5 680.455 62.9583 682.705 63.875C684.997 64.7917 687.08 66.2083 688.955 68.125C690.872 70.0417 692.372 72.7083 693.455 76.125C694.538 79.5417 695.08 83.5625 695.08 88.1875V113.625C695.08 117.583 696.122 119.646 698.205 119.812C698.538 119.854 698.997 119.896 699.58 119.938C700.205 119.979 700.684 120.021 701.018 120.062C701.393 120.104 701.83 120.167 702.33 120.25C702.83 120.292 703.226 120.354 703.518 120.438C703.809 120.479 704.143 120.562 704.518 120.688C704.934 120.771 705.247 120.875 705.455 121C705.663 121.125 705.872 121.271 706.08 121.438C706.288 121.604 706.434 121.812 706.518 122.062C706.601 122.271 706.643 122.521 706.643 122.812C706.643 127.396 705.747 130.292 703.955 131.5C700.413 131.167 696.955 131 693.58 131C691.872 131 689.955 131.083 687.83 131.25C685.705 131.417 684.101 131.5 683.018 131.5C682.559 131.5 682.184 131.417 681.893 131.25C681.643 131.125 681.413 130.729 681.205 130.062C680.997 129.396 680.893 128.438 680.893 127.188V89.3125C680.893 83.8958 679.955 79.9375 678.08 77.4375C676.247 74.8958 673.809 73.625 670.768 73.625C667.851 73.625 664.643 74.5 661.143 76.25C657.684 78 654.434 80.25 651.393 83V115.312C651.393 115.938 651.413 116.438 651.455 116.812C651.538 117.146 651.684 117.542 651.893 118C652.143 118.458 652.559 118.812 653.143 119.062C653.726 119.271 654.476 119.375 655.393 119.375C656.976 119.375 658.33 119.625 659.455 120.125C660.58 120.625 661.143 121.375 661.143 122.375C661.143 127.25 660.455 130.292 659.08 131.5C655.163 131.167 650.351 131 644.643 131C638.601 131 633.58 131.167 629.58 131.5C628.205 130.25 627.518 127.208 627.518 122.375C627.518 121.375 628.08 120.625 629.205 120.125C630.33 119.625 631.684 119.375 633.268 119.375C634.893 119.375 635.955 119.042 636.455 118.375C636.955 117.667 637.205 116.688 637.205 115.438V55.4375C637.205 53.2292 636.559 51.6667 635.268 50.75C634.018 49.8333 631.58 49.2917 627.955 49.125C627.413 49 627.059 48.7292 626.893 48.3125C626.768 47.8958 626.705 47 626.705 45.625C626.705 43.5 626.934 41.625 627.393 40C627.851 38.375 628.309 37.4375 628.768 37.1875C632.226 37.6458 635.538 37.875 638.705 37.875C640.58 37.875 642.559 37.7708 644.643 37.5625C646.726 37.3125 647.83 37.1875 647.955 37.1875C649.413 37.1875 650.351 37.5625 650.768 38.3125C651.226 39.0208 651.455 40.6875 651.455 43.3125C651.455 43.6042 651.434 44.1458 651.393 44.9375C651.393 45.6875 651.393 46.2917 651.393 46.75ZM727.7 132.688C729.867 132.646 747.054 132.625 779.263 132.625C783.596 132.625 786.575 132.562 788.2 132.438C789.7 133.021 790.45 134.792 790.45 137.75C790.45 141.708 789.304 143.688 787.013 143.688C786.804 143.604 785.513 143.521 783.138 143.438C780.763 143.396 778.45 143.375 776.2 143.375L772.825 143.312H729.013C723.263 143.479 720.242 143.646 719.95 143.812C717.658 143.812 716.513 141.833 716.513 137.875C716.513 134.917 717.263 133.146 718.763 132.562C719.846 132.646 722.825 132.688 727.7 132.688ZM865.258 94.0625C865.258 95.9792 864.758 97.4583 863.758 98.5C862.799 99.5 860.966 100 858.258 100H815.133C815.299 103.792 815.966 107.062 817.133 109.812C818.299 112.562 819.841 114.729 821.758 116.312C823.674 117.854 825.778 119 828.07 119.75C830.362 120.458 832.862 120.812 835.57 120.812C839.362 120.812 843.237 120.146 847.195 118.812C851.153 117.479 854.737 115.604 857.945 113.188C860.32 115.979 861.508 118.729 861.508 121.438C861.508 123.229 860.32 125 857.945 126.75C855.57 128.458 852.362 129.875 848.32 131C844.278 132.125 840.07 132.688 835.695 132.688C832.112 132.688 828.695 132.333 825.445 131.625C822.237 130.917 819.07 129.688 815.945 127.938C812.862 126.146 810.195 123.896 807.945 121.188C805.695 118.479 803.883 115 802.508 110.75C801.133 106.5 800.445 101.688 800.445 96.3125C800.445 91.0625 801.445 86.25 803.445 81.875C805.445 77.5 808.091 73.9375 811.383 71.1875C814.674 68.3958 818.341 66.25 822.383 64.75C826.466 63.25 830.653 62.5 834.945 62.5C838.112 62.5 841.153 62.8958 844.07 63.6875C846.987 64.4792 849.737 65.7292 852.32 67.4375C854.903 69.1042 857.153 71.1667 859.07 73.625C860.987 76.0417 862.487 79 863.57 82.5C864.695 86 865.258 89.8542 865.258 94.0625ZM852.633 90.3125C852.258 84.5208 850.424 80.125 847.133 77.125C843.883 74.0833 839.987 72.5625 835.445 72.5625C830.612 72.5625 826.216 74.1875 822.258 77.4375C818.341 80.6458 816.091 84.9375 815.508 90.3125H852.633ZM928.378 101.938V85C927.044 81.6667 924.503 78.875 920.753 76.625C917.044 74.3333 912.815 73.1875 908.065 73.1875C903.023 73.1875 898.669 75.3542 895.003 79.6875C891.336 83.9792 889.503 89.9583 889.503 97.625C889.503 105.292 891.461 111.271 895.378 115.562C899.294 119.854 903.94 122 909.315 122C911.648 122 913.919 121.583 916.128 120.75C918.378 119.875 920.419 118.625 922.253 117C924.086 115.375 925.565 113.271 926.69 110.688C927.815 108.062 928.378 105.146 928.378 101.938ZM928.378 140.812V122.188C926.336 125.521 923.419 128.104 919.628 129.938C915.836 131.771 911.961 132.688 908.003 132.688C903.794 132.688 899.732 131.938 895.815 130.438C891.898 128.938 888.357 126.771 885.19 123.938C882.065 121.104 879.544 117.417 877.628 112.875C875.753 108.333 874.815 103.25 874.815 97.625C874.815 92 875.753 86.9167 877.628 82.375C879.503 77.8333 882.003 74.1667 885.128 71.375C888.294 68.5417 891.815 66.375 895.69 64.875C899.565 63.375 903.607 62.6042 907.815 62.5625H908.19C917.44 62.6458 925.69 66.125 932.94 73L939.815 67.0625C941.857 65.0625 944.023 64.0625 946.315 64.0625C947.982 64.0625 949.357 64.6042 950.44 65.6875C951.523 66.7708 952.065 68.125 952.065 69.75C952.065 72.0833 950.898 74.4167 948.565 76.75L942.565 81.9375V140.688C942.565 141.312 942.586 141.792 942.628 142.125C942.711 142.5 942.857 142.917 943.065 143.375C943.315 143.833 943.732 144.167 944.315 144.375C944.898 144.625 945.648 144.75 946.565 144.75C948.148 144.75 949.503 145 950.628 145.5C951.753 146 952.315 146.75 952.315 147.75C952.315 152.625 951.628 155.667 950.253 156.875C947.461 156.25 942.753 155.938 936.128 155.938C929.003 155.938 923.878 156.25 920.753 156.875C919.378 155.625 918.69 152.583 918.69 147.75C918.69 146.75 919.253 146 920.378 145.5C921.503 145 922.857 144.75 924.44 144.75C926.065 144.75 927.128 144.396 927.628 143.688C928.128 143.021 928.378 142.062 928.378 140.812ZM1011.99 75.25C1014.16 75.2083 1027.18 75.1875 1051.05 75.1875C1055.39 75.1875 1058.37 75.125 1059.99 75C1061.49 75.5833 1062.24 77.3542 1062.24 80.3125C1062.24 84.2708 1061.1 86.25 1058.8 86.25C1058.6 86.1667 1057.3 86.1042 1054.93 86.0625C1052.55 85.9792 1050.24 85.9167 1047.99 85.875H1044.62H1013.3C1007.55 86.0417 1004.53 86.2083 1004.24 86.375C1001.95 86.375 1000.8 84.3958 1000.8 80.4375C1000.8 77.4792 1001.55 75.7083 1003.05 75.125C1004.14 75.2083 1007.12 75.25 1011.99 75.25ZM1011.99 96.0625C1014.08 96.0208 1027.05 96 1050.93 96C1054.72 96 1057.7 95.9167 1059.87 95.75C1061.37 96.3333 1062.12 98.1042 1062.12 101.062C1062.12 105.021 1060.97 107 1058.68 107C1058.47 106.917 1057.18 106.854 1054.8 106.812C1052.47 106.729 1050.18 106.667 1047.93 106.625H1044.49H1013.3C1007.55 106.792 1004.53 106.958 1004.24 107.125C1001.95 107.125 1000.8 105.146 1000.8 101.188C1000.8 98.2292 1001.55 96.4583 1003.05 95.875C1004.68 96 1007.66 96.0625 1011.99 96.0625ZM1188.11 120.312C1185.52 120.312 1183.38 120.042 1181.67 119.5C1180 118.917 1178.71 118.208 1177.8 117.375C1176.92 116.542 1175.98 115.333 1174.98 113.75C1172.52 116.625 1169.44 118.875 1165.73 120.5C1162.07 122.083 1158.34 122.875 1154.55 122.875C1149.96 122.875 1146.17 121.667 1143.17 119.25C1140.17 116.792 1138.67 113.229 1138.67 108.562C1138.67 103.396 1141.36 99.5208 1146.73 96.9375C1150.61 95.1042 1157.5 93.4167 1167.42 91.875C1168.55 91.7083 1170.4 91.4375 1172.98 91.0625C1172.98 85.6042 1172.27 81.8333 1170.86 79.75C1169.48 77.6667 1166.84 76.625 1162.92 76.625C1160 76.625 1156.73 77.2917 1153.11 78.625C1149.48 79.9167 1146.59 81.6875 1144.42 83.9375C1141.8 81.7292 1140.48 79.5833 1140.48 77.5C1140.48 75.7083 1141.75 74.125 1144.3 72.75C1146.84 71.3333 1149.84 70.2917 1153.3 69.625C1156.75 68.9583 1160.21 68.625 1163.67 68.625C1170.25 68.625 1175.27 70.4583 1178.73 74.125C1182.23 77.75 1183.98 83.9167 1183.98 92.625V106.875C1183.98 108.208 1184.11 109.208 1184.36 109.875C1184.65 110.5 1184.96 110.896 1185.3 111.062C1185.63 111.188 1186.17 111.292 1186.92 111.375C1189.5 111.375 1191.67 110.833 1193.42 109.75C1195.17 108.667 1196.48 107.083 1197.36 105C1198.27 102.875 1198.9 100.583 1199.23 98.125C1199.61 95.6667 1199.8 92.75 1199.8 89.375C1199.8 84.1667 1198.77 79.4583 1196.73 75.25C1194.73 71 1192.05 67.5417 1188.67 64.875C1185.3 62.2083 1181.48 60.1667 1177.23 58.75C1172.98 57.2917 1168.55 56.5625 1163.92 56.5625C1155.34 56.5625 1147.9 58.3125 1141.61 61.8125C1135.36 65.3125 1130.65 70.0833 1127.48 76.125C1124.36 82.1667 1122.8 89.125 1122.8 97C1122.8 101.917 1123.57 106.542 1125.11 110.875C1126.65 115.167 1128.96 119.083 1132.05 122.625C1135.17 126.167 1139.38 128.979 1144.67 131.062C1149.96 133.146 1156.07 134.188 1162.98 134.188C1173.82 134.188 1184.13 131.854 1193.92 127.188C1195.25 128.396 1195.92 130.188 1195.92 132.562C1195.92 133.729 1195.05 134.979 1193.3 136.312C1191.59 137.646 1189.34 138.854 1186.55 139.938C1183.75 141.062 1180.36 142 1176.36 142.75C1172.36 143.5 1168.32 143.875 1164.23 143.875C1156.15 143.875 1148.77 142.667 1142.11 140.25C1135.44 137.833 1129.88 134.521 1125.42 130.312C1121 126.062 1117.57 121.083 1115.11 115.375C1112.69 109.625 1111.48 103.438 1111.48 96.8125C1111.48 91.8125 1112.17 86.9375 1113.55 82.1875C1114.92 77.4375 1117.05 72.9583 1119.92 68.75C1122.84 64.5417 1126.32 60.8542 1130.36 57.6875C1134.44 54.4792 1139.34 51.9583 1145.05 50.125C1150.8 48.25 1157.02 47.3125 1163.73 47.3125C1172.19 47.3125 1179.9 49 1186.86 52.375C1193.86 55.75 1199.44 60.625 1203.61 67C1207.82 73.375 1209.92 80.6667 1209.92 88.875C1209.92 93.5 1209.3 97.8125 1208.05 101.812C1206.84 105.771 1205.21 109.083 1203.17 111.75C1201.13 114.417 1198.8 116.521 1196.17 118.062C1193.59 119.562 1190.9 120.312 1188.11 120.312ZM1156.8 114.25C1159.84 114.25 1163.13 113.438 1166.67 111.812C1170.21 110.188 1172.34 108.708 1173.05 107.375V98.8125C1164.05 100.396 1157.96 101.833 1154.8 103.125C1151.63 104.375 1150.05 106.146 1150.05 108.438C1150.05 112.312 1152.3 114.25 1156.8 114.25ZM1251.23 140.688C1241.56 135.062 1234.14 127.312 1228.98 117.438C1223.81 107.562 1221.23 96.9583 1221.23 85.625C1221.23 74.375 1223.79 63.7292 1228.92 53.6875C1234.08 43.6042 1241.52 35.5208 1251.23 29.4375C1252.56 29.6042 1254.02 30.625 1255.6 32.5C1257.23 34.375 1258.08 35.875 1258.17 37C1251.04 42.1667 1245.58 49.0417 1241.79 57.625C1238.04 66.2083 1236.17 75.3542 1236.17 85.0625C1236.17 94.7708 1238.04 103.917 1241.79 112.5C1245.58 121.083 1251.04 127.958 1258.17 133.125C1258.08 134.25 1257.23 135.75 1255.6 137.625C1254.02 139.5 1252.56 140.521 1251.23 140.688ZM1289.6 94.5V113.312C1291.81 116.104 1294.68 118.271 1298.22 119.812C1301.81 121.354 1305.54 122.125 1309.41 122.125C1314.7 122.125 1319.1 120.042 1322.6 115.875C1326.14 111.708 1327.91 105.604 1327.91 97.5625C1327.91 89.8542 1325.99 83.875 1322.16 79.625C1318.37 75.3333 1313.81 73.1875 1308.47 73.1875C1303.47 73.1875 1299.08 75.0833 1295.29 78.875C1291.49 82.625 1289.6 87.8333 1289.6 94.5ZM1289.6 125.312V140.688C1289.6 141.312 1289.62 141.792 1289.66 142.125C1289.74 142.5 1289.89 142.917 1290.1 143.375C1290.35 143.833 1290.76 144.167 1291.35 144.375C1291.93 144.625 1292.68 144.75 1293.6 144.75C1295.18 144.75 1296.54 145 1297.66 145.5C1298.79 146 1299.35 146.75 1299.35 147.75C1299.35 152.625 1298.66 155.667 1297.29 156.875C1294.49 156.25 1289.79 155.938 1283.16 155.938C1276.04 155.938 1270.91 156.25 1267.79 156.875C1266.41 155.625 1265.72 152.583 1265.72 147.75C1265.72 146.75 1266.29 146 1267.41 145.5C1268.54 145 1269.89 144.75 1271.47 144.75C1273.1 144.75 1274.16 144.396 1274.66 143.688C1275.16 143.021 1275.41 142.062 1275.41 140.812V81.875C1275.41 79.6667 1274.76 78.1042 1273.47 77.1875C1272.22 76.2708 1269.79 75.7292 1266.16 75.5625C1265.62 75.4375 1265.26 75.1667 1265.1 74.75C1264.97 74.3333 1264.91 73.4375 1264.91 72.0625C1264.91 69.9375 1265.14 68.0625 1265.6 66.4375C1266.06 64.8125 1266.51 63.875 1266.97 63.625C1270.18 64.0833 1273.29 64.3125 1276.29 64.3125C1278.16 64.3125 1280.14 64.2083 1282.22 64C1284.31 63.75 1285.41 63.625 1285.54 63.625C1286.99 63.625 1287.93 64 1288.35 64.75C1288.81 65.4583 1289.04 67.125 1289.04 69.75V74.25C1291.2 70.5 1294.26 67.625 1298.22 65.625C1302.18 63.5833 1306.29 62.5625 1310.54 62.5625C1314.66 62.5625 1318.6 63.3125 1322.35 64.8125C1326.14 66.3125 1329.56 68.4792 1332.6 71.3125C1335.64 74.1042 1338.06 77.7708 1339.85 82.3125C1341.68 86.8542 1342.6 91.9375 1342.6 97.5625C1342.6 103.188 1341.68 108.292 1339.85 112.875C1338.01 117.417 1335.56 121.104 1332.47 123.938C1329.43 126.771 1325.99 128.938 1322.16 130.438C1318.33 131.938 1314.33 132.688 1310.16 132.688C1301.87 132.688 1295.01 130.229 1289.6 125.312ZM1398.28 122.5C1395.24 125.708 1391.38 128.208 1386.72 130C1382.09 131.792 1377.38 132.688 1372.59 132.688C1366.63 132.688 1361.72 131.104 1357.84 127.938C1353.97 124.771 1352.03 120.188 1352.03 114.188C1352.03 107.771 1355.13 102.938 1361.34 99.6875C1366.01 97.1875 1374.01 95.0208 1385.34 93.1875C1387.47 92.8125 1390.93 92.2708 1395.72 91.5625C1395.72 84.4792 1394.82 79.6042 1393.03 76.9375C1391.24 74.2708 1387.8 72.9375 1382.72 72.9375C1379.01 72.9375 1374.88 73.7708 1370.34 75.4375C1365.8 77.1042 1362.18 79.4167 1359.47 82.375C1356.09 79.5417 1354.41 76.7708 1354.41 74.0625C1354.41 71.7292 1356.01 69.6667 1359.22 67.875C1362.43 66.0417 1366.2 64.7083 1370.53 63.875C1374.91 63 1379.28 62.5625 1383.66 62.5625C1387.78 62.5625 1391.38 63.0833 1394.47 64.125C1397.59 65.125 1400.34 66.7917 1402.72 69.125C1405.09 71.4583 1406.88 74.6667 1408.09 78.75C1409.34 82.8333 1409.97 87.7917 1409.97 93.625V113.625C1409.97 115.333 1410.09 116.625 1410.34 117.5C1410.63 118.333 1410.95 118.854 1411.28 119.062C1411.61 119.229 1412.16 119.354 1412.91 119.438C1414.2 119.562 1415.16 119.688 1415.78 119.812C1416.41 119.896 1417.13 120.042 1417.97 120.25C1418.8 120.458 1419.38 120.729 1419.72 121.062C1420.09 121.396 1420.28 121.812 1420.28 122.312C1420.28 127.229 1419.59 130.292 1418.22 131.5C1416.22 131.167 1413.61 131 1410.41 131C1407.49 131 1404.78 131.146 1402.28 131.438C1401.99 131.229 1401.61 130.938 1401.16 130.562C1400.74 130.188 1400.16 129.229 1399.41 127.688C1398.66 126.146 1398.28 124.417 1398.28 122.5ZM1375.47 121.562C1379.26 121.562 1383.36 120.521 1387.78 118.438C1392.2 116.312 1394.86 114.396 1395.78 112.688V101.625C1384.41 103.667 1376.72 105.5 1372.72 107.125C1368.76 108.75 1366.78 111.042 1366.78 114C1366.78 119.042 1369.68 121.562 1375.47 121.562ZM1452.71 69.75V73.8125C1454.59 70.8125 1457.38 68.1875 1461.09 65.9375C1464.8 63.6875 1468.34 62.5625 1471.71 62.5625C1473.92 62.5625 1476.03 62.9375 1478.03 63.6875C1480.03 64.3958 1481.75 65.6875 1483.21 67.5625C1484.71 69.4375 1485.46 71.7292 1485.46 74.4375C1485.46 81.8542 1481.53 85.5625 1473.65 85.5625C1473.48 85.5625 1473.32 85.5417 1473.15 85.5C1472.98 85.4583 1472.84 85.3958 1472.71 85.3125C1472.63 85.2292 1472.55 85.1458 1472.46 85.0625C1472.38 84.9792 1472.3 84.8542 1472.21 84.6875C1472.17 84.5208 1472.13 84.375 1472.09 84.25C1472.05 84.125 1472 83.9375 1471.96 83.6875C1471.92 83.3958 1471.88 83.1667 1471.84 83C1471.84 82.8333 1471.82 82.6042 1471.78 82.3125C1471.78 81.9792 1471.75 81.7083 1471.71 81.5L1470.96 75C1469.84 74.4583 1468.61 74.1875 1467.28 74.1875C1464.86 74.1875 1462.42 75.0833 1459.96 76.875C1457.55 78.625 1455.75 80.6667 1454.59 83V114.625C1454.59 115.25 1454.61 115.75 1454.65 116.125C1454.73 116.458 1454.88 116.854 1455.09 117.312C1455.34 117.771 1455.75 118.125 1456.34 118.375C1456.92 118.583 1457.67 118.688 1458.59 118.688C1460.17 118.688 1461.53 118.938 1462.65 119.438C1463.78 119.938 1464.34 120.688 1464.34 121.688C1464.34 123.688 1464 125.667 1463.34 127.625C1462.67 129.583 1461.69 130.875 1460.4 131.5C1457.48 131.167 1453.21 131 1447.59 131C1441.96 131 1437.65 131.167 1434.65 131.5C1433.28 130.875 1432.28 129.604 1431.65 127.688C1431.03 125.729 1430.71 123.729 1430.71 121.688C1430.71 120.688 1431.28 119.938 1432.4 119.438C1433.53 118.938 1434.88 118.688 1436.46 118.688C1438.09 118.688 1439.15 118.354 1439.65 117.688C1440.15 116.979 1440.4 116 1440.4 114.75V81.875C1440.4 79.6667 1439.75 78.1042 1438.46 77.1875C1437.21 76.2708 1434.78 75.7292 1431.15 75.5625C1430.61 75.4375 1430.25 75.1667 1430.09 74.75C1429.96 74.3333 1429.9 73.4375 1429.9 72.0625C1429.9 69.9375 1430.13 68.0625 1430.59 66.4375C1431.05 64.8125 1431.5 63.875 1431.96 63.625C1434.92 64.0833 1437.82 64.3125 1440.65 64.3125C1442.4 64.3125 1444.23 64.2083 1446.15 64C1448.11 63.75 1449.15 63.625 1449.28 63.625C1450.73 63.625 1451.67 64 1452.09 64.75C1452.5 65.4583 1452.71 67.125 1452.71 69.75ZM1541.4 122.5C1538.35 125.708 1534.5 128.208 1529.83 130C1525.21 131.792 1520.5 132.688 1515.71 132.688C1509.75 132.688 1504.83 131.104 1500.96 127.938C1497.08 124.771 1495.15 120.188 1495.15 114.188C1495.15 107.771 1498.25 102.938 1504.46 99.6875C1509.12 97.1875 1517.12 95.0208 1528.46 93.1875C1530.58 92.8125 1534.04 92.2708 1538.83 91.5625C1538.83 84.4792 1537.94 79.6042 1536.15 76.9375C1534.35 74.2708 1530.92 72.9375 1525.83 72.9375C1522.12 72.9375 1518 73.7708 1513.46 75.4375C1508.92 77.1042 1505.29 79.4167 1502.58 82.375C1499.21 79.5417 1497.52 76.7708 1497.52 74.0625C1497.52 71.7292 1499.12 69.6667 1502.33 67.875C1505.54 66.0417 1509.31 64.7083 1513.65 63.875C1518.02 63 1522.4 62.5625 1526.77 62.5625C1530.9 62.5625 1534.5 63.0833 1537.58 64.125C1540.71 65.125 1543.46 66.7917 1545.83 69.125C1548.21 71.4583 1550 74.6667 1551.21 78.75C1552.46 82.8333 1553.08 87.7917 1553.08 93.625V113.625C1553.08 115.333 1553.21 116.625 1553.46 117.5C1553.75 118.333 1554.06 118.854 1554.4 119.062C1554.73 119.229 1555.27 119.354 1556.02 119.438C1557.31 119.562 1558.27 119.688 1558.9 119.812C1559.52 119.896 1560.25 120.042 1561.08 120.25C1561.92 120.458 1562.5 120.729 1562.83 121.062C1563.21 121.396 1563.4 121.812 1563.4 122.312C1563.4 127.229 1562.71 130.292 1561.33 131.5C1559.33 131.167 1556.73 131 1553.52 131C1550.6 131 1547.9 131.146 1545.4 131.438C1545.1 131.229 1544.73 130.938 1544.27 130.562C1543.85 130.188 1543.27 129.229 1542.52 127.688C1541.77 126.146 1541.4 124.417 1541.4 122.5ZM1518.58 121.562C1522.37 121.562 1526.48 120.521 1530.9 118.438C1535.31 116.312 1537.98 114.396 1538.9 112.688V101.625C1527.52 103.667 1519.83 105.5 1515.83 107.125C1511.87 108.75 1509.9 111.042 1509.9 114C1509.9 119.042 1512.79 121.562 1518.58 121.562ZM1597.08 69.75V73.1875C1600.08 70.0625 1603.66 67.5208 1607.83 65.5625C1612.04 63.5625 1616.18 62.5625 1620.27 62.5625C1623.97 62.5625 1627.33 63.4792 1630.33 65.3125C1633.37 67.1458 1635.81 69.9792 1637.64 73.8125C1641.35 70.4792 1645.49 67.7917 1650.08 65.75C1654.7 63.6667 1659.12 62.625 1663.33 62.625C1668.99 62.625 1673.6 64.6875 1677.14 68.8125C1680.68 72.9375 1682.45 79.3958 1682.45 88.1875V115C1682.45 117.708 1683.52 119.146 1685.64 119.312C1686.06 119.354 1686.62 119.396 1687.33 119.438C1688.08 119.479 1688.66 119.521 1689.08 119.562C1689.49 119.604 1690.02 119.667 1690.64 119.75C1691.27 119.792 1691.77 119.854 1692.14 119.938C1692.52 119.979 1692.93 120.062 1693.39 120.188C1693.85 120.271 1694.2 120.375 1694.45 120.5C1694.74 120.625 1695.02 120.771 1695.27 120.938C1695.52 121.104 1695.68 121.312 1695.77 121.562C1695.89 121.771 1695.95 122.021 1695.95 122.312C1695.95 127.188 1695.27 130.25 1693.89 131.5C1689.02 131.167 1684.81 131 1681.27 131C1679.22 131 1677.12 131.083 1674.95 131.25C1672.79 131.417 1671.29 131.5 1670.45 131.5C1668.99 131.5 1668.27 129.896 1668.27 126.688V89.3125C1668.27 83.8958 1667.39 79.9375 1665.64 77.4375C1663.89 74.8958 1661.6 73.625 1658.77 73.625C1655.93 73.625 1652.81 74.4792 1649.39 76.1875C1645.97 77.8542 1642.77 80.0208 1639.77 82.6875C1639.97 84.5625 1640.08 86.3958 1640.08 88.1875V115C1640.08 117.708 1641.12 119.146 1643.2 119.312C1643.62 119.354 1644.16 119.396 1644.83 119.438C1645.54 119.479 1646.08 119.521 1646.45 119.562C1646.87 119.604 1647.37 119.667 1647.95 119.75C1648.54 119.792 1648.99 119.854 1649.33 119.938C1649.66 119.979 1650.04 120.062 1650.45 120.188C1650.91 120.271 1651.27 120.375 1651.52 120.5C1651.77 120.625 1651.99 120.771 1652.2 120.938C1652.45 121.104 1652.62 121.312 1652.7 121.562C1652.83 121.771 1652.89 122.021 1652.89 122.312C1652.89 127.188 1652.2 130.25 1650.83 131.5C1646.83 131.167 1643.16 131 1639.83 131C1637.74 131 1635.45 131.083 1632.95 131.25C1630.45 131.417 1628.81 131.5 1628.02 131.5C1626.6 131.5 1625.89 129.896 1625.89 126.688V89.3125C1625.89 83.8958 1625.02 79.9375 1623.27 77.4375C1621.52 74.8958 1619.22 73.625 1616.39 73.625C1613.56 73.625 1610.45 74.5 1607.08 76.25C1603.7 78 1600.56 80.25 1597.64 83V115.312C1597.64 115.896 1597.68 116.396 1597.77 116.812C1597.85 117.188 1598.02 117.604 1598.27 118.062C1598.52 118.479 1598.93 118.812 1599.52 119.062C1600.14 119.271 1600.91 119.375 1601.83 119.375C1603.41 119.375 1604.77 119.625 1605.89 120.125C1607.02 120.625 1607.58 121.375 1607.58 122.375C1607.58 127.25 1606.89 130.292 1605.52 131.5C1601.43 131.167 1596.39 131 1590.39 131C1583.93 131 1579.14 131.167 1576.02 131.5C1574.64 130.25 1573.95 127.208 1573.95 122.375C1573.95 121.375 1574.52 120.625 1575.64 120.125C1576.77 119.625 1578.12 119.375 1579.7 119.375C1581.16 119.375 1582.14 119.083 1582.64 118.5C1583.18 117.917 1583.45 116.896 1583.45 115.438V81.875C1583.45 79.6667 1582.81 78.1042 1581.52 77.1875C1580.27 76.2708 1577.83 75.7292 1574.2 75.5625C1573.66 75.4375 1573.31 75.1667 1573.14 74.75C1573.02 74.3333 1572.95 73.4375 1572.95 72.0625C1572.95 69.9375 1573.18 68.0625 1573.64 66.4375C1574.1 64.8125 1574.56 63.875 1575.02 63.625C1578.22 64.0833 1581.33 64.3125 1584.33 64.3125C1586.2 64.3125 1588.18 64.2083 1590.27 64C1592.35 63.75 1593.45 63.625 1593.58 63.625C1595.04 63.625 1595.97 64 1596.39 64.75C1596.85 65.4583 1597.08 67.125 1597.08 69.75ZM1761.76 114.438C1761.76 118.646 1760.47 122.146 1757.89 124.938C1755.34 127.688 1751.97 129.667 1747.76 130.875C1743.55 132.083 1738.57 132.688 1732.82 132.688C1723.99 132.688 1717.07 131.417 1712.07 128.875C1707.11 126.333 1704.64 122.438 1704.64 117.188C1704.64 111.229 1708.28 108.25 1715.57 108.25C1716.74 108.25 1717.51 108.479 1717.89 108.938C1718.26 109.396 1718.45 110.271 1718.45 111.562V120.062C1719.99 120.896 1722.26 121.542 1725.26 122C1728.3 122.458 1731.36 122.688 1734.45 122.688C1738.11 122.688 1741.14 121.938 1743.51 120.438C1745.93 118.896 1747.14 116.792 1747.14 114.125C1747.14 112.25 1746.53 110.583 1745.32 109.125C1744.11 107.625 1742.53 106.417 1740.57 105.5C1738.61 104.583 1736.36 103.667 1733.82 102.75C1731.32 101.792 1728.76 100.917 1726.14 100.125C1723.55 99.3333 1720.99 98.3333 1718.45 97.125C1715.95 95.9167 1713.72 94.6042 1711.76 93.1875C1709.8 91.7708 1708.22 89.9167 1707.01 87.625C1705.8 85.3333 1705.2 82.75 1705.2 79.875C1705.2 76.1667 1706.57 72.9583 1709.32 70.25C1712.07 67.5417 1715.43 65.5833 1719.39 64.375C1723.39 63.1667 1727.66 62.5625 1732.2 62.5625C1750.86 62.5625 1760.2 67.9792 1760.2 78.8125C1760.2 79.4792 1760.07 80.1875 1759.82 80.9375C1759.61 81.6875 1759.18 82.5625 1758.51 83.5625C1757.89 84.5625 1756.8 85.3958 1755.26 86.0625C1753.76 86.6875 1751.91 87 1749.7 87C1749.28 87 1748.93 86.9583 1748.64 86.875C1748.39 86.7917 1748.18 86.7083 1748.01 86.625C1747.89 86.5 1747.76 86.3125 1747.64 86.0625C1747.55 85.7708 1747.49 85.5625 1747.45 85.4375C1747.45 85.3125 1747.41 85.0417 1747.32 84.625C1747.28 84.1667 1747.26 83.8542 1747.26 83.6875L1746.39 74.9375C1745.8 74.3542 1743.99 73.7083 1740.95 73C1737.95 72.2917 1735.36 71.9375 1733.2 71.9375C1728.95 71.9375 1725.78 72.7292 1723.7 74.3125C1721.66 75.8958 1720.64 77.8958 1720.64 80.3125C1720.64 82.0625 1721.39 83.6042 1722.89 84.9375C1724.43 86.2708 1726.41 87.4167 1728.82 88.375C1731.24 89.2917 1733.91 90.2083 1736.82 91.125C1739.74 92.0417 1742.66 93.1458 1745.57 94.4375C1748.49 95.6875 1751.16 97.125 1753.57 98.75C1755.99 100.375 1757.95 102.542 1759.45 105.25C1760.99 107.917 1761.76 110.979 1761.76 114.438ZM1778.69 142C1778.69 141.333 1779.61 140 1781.44 138C1783.32 136.042 1784.26 134.896 1784.26 134.562C1784.26 133.979 1783.88 133.479 1783.13 133.062C1782.38 132.646 1781.46 132.25 1780.38 131.875C1779.3 131.5 1778.19 131.021 1777.07 130.438C1775.98 129.854 1775.07 128.938 1774.32 127.688C1773.57 126.396 1773.19 124.833 1773.19 123C1773.19 119.833 1774.28 117.25 1776.44 115.25C1778.65 113.25 1781.48 112.25 1784.94 112.25C1788.28 112.25 1791.09 113.354 1793.38 115.562C1795.71 117.729 1796.88 120.396 1796.88 123.562C1796.88 126.688 1796.17 129.812 1794.76 132.938C1793.34 136.104 1791.42 138.729 1789.01 140.812C1786.63 142.896 1784.19 143.938 1781.69 143.938C1779.69 143.938 1778.69 143.292 1778.69 142ZM1904.68 79.25C1904.68 81.7083 1903.81 83.7917 1902.06 85.5C1900.35 87.2083 1897.64 88.0625 1893.93 88.0625C1893.06 88.0625 1892.52 87.875 1892.31 87.5C1892.14 87.0833 1891.97 86.0208 1891.81 84.3125L1890.87 75.375C1890.58 75.1667 1890.16 74.9375 1889.62 74.6875C1889.12 74.3958 1887.95 74.0208 1886.12 73.5625C1884.33 73.0625 1882.43 72.8125 1880.43 72.8125C1874.1 72.8125 1868.97 75.2708 1865.06 80.1875C1861.18 85.0625 1859.24 90.875 1859.24 97.625C1859.24 104.917 1861.14 110.604 1864.93 114.688C1868.72 118.771 1874.2 120.812 1881.37 120.812C1884.7 120.812 1888.33 120.104 1892.24 118.688C1896.2 117.271 1899.43 115.458 1901.93 113.25C1904.31 116.042 1905.49 118.708 1905.49 121.25C1905.49 123.333 1904.27 125.271 1901.81 127.062C1899.35 128.854 1896.18 130.229 1892.31 131.188C1888.47 132.188 1884.47 132.688 1880.31 132.688C1875.47 132.688 1870.91 131.938 1866.62 130.438C1862.37 128.896 1858.6 126.688 1855.31 123.812C1852.02 120.896 1849.41 117.146 1847.49 112.562C1845.58 107.938 1844.62 102.729 1844.62 96.9375C1844.62 91.5625 1845.62 86.6667 1847.62 82.25C1849.66 77.7917 1852.35 74.1667 1855.68 71.375C1859.02 68.5417 1862.74 66.375 1866.87 64.875C1871.04 63.3333 1875.31 62.5625 1879.68 62.5625C1884.14 62.5625 1888.02 63.0208 1891.31 63.9375C1894.64 64.8125 1897.24 66.0417 1899.12 67.625C1901.04 69.2083 1902.43 70.9792 1903.31 72.9375C1904.22 74.8542 1904.68 76.9583 1904.68 79.25ZM1921.3 140.688C1919.97 140.521 1918.49 139.5 1916.86 137.625C1915.28 135.75 1914.45 134.25 1914.36 133.125C1921.49 127.958 1926.93 121.083 1930.68 112.5C1934.47 103.917 1936.36 94.7708 1936.36 85.0625C1936.36 75.3542 1934.47 66.2083 1930.68 57.625C1926.93 49.0417 1921.49 42.1667 1914.36 37C1914.45 35.875 1915.28 34.375 1916.86 32.5C1918.49 30.625 1919.97 29.6042 1921.3 29.4375C1931.01 35.5208 1938.43 43.6042 1943.55 53.6875C1948.72 63.7292 1951.3 74.375 1951.3 85.625C1951.3 96.9583 1948.72 107.562 1943.55 117.438C1938.39 127.312 1930.97 135.062 1921.3 140.688ZM2020.92 94.5V113.312C2023.13 116.104 2026 118.271 2029.54 119.812C2033.13 121.354 2036.85 122.125 2040.73 122.125C2046.02 122.125 2050.42 120.042 2053.92 115.875C2057.46 111.708 2059.23 105.604 2059.23 97.5625C2059.23 89.8542 2057.31 83.875 2053.48 79.625C2049.69 75.3333 2045.13 73.1875 2039.79 73.1875C2034.79 73.1875 2030.4 75.0833 2026.6 78.875C2022.81 82.625 2020.92 87.8333 2020.92 94.5ZM2020.92 125.312V140.688C2020.92 141.312 2020.94 141.792 2020.98 142.125C2021.06 142.5 2021.21 142.917 2021.42 143.375C2021.67 143.833 2022.08 144.167 2022.67 144.375C2023.25 144.625 2024 144.75 2024.92 144.75C2026.5 144.75 2027.85 145 2028.98 145.5C2030.1 146 2030.67 146.75 2030.67 147.75C2030.67 152.625 2029.98 155.667 2028.6 156.875C2025.81 156.25 2021.1 155.938 2014.48 155.938C2007.35 155.938 2002.23 156.25 1999.1 156.875C1997.73 155.625 1997.04 152.583 1997.04 147.75C1997.04 146.75 1997.6 146 1998.73 145.5C1999.85 145 2001.21 144.75 2002.79 144.75C2004.42 144.75 2005.48 144.396 2005.98 143.688C2006.48 143.021 2006.73 142.062 2006.73 140.812V81.875C2006.73 79.6667 2006.08 78.1042 2004.79 77.1875C2003.54 76.2708 2001.1 75.7292 1997.48 75.5625C1996.94 75.4375 1996.58 75.1667 1996.42 74.75C1996.29 74.3333 1996.23 73.4375 1996.23 72.0625C1996.23 69.9375 1996.46 68.0625 1996.92 66.4375C1997.38 64.8125 1997.83 63.875 1998.29 63.625C2001.5 64.0833 2004.6 64.3125 2007.6 64.3125C2009.48 64.3125 2011.46 64.2083 2013.54 64C2015.63 63.75 2016.73 63.625 2016.85 63.625C2018.31 63.625 2019.25 64 2019.67 64.75C2020.13 65.4583 2020.35 67.125 2020.35 69.75V74.25C2022.52 70.5 2025.58 67.625 2029.54 65.625C2033.5 63.5833 2037.6 62.5625 2041.85 62.5625C2045.98 62.5625 2049.92 63.3125 2053.67 64.8125C2057.46 66.3125 2060.88 68.4792 2063.92 71.3125C2066.96 74.1042 2069.38 77.7708 2071.17 82.3125C2073 86.8542 2073.92 91.9375 2073.92 97.5625C2073.92 103.188 2073 108.292 2071.17 112.875C2069.33 117.417 2066.88 121.104 2063.79 123.938C2060.75 126.771 2057.31 128.938 2053.48 130.438C2049.65 131.938 2045.65 132.688 2041.48 132.688C2033.19 132.688 2026.33 130.229 2020.92 125.312ZM2129.6 122.5C2126.56 125.708 2122.7 128.208 2118.04 130C2113.41 131.792 2108.7 132.688 2103.91 132.688C2097.95 132.688 2093.04 131.104 2089.16 127.938C2085.29 124.771 2083.35 120.188 2083.35 114.188C2083.35 107.771 2086.45 102.938 2092.66 99.6875C2097.33 97.1875 2105.33 95.0208 2116.66 93.1875C2118.79 92.8125 2122.25 92.2708 2127.04 91.5625C2127.04 84.4792 2126.14 79.6042 2124.35 76.9375C2122.56 74.2708 2119.12 72.9375 2114.04 72.9375C2110.33 72.9375 2106.2 73.7708 2101.66 75.4375C2097.12 77.1042 2093.5 79.4167 2090.79 82.375C2087.41 79.5417 2085.73 76.7708 2085.73 74.0625C2085.73 71.7292 2087.33 69.6667 2090.54 67.875C2093.75 66.0417 2097.52 64.7083 2101.85 63.875C2106.23 63 2110.6 62.5625 2114.98 62.5625C2119.1 62.5625 2122.7 63.0833 2125.79 64.125C2128.91 65.125 2131.66 66.7917 2134.04 69.125C2136.41 71.4583 2138.2 74.6667 2139.41 78.75C2140.66 82.8333 2141.29 87.7917 2141.29 93.625V113.625C2141.29 115.333 2141.41 116.625 2141.66 117.5C2141.95 118.333 2142.27 118.854 2142.6 119.062C2142.93 119.229 2143.48 119.354 2144.23 119.438C2145.52 119.562 2146.48 119.688 2147.1 119.812C2147.73 119.896 2148.45 120.042 2149.29 120.25C2150.12 120.458 2150.7 120.729 2151.04 121.062C2151.41 121.396 2151.6 121.812 2151.6 122.312C2151.6 127.229 2150.91 130.292 2149.54 131.5C2147.54 131.167 2144.93 131 2141.73 131C2138.81 131 2136.1 131.146 2133.6 131.438C2133.31 131.229 2132.93 130.938 2132.48 130.562C2132.06 130.188 2131.48 129.229 2130.73 127.688C2129.98 126.146 2129.6 124.417 2129.6 122.5ZM2106.79 121.562C2110.58 121.562 2114.68 120.521 2119.1 118.438C2123.52 116.312 2126.18 114.396 2127.1 112.688V101.625C2115.73 103.667 2108.04 105.5 2104.04 107.125C2100.08 108.75 2098.1 111.042 2098.1 114C2098.1 119.042 2101 121.562 2106.79 121.562ZM2184.03 69.75V73.8125C2185.91 70.8125 2188.7 68.1875 2192.41 65.9375C2196.12 63.6875 2199.66 62.5625 2203.03 62.5625C2205.24 62.5625 2207.34 62.9375 2209.34 63.6875C2211.34 64.3958 2213.07 65.6875 2214.53 67.5625C2216.03 69.4375 2216.78 71.7292 2216.78 74.4375C2216.78 81.8542 2212.84 85.5625 2204.97 85.5625C2204.8 85.5625 2204.64 85.5417 2204.47 85.5C2204.3 85.4583 2204.16 85.3958 2204.03 85.3125C2203.95 85.2292 2203.87 85.1458 2203.78 85.0625C2203.7 84.9792 2203.62 84.8542 2203.53 84.6875C2203.49 84.5208 2203.45 84.375 2203.41 84.25C2203.37 84.125 2203.32 83.9375 2203.28 83.6875C2203.24 83.3958 2203.2 83.1667 2203.16 83C2203.16 82.8333 2203.14 82.6042 2203.09 82.3125C2203.09 81.9792 2203.07 81.7083 2203.03 81.5L2202.28 75C2201.16 74.4583 2199.93 74.1875 2198.59 74.1875C2196.18 74.1875 2193.74 75.0833 2191.28 76.875C2188.87 78.625 2187.07 80.6667 2185.91 83V114.625C2185.91 115.25 2185.93 115.75 2185.97 116.125C2186.05 116.458 2186.2 116.854 2186.41 117.312C2186.66 117.771 2187.07 118.125 2187.66 118.375C2188.24 118.583 2188.99 118.688 2189.91 118.688C2191.49 118.688 2192.84 118.938 2193.97 119.438C2195.09 119.938 2195.66 120.688 2195.66 121.688C2195.66 123.688 2195.32 125.667 2194.66 127.625C2193.99 129.583 2193.01 130.875 2191.72 131.5C2188.8 131.167 2184.53 131 2178.91 131C2173.28 131 2168.97 131.167 2165.97 131.5C2164.59 130.875 2163.59 129.604 2162.97 127.688C2162.34 125.729 2162.03 123.729 2162.03 121.688C2162.03 120.688 2162.59 119.938 2163.72 119.438C2164.84 118.938 2166.2 118.688 2167.78 118.688C2169.41 118.688 2170.47 118.354 2170.97 117.688C2171.47 116.979 2171.72 116 2171.72 114.75V81.875C2171.72 79.6667 2171.07 78.1042 2169.78 77.1875C2168.53 76.2708 2166.09 75.7292 2162.47 75.5625C2161.93 75.4375 2161.57 75.1667 2161.41 74.75C2161.28 74.3333 2161.22 73.4375 2161.22 72.0625C2161.22 69.9375 2161.45 68.0625 2161.91 66.4375C2162.37 64.8125 2162.82 63.875 2163.28 63.625C2166.24 64.0833 2169.14 64.3125 2171.97 64.3125C2173.72 64.3125 2175.55 64.2083 2177.47 64C2179.43 63.75 2180.47 63.625 2180.59 63.625C2182.05 63.625 2182.99 64 2183.41 64.75C2183.82 65.4583 2184.03 67.125 2184.03 69.75ZM2272.72 122.5C2269.67 125.708 2265.82 128.208 2261.15 130C2256.53 131.792 2251.82 132.688 2247.03 132.688C2241.07 132.688 2236.15 131.104 2232.28 127.938C2228.4 124.771 2226.47 120.188 2226.47 114.188C2226.47 107.771 2229.57 102.938 2235.78 99.6875C2240.44 97.1875 2248.44 95.0208 2259.78 93.1875C2261.9 92.8125 2265.36 92.2708 2270.15 91.5625C2270.15 84.4792 2269.26 79.6042 2267.47 76.9375C2265.67 74.2708 2262.24 72.9375 2257.15 72.9375C2253.44 72.9375 2249.32 73.7708 2244.78 75.4375C2240.24 77.1042 2236.61 79.4167 2233.9 82.375C2230.53 79.5417 2228.84 76.7708 2228.84 74.0625C2228.84 71.7292 2230.44 69.6667 2233.65 67.875C2236.86 66.0417 2240.63 64.7083 2244.97 63.875C2249.34 63 2253.72 62.5625 2258.09 62.5625C2262.22 62.5625 2265.82 63.0833 2268.9 64.125C2272.03 65.125 2274.78 66.7917 2277.15 69.125C2279.53 71.4583 2281.32 74.6667 2282.53 78.75C2283.78 82.8333 2284.4 87.7917 2284.4 93.625V113.625C2284.4 115.333 2284.53 116.625 2284.78 117.5C2285.07 118.333 2285.38 118.854 2285.72 119.062C2286.05 119.229 2286.59 119.354 2287.34 119.438C2288.63 119.562 2289.59 119.688 2290.22 119.812C2290.84 119.896 2291.57 120.042 2292.4 120.25C2293.24 120.458 2293.82 120.729 2294.15 121.062C2294.53 121.396 2294.72 121.812 2294.72 122.312C2294.72 127.229 2294.03 130.292 2292.65 131.5C2290.65 131.167 2288.05 131 2284.84 131C2281.92 131 2279.22 131.146 2276.72 131.438C2276.42 131.229 2276.05 130.938 2275.59 130.562C2275.17 130.188 2274.59 129.229 2273.84 127.688C2273.09 126.146 2272.72 124.417 2272.72 122.5ZM2249.9 121.562C2253.69 121.562 2257.8 120.521 2262.22 118.438C2266.63 116.312 2269.3 114.396 2270.22 112.688V101.625C2258.84 103.667 2251.15 105.5 2247.15 107.125C2243.19 108.75 2241.22 111.042 2241.22 114C2241.22 119.042 2244.11 121.562 2249.9 121.562ZM2328.4 69.75V73.1875C2331.4 70.0625 2334.98 67.5208 2339.15 65.5625C2343.36 63.5625 2347.5 62.5625 2351.58 62.5625C2355.29 62.5625 2358.65 63.4792 2361.65 65.3125C2364.69 67.1458 2367.13 69.9792 2368.96 73.8125C2372.67 70.4792 2376.81 67.7917 2381.4 65.75C2386.02 63.6667 2390.44 62.625 2394.65 62.625C2400.31 62.625 2404.92 64.6875 2408.46 68.8125C2412 72.9375 2413.77 79.3958 2413.77 88.1875V115C2413.77 117.708 2414.83 119.146 2416.96 119.312C2417.38 119.354 2417.94 119.396 2418.65 119.438C2419.4 119.479 2419.98 119.521 2420.4 119.562C2420.81 119.604 2421.33 119.667 2421.96 119.75C2422.58 119.792 2423.08 119.854 2423.46 119.938C2423.83 119.979 2424.25 120.062 2424.71 120.188C2425.17 120.271 2425.52 120.375 2425.77 120.5C2426.06 120.625 2426.33 120.771 2426.58 120.938C2426.83 121.104 2427 121.312 2427.08 121.562C2427.21 121.771 2427.27 122.021 2427.27 122.312C2427.27 127.188 2426.58 130.25 2425.21 131.5C2420.33 131.167 2416.13 131 2412.58 131C2410.54 131 2408.44 131.083 2406.27 131.25C2404.11 131.417 2402.61 131.5 2401.77 131.5C2400.31 131.5 2399.58 129.896 2399.58 126.688V89.3125C2399.58 83.8958 2398.71 79.9375 2396.96 77.4375C2395.21 74.8958 2392.92 73.625 2390.08 73.625C2387.25 73.625 2384.13 74.4792 2380.71 76.1875C2377.29 77.8542 2374.08 80.0208 2371.08 82.6875C2371.29 84.5625 2371.4 86.3958 2371.4 88.1875V115C2371.4 117.708 2372.44 119.146 2374.52 119.312C2374.94 119.354 2375.48 119.396 2376.15 119.438C2376.86 119.479 2377.4 119.521 2377.77 119.562C2378.19 119.604 2378.69 119.667 2379.27 119.75C2379.86 119.792 2380.31 119.854 2380.65 119.938C2380.98 119.979 2381.36 120.062 2381.77 120.188C2382.23 120.271 2382.58 120.375 2382.83 120.5C2383.08 120.625 2383.31 120.771 2383.52 120.938C2383.77 121.104 2383.94 121.312 2384.02 121.562C2384.15 121.771 2384.21 122.021 2384.21 122.312C2384.21 127.188 2383.52 130.25 2382.15 131.5C2378.15 131.167 2374.48 131 2371.15 131C2369.06 131 2366.77 131.083 2364.27 131.25C2361.77 131.417 2360.13 131.5 2359.33 131.5C2357.92 131.5 2357.21 129.896 2357.21 126.688V89.3125C2357.21 83.8958 2356.33 79.9375 2354.58 77.4375C2352.83 74.8958 2350.54 73.625 2347.71 73.625C2344.88 73.625 2341.77 74.5 2338.4 76.25C2335.02 78 2331.88 80.25 2328.96 83V115.312C2328.96 115.896 2329 116.396 2329.08 116.812C2329.17 117.188 2329.33 117.604 2329.58 118.062C2329.83 118.479 2330.25 118.812 2330.83 119.062C2331.46 119.271 2332.23 119.375 2333.15 119.375C2334.73 119.375 2336.08 119.625 2337.21 120.125C2338.33 120.625 2338.9 121.375 2338.9 122.375C2338.9 127.25 2338.21 130.292 2336.83 131.5C2332.75 131.167 2327.71 131 2321.71 131C2315.25 131 2310.46 131.167 2307.33 131.5C2305.96 130.25 2305.27 127.208 2305.27 122.375C2305.27 121.375 2305.83 120.625 2306.96 120.125C2308.08 119.625 2309.44 119.375 2311.02 119.375C2312.48 119.375 2313.46 119.083 2313.96 118.5C2314.5 117.917 2314.77 116.896 2314.77 115.438V81.875C2314.77 79.6667 2314.13 78.1042 2312.83 77.1875C2311.58 76.2708 2309.15 75.7292 2305.52 75.5625C2304.98 75.4375 2304.63 75.1667 2304.46 74.75C2304.33 74.3333 2304.27 73.4375 2304.27 72.0625C2304.27 69.9375 2304.5 68.0625 2304.96 66.4375C2305.42 64.8125 2305.88 63.875 2306.33 63.625C2309.54 64.0833 2312.65 64.3125 2315.65 64.3125C2317.52 64.3125 2319.5 64.2083 2321.58 64C2323.67 63.75 2324.77 63.625 2324.9 63.625C2326.36 63.625 2327.29 64 2327.71 64.75C2328.17 65.4583 2328.4 67.125 2328.4 69.75ZM2493.08 114.438C2493.08 118.646 2491.79 122.146 2489.21 124.938C2486.66 127.688 2483.29 129.667 2479.08 130.875C2474.87 132.083 2469.89 132.688 2464.14 132.688C2455.31 132.688 2448.39 131.417 2443.39 128.875C2438.43 126.333 2435.96 122.438 2435.96 117.188C2435.96 111.229 2439.6 108.25 2446.89 108.25C2448.06 108.25 2448.83 108.479 2449.21 108.938C2449.58 109.396 2449.77 110.271 2449.77 111.562V120.062C2451.31 120.896 2453.58 121.542 2456.58 122C2459.62 122.458 2462.68 122.688 2465.77 122.688C2469.43 122.688 2472.46 121.938 2474.83 120.438C2477.25 118.896 2478.46 116.792 2478.46 114.125C2478.46 112.25 2477.85 110.583 2476.64 109.125C2475.43 107.625 2473.85 106.417 2471.89 105.5C2469.93 104.583 2467.68 103.667 2465.14 102.75C2462.64 101.792 2460.08 100.917 2457.46 100.125C2454.87 99.3333 2452.31 98.3333 2449.77 97.125C2447.27 95.9167 2445.04 94.6042 2443.08 93.1875C2441.12 91.7708 2439.54 89.9167 2438.33 87.625C2437.12 85.3333 2436.52 82.75 2436.52 79.875C2436.52 76.1667 2437.89 72.9583 2440.64 70.25C2443.39 67.5417 2446.75 65.5833 2450.71 64.375C2454.71 63.1667 2458.98 62.5625 2463.52 62.5625C2482.18 62.5625 2491.52 67.9792 2491.52 78.8125C2491.52 79.4792 2491.39 80.1875 2491.14 80.9375C2490.93 81.6875 2490.5 82.5625 2489.83 83.5625C2489.21 84.5625 2488.12 85.3958 2486.58 86.0625C2485.08 86.6875 2483.23 87 2481.02 87C2480.6 87 2480.25 86.9583 2479.96 86.875C2479.71 86.7917 2479.5 86.7083 2479.33 86.625C2479.21 86.5 2479.08 86.3125 2478.96 86.0625C2478.87 85.7708 2478.81 85.5625 2478.77 85.4375C2478.77 85.3125 2478.73 85.0417 2478.64 84.625C2478.6 84.1667 2478.58 83.8542 2478.58 83.6875L2477.71 74.9375C2477.12 74.3542 2475.31 73.7083 2472.27 73C2469.27 72.2917 2466.68 71.9375 2464.52 71.9375C2460.27 71.9375 2457.1 72.7292 2455.02 74.3125C2452.98 75.8958 2451.96 77.8958 2451.96 80.3125C2451.96 82.0625 2452.71 83.6042 2454.21 84.9375C2455.75 86.2708 2457.73 87.4167 2460.14 88.375C2462.56 89.2917 2465.23 90.2083 2468.14 91.125C2471.06 92.0417 2473.98 93.1458 2476.89 94.4375C2479.81 95.6875 2482.48 97.125 2484.89 98.75C2487.31 100.375 2489.27 102.542 2490.77 105.25C2492.31 107.917 2493.08 110.979 2493.08 114.438ZM2533.39 140.688C2523.72 135.062 2516.3 127.312 2511.14 117.438C2505.97 107.562 2503.39 96.9583 2503.39 85.625C2503.39 74.375 2505.95 63.7292 2511.07 53.6875C2516.24 43.6042 2523.68 35.5208 2533.39 29.4375C2534.72 29.6042 2536.18 30.625 2537.76 32.5C2539.39 34.375 2540.24 35.875 2540.32 37C2533.2 42.1667 2527.74 49.0417 2523.95 57.625C2520.2 66.2083 2518.32 75.3542 2518.32 85.0625C2518.32 94.7708 2520.2 103.917 2523.95 112.5C2527.74 121.083 2533.2 127.958 2540.32 133.125C2540.24 134.25 2539.39 135.75 2537.76 137.625C2536.18 139.5 2534.72 140.521 2533.39 140.688ZM2575.07 38.8125V114.438C2575.07 115.062 2575.09 115.562 2575.13 115.938C2575.22 116.271 2575.36 116.667 2575.57 117.125C2575.82 117.583 2576.24 117.938 2576.82 118.188C2577.4 118.396 2578.15 118.5 2579.07 118.5C2580.99 118.5 2582.63 118.75 2584.01 119.25C2585.38 119.75 2586.07 120.5 2586.07 121.5C2586.07 126.917 2585.17 130.25 2583.38 131.5C2579.05 131.167 2573.9 131 2567.95 131C2562.24 131 2557.26 131.167 2553.01 131.5C2551.88 130.833 2551.05 129.542 2550.51 127.625C2549.97 125.667 2549.7 123.625 2549.7 121.5C2549.7 120.5 2550.38 119.75 2551.76 119.25C2553.13 118.75 2554.78 118.5 2556.7 118.5C2558.32 118.5 2559.38 118.167 2559.88 117.5C2560.38 116.792 2560.63 115.812 2560.63 114.562V54.3125C2560.63 53.0625 2560.38 52.1042 2559.88 51.4375C2559.38 50.7292 2558.32 50.375 2556.7 50.375C2554.78 50.375 2553.13 50.125 2551.76 49.625C2550.38 49.125 2549.7 48.375 2549.7 47.375C2549.7 43 2550.17 39.6667 2551.13 37.375C2555.26 37.7083 2559.22 37.875 2563.01 37.875C2566.55 37.875 2570.05 37.7083 2573.51 37.375C2574.55 37.375 2575.07 37.8542 2575.07 38.8125ZM2601.5 140.688C2600.17 140.521 2598.69 139.5 2597.06 137.625C2595.48 135.75 2594.65 134.25 2594.56 133.125C2601.69 127.958 2607.13 121.083 2610.88 112.5C2614.67 103.917 2616.56 94.7708 2616.56 85.0625C2616.56 75.3542 2614.67 66.2083 2610.88 57.625C2607.13 49.0417 2601.69 42.1667 2594.56 37C2594.65 35.875 2595.48 34.375 2597.06 32.5C2598.69 30.625 2600.17 29.6042 2601.5 29.4375C2611.21 35.5208 2618.63 43.6042 2623.75 53.6875C2628.92 63.7292 2631.5 74.375 2631.5 85.625C2631.5 96.9583 2628.92 107.562 2623.75 117.438C2618.59 127.312 2611.17 135.062 2601.5 140.688ZM2689.37 55.6875L2708.05 65.9375L2702.24 45.75C2702.16 45.25 2702.12 44.8958 2702.12 44.6875C2702.12 42.5625 2703.05 40.6667 2704.93 39C2706.85 37.3333 2709.05 36.5 2711.55 36.5C2714.1 36.5 2716.37 37.2292 2718.37 38.6875C2720.37 40.1458 2721.39 41.9583 2721.43 44.125C2721.43 44.1667 2721.41 44.3333 2721.37 44.625C2721.37 44.875 2721.37 45.1042 2721.37 45.3125L2721.43 45.125L2716.87 65.6875L2734.74 54.375C2735.99 53.8333 2736.97 53.5625 2737.68 53.5625C2739.93 53.5625 2741.97 54.4792 2743.8 56.3125C2745.64 58.1458 2746.55 60.3333 2746.55 62.875C2746.55 64.75 2746.03 66.4792 2744.99 68.0625C2743.99 69.6458 2742.64 70.625 2740.93 71L2718.55 73.4375C2719.97 74.3958 2722.93 76.4583 2727.43 79.625C2731.93 82.7917 2735.14 85.0417 2737.05 86.375C2738.55 88.4583 2739.3 90.1458 2739.3 91.4375C2739.3 94.3542 2738.28 96.8542 2736.24 98.9375C2734.24 101.021 2731.7 102.062 2728.62 102.062C2727.41 102.062 2726.26 101.833 2725.18 101.375C2724.1 100.875 2723.33 100.167 2722.87 99.25L2712.74 79.3125L2703.87 99.8125C2703.45 100.771 2702.64 101.542 2701.43 102.125C2700.22 102.708 2698.99 103 2697.74 103C2694.83 103 2692.28 102.021 2690.12 100.062C2687.95 98.1042 2686.87 95.7292 2686.87 92.9375C2686.87 91.4375 2687.35 89.9375 2688.3 88.4375L2688.87 87.75L2706.68 73.8125L2684.37 72.625C2682.62 72.3333 2681.14 71.4375 2679.93 69.9375C2678.76 68.3958 2678.18 66.7083 2678.18 64.875C2678.18 62.2917 2678.99 60.0208 2680.62 58.0625C2682.24 56.0625 2684.2 55.0625 2686.49 55.0625C2687.49 55.0625 2688.45 55.2708 2689.37 55.6875ZM2852.61 79.25C2852.61 81.7083 2851.73 83.7917 2849.98 85.5C2848.27 87.2083 2845.57 88.0625 2841.86 88.0625C2840.98 88.0625 2840.44 87.875 2840.23 87.5C2840.07 87.0833 2839.9 86.0208 2839.73 84.3125L2838.79 75.375C2838.5 75.1667 2838.09 74.9375 2837.54 74.6875C2837.04 74.3958 2835.88 74.0208 2834.04 73.5625C2832.25 73.0625 2830.36 72.8125 2828.36 72.8125C2822.02 72.8125 2816.9 75.2708 2812.98 80.1875C2809.11 85.0625 2807.17 90.875 2807.17 97.625C2807.17 104.917 2809.07 110.604 2812.86 114.688C2816.65 118.771 2822.13 120.812 2829.29 120.812C2832.63 120.812 2836.25 120.104 2840.17 118.688C2844.13 117.271 2847.36 115.458 2849.86 113.25C2852.23 116.042 2853.42 118.708 2853.42 121.25C2853.42 123.333 2852.19 125.271 2849.73 127.062C2847.27 128.854 2844.11 130.229 2840.23 131.188C2836.4 132.188 2832.4 132.688 2828.23 132.688C2823.4 132.688 2818.84 131.938 2814.54 130.438C2810.29 128.896 2806.52 126.688 2803.23 123.812C2799.94 120.896 2797.34 117.146 2795.42 112.562C2793.5 107.938 2792.54 102.729 2792.54 96.9375C2792.54 91.5625 2793.54 86.6667 2795.54 82.25C2797.59 77.7917 2800.27 74.1667 2803.61 71.375C2806.94 68.5417 2810.67 66.375 2814.79 64.875C2818.96 63.3333 2823.23 62.5625 2827.61 62.5625C2832.07 62.5625 2835.94 63.0208 2839.23 63.9375C2842.57 64.8125 2845.17 66.0417 2847.04 67.625C2848.96 69.2083 2850.36 70.9792 2851.23 72.9375C2852.15 74.8542 2852.61 76.9583 2852.61 79.25ZM2865.17 122.438C2865.17 119.562 2866.12 117.146 2868.04 115.188C2869.96 113.229 2872.77 112.25 2876.48 112.25C2880.1 112.25 2882.83 113.25 2884.67 115.25C2886.5 117.208 2887.42 119.604 2887.42 122.438C2887.42 125.229 2886.5 127.625 2884.67 129.625C2882.83 131.625 2880.1 132.625 2876.48 132.625C2872.77 132.625 2869.96 131.646 2868.04 129.688C2866.12 127.688 2865.17 125.271 2865.17 122.438ZM2920.53 38.8125H2926.78C2929.16 41.2708 2932.06 44.4792 2935.47 48.4375C2938.89 52.3958 2941.24 55.1875 2942.53 56.8125C2943.03 57.4375 2943.6 58.1458 2944.22 58.9375C2944.89 59.7292 2945.41 60.3542 2945.78 60.8125C2946.16 61.2292 2946.53 61.7083 2946.91 62.25C2947.28 62.75 2947.56 63.2083 2947.72 63.625C2947.89 64 2947.97 64.375 2947.97 64.75C2947.97 66.0833 2947.62 67.0625 2946.91 67.6875C2946.2 68.2708 2944.95 68.5625 2943.16 68.5625C2941.78 68.5625 2940.62 68.375 2939.66 68C2938.7 67.5833 2937.97 67.125 2937.47 66.625C2937.01 66.125 2936.28 65.25 2935.28 64L2923.97 49.5625L2912.66 64C2911.66 65.25 2910.91 66.125 2910.41 66.625C2909.95 67.125 2909.24 67.5833 2908.28 68C2907.33 68.375 2906.16 68.5625 2904.78 68.5625C2902.78 68.5625 2901.37 68.2708 2900.53 67.6875C2899.74 67.0625 2899.35 66.0833 2899.35 64.75C2899.35 64.375 2899.43 64 2899.6 63.625C2899.76 63.2083 2900.03 62.75 2900.41 62.25C2900.78 61.7083 2901.16 61.2292 2901.53 60.8125C2901.91 60.3542 2902.41 59.7292 2903.03 58.9375C2903.7 58.1458 2904.28 57.4375 2904.78 56.8125C2906.16 55.0625 2908.51 52.2292 2911.85 48.3125C2915.22 44.3958 2918.12 41.2292 2920.53 38.8125ZM2980.72 94.5V113.312C2982.93 116.104 2985.8 118.271 2989.34 119.812C2992.93 121.354 2996.66 122.125 3000.53 122.125C3005.82 122.125 3010.22 120.042 3013.72 115.875C3017.26 111.708 3019.03 105.604 3019.03 97.5625C3019.03 89.8542 3017.11 83.875 3013.28 79.625C3009.49 75.3333 3004.93 73.1875 2999.59 73.1875C2994.59 73.1875 2990.2 75.0833 2986.41 78.875C2982.61 82.625 2980.72 87.8333 2980.72 94.5ZM2980.72 125.312V140.688C2980.72 141.312 2980.74 141.792 2980.78 142.125C2980.86 142.5 2981.01 142.917 2981.22 143.375C2981.47 143.833 2981.88 144.167 2982.47 144.375C2983.05 144.625 2983.8 144.75 2984.72 144.75C2986.3 144.75 2987.66 145 2988.78 145.5C2989.91 146 2990.47 146.75 2990.47 147.75C2990.47 152.625 2989.78 155.667 2988.41 156.875C2985.61 156.25 2980.91 155.938 2974.28 155.938C2967.16 155.938 2962.03 156.25 2958.91 156.875C2957.53 155.625 2956.84 152.583 2956.84 147.75C2956.84 146.75 2957.41 146 2958.53 145.5C2959.66 145 2961.01 144.75 2962.59 144.75C2964.22 144.75 2965.28 144.396 2965.78 143.688C2966.28 143.021 2966.53 142.062 2966.53 140.812V81.875C2966.53 79.6667 2965.88 78.1042 2964.59 77.1875C2963.34 76.2708 2960.91 75.7292 2957.28 75.5625C2956.74 75.4375 2956.38 75.1667 2956.22 74.75C2956.09 74.3333 2956.03 73.4375 2956.03 72.0625C2956.03 69.9375 2956.26 68.0625 2956.72 66.4375C2957.18 64.8125 2957.63 63.875 2958.09 63.625C2961.3 64.0833 2964.41 64.3125 2967.41 64.3125C2969.28 64.3125 2971.26 64.2083 2973.34 64C2975.43 63.75 2976.53 63.625 2976.66 63.625C2978.11 63.625 2979.05 64 2979.47 64.75C2979.93 65.4583 2980.16 67.125 2980.16 69.75V74.25C2982.32 70.5 2985.38 67.625 2989.34 65.625C2993.3 63.5833 2997.41 62.5625 3001.66 62.5625C3005.78 62.5625 3009.72 63.3125 3013.47 64.8125C3017.26 66.3125 3020.68 68.4792 3023.72 71.3125C3026.76 74.1042 3029.18 77.7708 3030.97 82.3125C3032.8 86.8542 3033.72 91.9375 3033.72 97.5625C3033.72 103.188 3032.8 108.292 3030.97 112.875C3029.13 117.417 3026.68 121.104 3023.59 123.938C3020.55 126.771 3017.11 128.938 3013.28 130.438C3009.45 131.938 3005.45 132.688 3001.28 132.688C2992.99 132.688 2986.13 130.229 2980.72 125.312ZM3089.4 122.5C3086.36 125.708 3082.5 128.208 3077.84 130C3073.21 131.792 3068.5 132.688 3063.71 132.688C3057.75 132.688 3052.84 131.104 3048.96 127.938C3045.09 124.771 3043.15 120.188 3043.15 114.188C3043.15 107.771 3046.25 102.938 3052.46 99.6875C3057.13 97.1875 3065.13 95.0208 3076.46 93.1875C3078.59 92.8125 3082.05 92.2708 3086.84 91.5625C3086.84 84.4792 3085.94 79.6042 3084.15 76.9375C3082.36 74.2708 3078.92 72.9375 3073.84 72.9375C3070.13 72.9375 3066 73.7708 3061.46 75.4375C3056.92 77.1042 3053.3 79.4167 3050.59 82.375C3047.21 79.5417 3045.52 76.7708 3045.52 74.0625C3045.52 71.7292 3047.13 69.6667 3050.34 67.875C3053.55 66.0417 3057.32 64.7083 3061.65 63.875C3066.02 63 3070.4 62.5625 3074.77 62.5625C3078.9 62.5625 3082.5 63.0833 3085.59 64.125C3088.71 65.125 3091.46 66.7917 3093.84 69.125C3096.21 71.4583 3098 74.6667 3099.21 78.75C3100.46 82.8333 3101.09 87.7917 3101.09 93.625V113.625C3101.09 115.333 3101.21 116.625 3101.46 117.5C3101.75 118.333 3102.07 118.854 3102.4 119.062C3102.73 119.229 3103.27 119.354 3104.02 119.438C3105.32 119.562 3106.27 119.688 3106.9 119.812C3107.52 119.896 3108.25 120.042 3109.09 120.25C3109.92 120.458 3110.5 120.729 3110.84 121.062C3111.21 121.396 3111.4 121.812 3111.4 122.312C3111.4 127.229 3110.71 130.292 3109.34 131.5C3107.34 131.167 3104.73 131 3101.52 131C3098.61 131 3095.9 131.146 3093.4 131.438C3093.11 131.229 3092.73 130.938 3092.27 130.562C3091.86 130.188 3091.27 129.229 3090.52 127.688C3089.77 126.146 3089.4 124.417 3089.4 122.5ZM3066.59 121.562C3070.38 121.562 3074.48 120.521 3078.9 118.438C3083.32 116.312 3085.98 114.396 3086.9 112.688V101.625C3075.52 103.667 3067.84 105.5 3063.84 107.125C3059.88 108.75 3057.9 111.042 3057.9 114C3057.9 119.042 3060.8 121.562 3066.59 121.562ZM3143.83 69.75V73.8125C3145.71 70.8125 3148.5 68.1875 3152.21 65.9375C3155.92 63.6875 3159.46 62.5625 3162.83 62.5625C3165.04 62.5625 3167.15 62.9375 3169.15 63.6875C3171.15 64.3958 3172.87 65.6875 3174.33 67.5625C3175.83 69.4375 3176.58 71.7292 3176.58 74.4375C3176.58 81.8542 3172.65 85.5625 3164.77 85.5625C3164.6 85.5625 3164.44 85.5417 3164.27 85.5C3164.1 85.4583 3163.96 85.3958 3163.83 85.3125C3163.75 85.2292 3163.67 85.1458 3163.58 85.0625C3163.5 84.9792 3163.42 84.8542 3163.33 84.6875C3163.29 84.5208 3163.25 84.375 3163.21 84.25C3163.17 84.125 3163.12 83.9375 3163.08 83.6875C3163.04 83.3958 3163 83.1667 3162.96 83C3162.96 82.8333 3162.94 82.6042 3162.9 82.3125C3162.9 81.9792 3162.87 81.7083 3162.83 81.5L3162.08 75C3160.96 74.4583 3159.73 74.1875 3158.4 74.1875C3155.98 74.1875 3153.54 75.0833 3151.08 76.875C3148.67 78.625 3146.87 80.6667 3145.71 83V114.625C3145.71 115.25 3145.73 115.75 3145.77 116.125C3145.85 116.458 3146 116.854 3146.21 117.312C3146.46 117.771 3146.87 118.125 3147.46 118.375C3148.04 118.583 3148.79 118.688 3149.71 118.688C3151.29 118.688 3152.65 118.938 3153.77 119.438C3154.9 119.938 3155.46 120.688 3155.46 121.688C3155.46 123.688 3155.12 125.667 3154.46 127.625C3153.79 129.583 3152.81 130.875 3151.52 131.5C3148.6 131.167 3144.33 131 3138.71 131C3133.08 131 3128.77 131.167 3125.77 131.5C3124.4 130.875 3123.4 129.604 3122.77 127.688C3122.15 125.729 3121.83 123.729 3121.83 121.688C3121.83 120.688 3122.4 119.938 3123.52 119.438C3124.65 118.938 3126 118.688 3127.58 118.688C3129.21 118.688 3130.27 118.354 3130.77 117.688C3131.27 116.979 3131.52 116 3131.52 114.75V81.875C3131.52 79.6667 3130.87 78.1042 3129.58 77.1875C3128.33 76.2708 3125.9 75.7292 3122.27 75.5625C3121.73 75.4375 3121.37 75.1667 3121.21 74.75C3121.08 74.3333 3121.02 73.4375 3121.02 72.0625C3121.02 69.9375 3121.25 68.0625 3121.71 66.4375C3122.17 64.8125 3122.62 63.875 3123.08 63.625C3126.04 64.0833 3128.94 64.3125 3131.77 64.3125C3133.52 64.3125 3135.35 64.2083 3137.27 64C3139.23 63.75 3140.27 63.625 3140.4 63.625C3141.85 63.625 3142.79 64 3143.21 64.75C3143.62 65.4583 3143.83 67.125 3143.83 69.75ZM3232.51 122.5C3229.47 125.708 3225.62 128.208 3220.95 130C3216.33 131.792 3211.62 132.688 3206.83 132.688C3200.87 132.688 3195.95 131.104 3192.08 127.938C3188.2 124.771 3186.26 120.188 3186.26 114.188C3186.26 107.771 3189.37 102.938 3195.58 99.6875C3200.24 97.1875 3208.24 95.0208 3219.58 93.1875C3221.7 92.8125 3225.16 92.2708 3229.95 91.5625C3229.95 84.4792 3229.06 79.6042 3227.26 76.9375C3225.47 74.2708 3222.04 72.9375 3216.95 72.9375C3213.24 72.9375 3209.12 73.7708 3204.58 75.4375C3200.04 77.1042 3196.41 79.4167 3193.7 82.375C3190.33 79.5417 3188.64 76.7708 3188.64 74.0625C3188.64 71.7292 3190.24 69.6667 3193.45 67.875C3196.66 66.0417 3200.43 64.7083 3204.76 63.875C3209.14 63 3213.51 62.5625 3217.89 62.5625C3222.01 62.5625 3225.62 63.0833 3228.7 64.125C3231.83 65.125 3234.58 66.7917 3236.95 69.125C3239.33 71.4583 3241.12 74.6667 3242.33 78.75C3243.58 82.8333 3244.2 87.7917 3244.2 93.625V113.625C3244.2 115.333 3244.33 116.625 3244.58 117.5C3244.87 118.333 3245.18 118.854 3245.51 119.062C3245.85 119.229 3246.39 119.354 3247.14 119.438C3248.43 119.562 3249.39 119.688 3250.01 119.812C3250.64 119.896 3251.37 120.042 3252.2 120.25C3253.04 120.458 3253.62 120.729 3253.95 121.062C3254.33 121.396 3254.51 121.812 3254.51 122.312C3254.51 127.229 3253.83 130.292 3252.45 131.5C3250.45 131.167 3247.85 131 3244.64 131C3241.72 131 3239.01 131.146 3236.51 131.438C3236.22 131.229 3235.85 130.938 3235.39 130.562C3234.97 130.188 3234.39 129.229 3233.64 127.688C3232.89 126.146 3232.51 124.417 3232.51 122.5ZM3209.7 121.562C3213.49 121.562 3217.6 120.521 3222.01 118.438C3226.43 116.312 3229.1 114.396 3230.01 112.688V101.625C3218.64 103.667 3210.95 105.5 3206.95 107.125C3202.99 108.75 3201.01 111.042 3201.01 114C3201.01 119.042 3203.91 121.562 3209.7 121.562ZM3288.2 69.75V73.1875C3291.2 70.0625 3294.78 67.5208 3298.95 65.5625C3303.16 63.5625 3307.3 62.5625 3311.39 62.5625C3315.09 62.5625 3318.45 63.4792 3321.45 65.3125C3324.49 67.1458 3326.93 69.9792 3328.76 73.8125C3332.47 70.4792 3336.61 67.7917 3341.2 65.75C3345.82 63.6667 3350.24 62.625 3354.45 62.625C3360.11 62.625 3364.72 64.6875 3368.26 68.8125C3371.8 72.9375 3373.57 79.3958 3373.57 88.1875V115C3373.57 117.708 3374.64 119.146 3376.76 119.312C3377.18 119.354 3377.74 119.396 3378.45 119.438C3379.2 119.479 3379.78 119.521 3380.2 119.562C3380.61 119.604 3381.14 119.667 3381.76 119.75C3382.39 119.792 3382.89 119.854 3383.26 119.938C3383.64 119.979 3384.05 120.062 3384.51 120.188C3384.97 120.271 3385.32 120.375 3385.57 120.5C3385.86 120.625 3386.14 120.771 3386.39 120.938C3386.64 121.104 3386.8 121.312 3386.89 121.562C3387.01 121.771 3387.07 122.021 3387.07 122.312C3387.07 127.188 3386.39 130.25 3385.01 131.5C3380.14 131.167 3375.93 131 3372.39 131C3370.34 131 3368.24 131.083 3366.07 131.25C3363.91 131.417 3362.41 131.5 3361.57 131.5C3360.11 131.5 3359.39 129.896 3359.39 126.688V89.3125C3359.39 83.8958 3358.51 79.9375 3356.76 77.4375C3355.01 74.8958 3352.72 73.625 3349.89 73.625C3347.05 73.625 3343.93 74.4792 3340.51 76.1875C3337.09 77.8542 3333.89 80.0208 3330.89 82.6875C3331.09 84.5625 3331.2 86.3958 3331.2 88.1875V115C3331.2 117.708 3332.24 119.146 3334.32 119.312C3334.74 119.354 3335.28 119.396 3335.95 119.438C3336.66 119.479 3337.2 119.521 3337.57 119.562C3337.99 119.604 3338.49 119.667 3339.07 119.75C3339.66 119.792 3340.11 119.854 3340.45 119.938C3340.78 119.979 3341.16 120.062 3341.57 120.188C3342.03 120.271 3342.39 120.375 3342.64 120.5C3342.89 120.625 3343.11 120.771 3343.32 120.938C3343.57 121.104 3343.74 121.312 3343.82 121.562C3343.95 121.771 3344.01 122.021 3344.01 122.312C3344.01 127.188 3343.32 130.25 3341.95 131.5C3337.95 131.167 3334.28 131 3330.95 131C3328.86 131 3326.57 131.083 3324.07 131.25C3321.57 131.417 3319.93 131.5 3319.14 131.5C3317.72 131.5 3317.01 129.896 3317.01 126.688V89.3125C3317.01 83.8958 3316.14 79.9375 3314.39 77.4375C3312.64 74.8958 3310.34 73.625 3307.51 73.625C3304.68 73.625 3301.57 74.5 3298.2 76.25C3294.82 78 3291.68 80.25 3288.76 83V115.312C3288.76 115.896 3288.8 116.396 3288.89 116.812C3288.97 117.188 3289.14 117.604 3289.39 118.062C3289.64 118.479 3290.05 118.812 3290.64 119.062C3291.26 119.271 3292.03 119.375 3292.95 119.375C3294.53 119.375 3295.89 119.625 3297.01 120.125C3298.14 120.625 3298.7 121.375 3298.7 122.375C3298.7 127.25 3298.01 130.292 3296.64 131.5C3292.55 131.167 3287.51 131 3281.51 131C3275.05 131 3270.26 131.167 3267.14 131.5C3265.76 130.25 3265.07 127.208 3265.07 122.375C3265.07 121.375 3265.64 120.625 3266.76 120.125C3267.89 119.625 3269.24 119.375 3270.82 119.375C3272.28 119.375 3273.26 119.083 3273.76 118.5C3274.3 117.917 3274.57 116.896 3274.57 115.438V81.875C3274.57 79.6667 3273.93 78.1042 3272.64 77.1875C3271.39 76.2708 3268.95 75.7292 3265.32 75.5625C3264.78 75.4375 3264.43 75.1667 3264.26 74.75C3264.14 74.3333 3264.07 73.4375 3264.07 72.0625C3264.07 69.9375 3264.3 68.0625 3264.76 66.4375C3265.22 64.8125 3265.68 63.875 3266.14 63.625C3269.34 64.0833 3272.45 64.3125 3275.45 64.3125C3277.32 64.3125 3279.3 64.2083 3281.39 64C3283.47 63.75 3284.57 63.625 3284.7 63.625C3286.16 63.625 3287.09 64 3287.51 64.75C3287.97 65.4583 3288.2 67.125 3288.2 69.75ZM3452.88 114.438C3452.88 118.646 3451.59 122.146 3449 124.938C3446.46 127.688 3443.09 129.667 3438.88 130.875C3434.67 132.083 3429.69 132.688 3423.94 132.688C3415.11 132.688 3408.19 131.417 3403.19 128.875C3398.23 126.333 3395.75 122.438 3395.75 117.188C3395.75 111.229 3399.4 108.25 3406.69 108.25C3407.86 108.25 3408.63 108.479 3409 108.938C3409.38 109.396 3409.57 110.271 3409.57 111.562V120.062C3411.11 120.896 3413.38 121.542 3416.38 122C3419.42 122.458 3422.48 122.688 3425.57 122.688C3429.23 122.688 3432.25 121.938 3434.63 120.438C3437.05 118.896 3438.25 116.792 3438.25 114.125C3438.25 112.25 3437.65 110.583 3436.44 109.125C3435.23 107.625 3433.65 106.417 3431.69 105.5C3429.73 104.583 3427.48 103.667 3424.94 102.75C3422.44 101.792 3419.88 100.917 3417.25 100.125C3414.67 99.3333 3412.11 98.3333 3409.57 97.125C3407.07 95.9167 3404.84 94.6042 3402.88 93.1875C3400.92 91.7708 3399.34 89.9167 3398.13 87.625C3396.92 85.3333 3396.32 82.75 3396.32 79.875C3396.32 76.1667 3397.69 72.9583 3400.44 70.25C3403.19 67.5417 3406.55 65.5833 3410.5 64.375C3414.5 63.1667 3418.78 62.5625 3423.32 62.5625C3441.98 62.5625 3451.32 67.9792 3451.32 78.8125C3451.32 79.4792 3451.19 80.1875 3450.94 80.9375C3450.73 81.6875 3450.3 82.5625 3449.63 83.5625C3449 84.5625 3447.92 85.3958 3446.38 86.0625C3444.88 86.6875 3443.03 87 3440.82 87C3440.4 87 3440.05 86.9583 3439.75 86.875C3439.5 86.7917 3439.3 86.7083 3439.13 86.625C3439 86.5 3438.88 86.3125 3438.75 86.0625C3438.67 85.7708 3438.61 85.5625 3438.57 85.4375C3438.57 85.3125 3438.53 85.0417 3438.44 84.625C3438.4 84.1667 3438.38 83.8542 3438.38 83.6875L3437.5 74.9375C3436.92 74.3542 3435.11 73.7083 3432.07 73C3429.07 72.2917 3426.48 71.9375 3424.32 71.9375C3420.07 71.9375 3416.9 72.7292 3414.82 74.3125C3412.78 75.8958 3411.75 77.8958 3411.75 80.3125C3411.75 82.0625 3412.5 83.6042 3414 84.9375C3415.55 86.2708 3417.53 87.4167 3419.94 88.375C3422.36 89.2917 3425.03 90.2083 3427.94 91.125C3430.86 92.0417 3433.78 93.1458 3436.69 94.4375C3439.61 95.6875 3442.28 97.125 3444.69 98.75C3447.11 100.375 3449.07 102.542 3450.57 105.25C3452.11 107.917 3452.88 110.979 3452.88 114.438ZM3493.19 140.688C3483.52 135.062 3476.1 127.312 3470.94 117.438C3465.77 107.562 3463.19 96.9583 3463.19 85.625C3463.19 74.375 3465.75 63.7292 3470.88 53.6875C3476.04 43.6042 3483.48 35.5208 3493.19 29.4375C3494.52 29.6042 3495.98 30.625 3497.56 32.5C3499.19 34.375 3500.04 35.875 3500.12 37C3493 42.1667 3487.54 49.0417 3483.75 57.625C3480 66.2083 3478.12 75.3542 3478.12 85.0625C3478.12 94.7708 3480 103.917 3483.75 112.5C3487.54 121.083 3493 127.958 3500.12 133.125C3500.04 134.25 3499.19 135.75 3497.56 137.625C3495.98 139.5 3494.52 140.521 3493.19 140.688ZM3513.81 41.4375C3524.81 38.1875 3534.04 36.5625 3541.49 36.5625C3545.99 36.5625 3550.16 36.9792 3553.99 37.8125C3557.87 38.6042 3561.41 39.875 3564.62 41.625C3567.87 43.375 3570.41 45.7917 3572.24 48.875C3574.12 51.9583 3575.06 55.5833 3575.06 59.75C3575.06 62 3574.7 64.25 3573.99 66.5C3573.33 68.75 3572.1 71.2708 3570.31 74.0625C3568.56 76.8542 3566.54 79.6667 3564.24 82.5C3561.95 85.2917 3558.83 88.7292 3554.87 92.8125C3550.91 96.8958 3546.79 101 3542.49 105.125C3538.24 109.25 3532.87 114.333 3526.37 120.375H3548.62C3551.04 120.375 3553.06 120.208 3554.68 119.875C3556.35 119.542 3557.66 119.146 3558.62 118.688C3559.58 118.188 3560.41 117.375 3561.12 116.25C3561.83 115.125 3562.35 114.104 3562.68 113.188C3563.02 112.271 3563.49 110.833 3564.12 108.875C3564.79 106.875 3565.41 105.146 3565.99 103.688C3566.66 103.146 3567.66 102.875 3568.99 102.875C3570.16 102.875 3571.52 103.062 3573.06 103.438C3574.6 103.812 3575.87 104.188 3576.87 104.562L3578.31 105.125C3578.31 107.042 3577.37 111.125 3575.49 117.375C3573.66 123.583 3572.33 127.333 3571.49 128.625C3569.24 130.208 3560.52 131 3545.31 131H3514.56C3513.72 130.417 3512.89 128.771 3512.06 126.062C3511.22 123.312 3510.74 120.646 3510.62 118.062C3512.99 115.312 3516.49 111.708 3521.12 107.25C3525.74 102.75 3530.12 98.5 3534.24 94.5C3538.37 90.4583 3542.45 86.2917 3546.49 82C3550.54 77.6667 3553.77 73.5625 3556.18 69.6875C3558.6 65.8125 3559.81 62.5208 3559.81 59.8125C3559.81 55.5625 3558.29 52.3542 3555.24 50.1875C3552.24 48.0208 3548.43 46.9375 3543.81 46.9375C3539.77 46.9375 3536.43 47.2917 3533.81 48C3531.18 48.6667 3528.93 49.875 3527.06 51.625C3525.22 53.375 3523.77 55.5833 3522.68 58.25C3521.6 60.875 3520.6 64.3542 3519.68 68.6875C3517.6 68.6875 3515.22 68.3958 3512.56 67.8125C3509.93 67.2292 3508.62 66.6458 3508.62 66.0625C3508.62 64.2708 3509.27 60.3125 3510.56 54.1875C3511.85 48.0208 3512.93 43.7708 3513.81 41.4375ZM3593.68 140.688C3592.34 140.521 3590.86 139.5 3589.24 137.625C3587.66 135.75 3586.82 134.25 3586.74 133.125C3593.86 127.958 3599.3 121.083 3603.05 112.5C3606.84 103.917 3608.74 94.7708 3608.74 85.0625C3608.74 75.3542 3606.84 66.2083 3603.05 57.625C3599.3 49.0417 3593.86 42.1667 3586.74 37C3586.82 35.875 3587.66 34.375 3589.24 32.5C3590.86 30.625 3592.34 29.6042 3593.68 29.4375C3603.39 35.5208 3610.8 43.6042 3615.93 53.6875C3621.09 63.7292 3623.68 74.375 3623.68 85.625C3623.68 96.9583 3621.09 107.562 3615.93 117.438C3610.76 127.312 3603.34 135.062 3593.68 140.688ZM3635.11 72.75C3635.11 69.875 3636.07 67.4583 3637.99 65.5C3639.9 63.5417 3642.71 62.5625 3646.42 62.5625C3650.05 62.5625 3652.78 63.5625 3654.61 65.5625C3656.44 67.5208 3657.36 69.9167 3657.36 72.75C3657.36 75.5417 3656.44 77.9375 3654.61 79.9375C3652.78 81.9375 3650.05 82.9375 3646.42 82.9375C3642.71 82.9375 3639.9 81.9583 3637.99 80C3636.07 78 3635.11 75.5833 3635.11 72.75ZM3640.61 130.688C3640.61 130.021 3641.53 128.708 3643.36 126.75C3645.24 124.75 3646.17 123.583 3646.17 123.25C3646.17 122.667 3645.8 122.167 3645.05 121.75C3644.3 121.333 3643.38 120.938 3642.3 120.562C3641.21 120.188 3640.11 119.708 3638.99 119.125C3637.9 118.542 3636.99 117.625 3636.24 116.375C3635.49 115.083 3635.11 113.521 3635.11 111.688C3635.11 108.521 3636.19 105.938 3638.36 103.938C3640.57 101.938 3643.4 100.938 3646.86 100.938C3650.19 100.938 3653.01 102.042 3655.3 104.25C3657.63 106.417 3658.8 109.083 3658.8 112.25C3658.8 115.375 3658.09 118.521 3656.67 121.688C3655.26 124.812 3653.34 127.417 3650.92 129.5C3648.55 131.583 3646.11 132.625 3643.61 132.625C3641.61 132.625 3640.61 131.979 3640.61 130.688Z" fill="white"/>
</svg>
